<svg id="Layer_1" data-name="Layer 1" xmlns="http://www.w3.org/2000/svg" viewBox="0 0 265.89 204.19"><defs><style>.cls-1{fill:#fff;stroke:#8e8e8e;stroke-miterlimit:10;}.cls-2{fill:#9e9d9e;}.cls-3{fill:#6d6e71;}</style></defs><rect class="cls-1" x="199.88" y="263.55" width="203.19" height="264.89" rx="30.85" transform="translate(528.95 -199.38) rotate(90)"/><path class="cls-2" d="M202.37,313.45a1.76,1.76,0,0,0,1.68-1.27l11-.07a1.75,1.75,0,0,0,1.74,1.46,1.77,1.77,0,1,0-1.75-2.05l-10.89.06a1.76,1.76,0,1,0-1.75,1.87Z" transform="translate(-168.53 -293.9)"/><path class="cls-2" d="M233,323.1a1.77,1.77,0,0,0-1.73,1.48l-6.53,0a1.76,1.76,0,0,0-3.47,0l-9.73.06a2.74,2.74,0,0,0-2.72-2.42,2.71,2.71,0,0,0-2.69,2.45l-3.65,0a1.76,1.76,0,0,0-3.47,0l-7.82.05a1.74,1.74,0,1,0,.06.59l7.74,0a1.76,1.76,0,0,0,3.47,0l3.62,0a2.74,2.74,0,0,0,2.72,2.41,2.69,2.69,0,0,0,2.69-2.45l9.73,0a1.76,1.76,0,0,0,3.47,0l6.53,0a1.76,1.76,0,0,0,3.5-.32A1.67,1.67,0,0,0,233,323.1Z" transform="translate(-168.53 -293.9)"/><path class="cls-2" d="M228.61,328.31a1.77,1.77,0,0,0-1.73,1.48l-7.77,0a2.41,2.41,0,0,0-4.81,0l-9.63.05a1.76,1.76,0,0,0-3.52,0L193,330a1.74,1.74,0,1,0,0,.6l8.19-.05a1.74,1.74,0,0,0,1.69,1.21,1.78,1.78,0,0,0,1.68-1.23l9.8-.06a2.4,2.4,0,0,0,4.67,0l7.84-.05a1.76,1.76,0,0,0,1.74,1.46,1.77,1.77,0,1,0,0-3.53Z" transform="translate(-168.53 -293.9)"/><path class="cls-2" d="M210.62,332.59a1.75,1.75,0,0,0-1.73,1.47l-11.71.07a1.78,1.78,0,1,0,0,.59l11.71-.07a1.76,1.76,0,0,0,3.5-.31A1.73,1.73,0,0,0,210.62,332.59Z" transform="translate(-168.53 -293.9)"/><path class="cls-2" d="M206.13,337.47A1.77,1.77,0,0,0,204.4,339l-4.22,0a1.74,1.74,0,1,0,0,.6l4.21,0a1.76,1.76,0,0,0,3.5-.31A1.73,1.73,0,0,0,206.13,337.47Z" transform="translate(-168.53 -293.9)"/><path class="cls-2" d="M193.83,316.87a1.75,1.75,0,0,0,1.73-1.47l14.46-.08a1.77,1.77,0,0,0,3.48,0l7.71-.05a1.78,1.78,0,1,0,0-.59l-7.72,0a1.76,1.76,0,0,0-3.47,0l-14.47.09a1.75,1.75,0,0,0-1.74-1.46,1.78,1.78,0,0,0-1.76,1.77A1.75,1.75,0,0,0,193.83,316.87Z" transform="translate(-168.53 -293.9)"/><path class="cls-2" d="M190.31,321.68a1.74,1.74,0,0,0,1.72-1.47l8.74,0a2.45,2.45,0,0,0,4.76,0l5.91,0a2.74,2.74,0,0,0,5.36,0h2a1.77,1.77,0,0,0,3.48,0l5.66,0a1.76,1.76,0,0,0,3.49-.31,1.76,1.76,0,0,0-3.5-.28l-5.66,0a1.76,1.76,0,0,0-3.47,0h-1.91a2.75,2.75,0,0,0-2.75-2.69,2.71,2.71,0,0,0-2.71,2.72l-5.81,0a2.46,2.46,0,0,0-4.91,0l-8.68.05a1.76,1.76,0,1,0-1.7,2.07Z" transform="translate(-168.53 -293.9)"/><circle class="cls-2" cx="34.02" cy="50.74" r="1.76"/><rect class="cls-2" x="186.29" y="366.03" width="19.01" height="25.33" rx="5.61" transform="translate(405.96 -111.01) rotate(90)"/><rect class="cls-2" x="186.29" y="434.63" width="19.01" height="25.33" rx="5.61" transform="translate(474.56 -42.41) rotate(90)"/><rect class="cls-2" x="186.29" y="457.49" width="19.01" height="25.33" rx="5.61" transform="translate(497.43 -19.54) rotate(90)"/><rect class="cls-2" x="220.13" y="366.03" width="19.01" height="25.33" rx="5.61" transform="translate(439.8 -144.85) rotate(90)"/><rect class="cls-2" x="254.97" y="366.03" width="19.01" height="25.33" rx="5.61" transform="translate(474.64 -179.69) rotate(90)"/><rect class="cls-2" x="289.81" y="366.03" width="19.01" height="25.33" rx="5.61" transform="translate(509.48 -214.53) rotate(90)"/><rect class="cls-2" x="324.65" y="366.03" width="19.01" height="25.33" rx="5.61" transform="translate(544.32 -249.37) rotate(90)"/><rect class="cls-2" x="359.49" y="366.03" width="19.01" height="25.33" rx="5.61" transform="translate(579.16 -284.21) rotate(90)"/><rect class="cls-2" x="394.33" y="366.03" width="19.01" height="25.33" rx="5.61" transform="translate(614 -319.05) rotate(90)"/><rect class="cls-2" x="186.29" y="388.89" width="19.01" height="25.33" rx="5.61" transform="translate(428.83 -88.14) rotate(90)"/><rect class="cls-2" x="186.29" y="411.76" width="19.01" height="25.33" rx="5.61" transform="translate(451.7 -65.28) rotate(90)"/><rect class="cls-2" x="220.13" y="388.89" width="19.01" height="25.33" rx="5.61" transform="translate(462.67 -121.98) rotate(90)"/><rect class="cls-2" x="254.97" y="388.89" width="19.01" height="25.33" rx="5.61" transform="translate(497.51 -156.82) rotate(90)"/><rect class="cls-2" x="289.81" y="388.89" width="19.01" height="25.33" rx="5.61" transform="translate(532.35 -191.66) rotate(90)"/><rect class="cls-2" x="324.65" y="388.89" width="19.01" height="25.33" rx="5.61" transform="translate(567.19 -226.5) rotate(90)"/><rect class="cls-2" x="359.49" y="388.89" width="19.01" height="25.33" rx="5.61" transform="translate(602.02 -261.34) rotate(90)"/><rect class="cls-2" x="394.33" y="388.89" width="19.01" height="25.33" rx="5.61" transform="translate(636.86 -296.18) rotate(90)"/><rect class="cls-2" x="220.01" y="411.76" width="19.01" height="25.33" rx="5.61" transform="translate(485.41 -98.99) rotate(90)"/><rect class="cls-2" x="254.84" y="411.76" width="19.01" height="25.33" rx="5.61" transform="translate(520.25 -133.83) rotate(90)"/><rect class="cls-2" x="289.68" y="411.76" width="19.01" height="25.33" rx="5.61" transform="translate(555.08 -168.67) rotate(90)"/><rect class="cls-2" x="324.52" y="411.76" width="19.01" height="25.33" rx="5.61" transform="translate(589.92 -203.51) rotate(90)"/><rect class="cls-2" x="359.36" y="411.76" width="19.01" height="25.33" rx="5.61" transform="translate(624.76 -238.34) rotate(90)"/><rect class="cls-2" x="394.2" y="411.76" width="19.01" height="25.33" rx="5.61" transform="translate(659.6 -273.18) rotate(90)"/><rect class="cls-2" x="220.01" y="434.63" width="19.01" height="25.33" rx="5.61" transform="translate(508.27 -76.12) rotate(90)"/><rect class="cls-2" x="254.84" y="434.63" width="19.01" height="25.33" rx="5.61" transform="translate(543.11 -110.96) rotate(90)"/><rect class="cls-2" x="289.68" y="434.63" width="19.01" height="25.33" rx="5.61" transform="translate(577.95 -145.8) rotate(90)"/><rect class="cls-2" x="324.52" y="434.63" width="19.01" height="25.33" rx="5.61" transform="translate(612.79 -180.64) rotate(90)"/><rect class="cls-2" x="359.36" y="434.63" width="19.01" height="25.33" rx="5.61" transform="translate(647.63 -215.48) rotate(90)"/><rect class="cls-2" x="394.2" y="434.63" width="19.01" height="25.33" rx="5.61" transform="translate(682.47 -250.32) rotate(90)"/><rect class="cls-2" x="220.01" y="457.49" width="19.01" height="25.33" rx="5.61" transform="translate(531.14 -53.26) rotate(90)"/><rect class="cls-3" x="190.56" y="347.93" width="9.48" height="25.33" rx="4.74" transform="translate(387.36 -128.61) rotate(90)"/><rect class="cls-3" x="224.4" y="347.93" width="9.48" height="25.33" rx="4.74" transform="translate(421.2 -162.45) rotate(90)"/><rect class="cls-3" x="259.24" y="347.93" width="9.48" height="25.33" rx="4.74" transform="translate(456.04 -197.29) rotate(90)"/><rect class="cls-3" x="294.08" y="347.93" width="9.48" height="25.33" rx="4.74" transform="translate(490.88 -232.13) rotate(90)"/><rect class="cls-3" x="328.92" y="347.93" width="9.48" height="25.33" rx="4.74" transform="translate(525.72 -266.97) rotate(90)"/><rect class="cls-3" x="363.76" y="347.93" width="9.48" height="25.33" rx="4.74" transform="translate(560.56 -301.81) rotate(90)"/><rect class="cls-3" x="398.59" y="347.93" width="9.48" height="25.33" rx="4.74" transform="translate(595.4 -336.65) rotate(90)"/></svg>