<?xml version="1.0" encoding="utf-8"?>
<!-- Generator: Adobe Illustrator 24.1.2, SVG Export Plug-In . SVG Version: 6.00 Build 0)  -->
<svg version="1.1" id="Layer_2_00000168088641493664903380000015359700627689654942_"
	 xmlns="http://www.w3.org/2000/svg" xmlns:xlink="http://www.w3.org/1999/xlink" x="0px" y="0px" viewBox="0 0 106 106"
	 style="enable-background:new 0 0 106 106;" xml:space="preserve">
<style type="text/css">
	.st0{fill:#FFFFFF;}
	.st1{fill:url(#SVGID_1_);}
	.st2{fill:url(#SVGID_2_);}
	.st3{fill:url(#SVGID_3_);}
	.st4{fill:url(#SVGID_4_);}
	.st5{fill:url(#SVGID_5_);}
	.st6{fill:url(#SVGID_6_);}
	.st7{fill:url(#SVGID_7_);}
	.st8{fill:url(#SVGID_8_);}
</style>
<path class="st0" d="M72.2,105.6H33.4C15,105.6,0,90.7,0,72.3V33.5C0,15.1,15,0.1,33.4,0.1h38.8c18.4,0,33.3,14.9,33.3,33.3v38.8
	C105.5,90.7,90.6,105.6,72.2,105.6z"/>
<g id="Layer_1-2">
	
		<linearGradient id="SVGID_1_" gradientUnits="userSpaceOnUse" x1="34.2395" y1="-421.52" x2="67.5122" y2="-421.52" gradientTransform="matrix(1 0 0 -1 0 -396.02)">
		<stop  offset="0" style="stop-color:#4BA3C3"/>
		<stop  offset="1" style="stop-color:#175776"/>
	</linearGradient>
	<path class="st1" d="M37.5,28.6c1.5,0,2.7-1,3.1-2.3h20.3c0.3,1.5,1.6,2.7,3.2,2.7c1.8,0,3.3-1.5,3.3-3.3s-1.5-3.3-3.3-3.3
		c-1.6,0-3,1.2-3.2,2.7H40.8c-0.1-1.7-1.5-3.1-3.3-3.1s-3.3,1.5-3.3,3.3S35.7,28.6,37.5,28.6L37.5,28.6z"/>
	
		<linearGradient id="SVGID_2_" gradientUnits="userSpaceOnUse" x1="10.2" y1="-446.12" x2="97.4047" y2="-446.12" gradientTransform="matrix(1 0 0 -1 0 -396.02)">
		<stop  offset="0" style="stop-color:#4BA3C3"/>
		<stop  offset="1" style="stop-color:#175776"/>
	</linearGradient>
	<path class="st2" d="M94.2,46.8c-1.6,0-3,1.2-3.2,2.7H78.9c-0.3-1.5-1.6-2.7-3.2-2.7s-3,1.2-3.2,2.7H54.4C54.1,47,52,45,49.4,45
		s-4.8,2-5,4.5h-6.7c-0.3-1.5-1.6-2.7-3.2-2.7s-3,1.2-3.2,2.7H16.7c-0.4-1.4-1.6-2.4-3.2-2.4c-1.8,0-3.3,1.5-3.3,3.3
		s1.5,3.3,3.3,3.3s3.1-1.3,3.3-3h14.4c0.3,1.5,1.6,2.7,3.2,2.7s3-1.2,3.2-2.7h6.7c0.3,2.5,2.4,4.5,5,4.5s4.8-2,5-4.5h18.1
		c0.3,1.5,1.6,2.7,3.2,2.7s3-1.2,3.2-2.7h12.1c0.3,1.5,1.6,2.7,3.2,2.7c1.8,0,3.3-1.5,3.3-3.3C97.5,48.3,96,46.8,94.2,46.8
		L94.2,46.8z"/>
	
		<linearGradient id="SVGID_3_" gradientUnits="userSpaceOnUse" x1="13.5" y1="-455.32" x2="89.3071" y2="-455.32" gradientTransform="matrix(1 0 0 -1 0 -396.02)">
		<stop  offset="0" style="stop-color:#4BA3C3"/>
		<stop  offset="1" style="stop-color:#175776"/>
	</linearGradient>
	<path class="st3" d="M86,56.5c-1.6,0-3,1.2-3.2,2.7H68.4c-0.1-2.4-2-4.4-4.5-4.4c-2.4,0-4.4,1.9-4.5,4.4H41.6
		c-0.1-1.8-1.5-3.2-3.3-3.2s-3.2,1.4-3.3,3.2H20c-0.3-1.5-1.6-2.7-3.2-2.7c-1.8,0-3.3,1.5-3.3,3.3s1.5,3.3,3.3,3.3
		c1.6,0,3-1.2,3.2-2.7h15.2c0.4,1.3,1.7,2.3,3.1,2.3c1.5,0,2.7-1,3.1-2.3h18.2c0.5,2,2.2,3.4,4.3,3.4c2.1,0,3.9-1.5,4.3-3.4h14.5
		c0.3,1.5,1.6,2.7,3.2,2.7c1.8,0,3.3-1.5,3.3-3.3C89.3,58,87.9,56.5,86,56.5z"/>
	
		<linearGradient id="SVGID_4_" gradientUnits="userSpaceOnUse" x1="21.2395" y1="-463.52" x2="55.9749" y2="-463.52" gradientTransform="matrix(1 0 0 -1 0 -396.02)">
		<stop  offset="0" style="stop-color:#4BA3C3"/>
		<stop  offset="1" style="stop-color:#175776"/>
	</linearGradient>
	<path class="st4" d="M52.6,64.2c-1.6,0-3,1.2-3.2,2.7H27.7c-0.3-1.5-1.6-2.7-3.2-2.7c-1.8,0-3.3,1.5-3.3,3.3s1.5,3.3,3.3,3.3
		c1.6,0,3-1.2,3.2-2.7h21.7c0.3,1.5,1.6,2.7,3.2,2.7c1.8,0,3.3-1.5,3.3-3.3S54.5,64.2,52.6,64.2z"/>
	
		<linearGradient id="SVGID_5_" gradientUnits="userSpaceOnUse" x1="26.7392" y1="-472.52" x2="47.5817" y2="-472.52" gradientTransform="matrix(1 0 0 -1 0 -396.02)">
		<stop  offset="0" style="stop-color:#4BA3C3"/>
		<stop  offset="1" style="stop-color:#175776"/>
	</linearGradient>
	<path class="st5" d="M44.3,73.2c-1.6,0-3,1.2-3.2,2.7h-7.8c-0.3-1.5-1.6-2.7-3.2-2.7c-1.8,0-3.3,1.5-3.3,3.3s1.5,3.3,3.3,3.3
		c1.6,0,3-1.2,3.2-2.7h7.8c0.3,1.5,1.6,2.7,3.2,2.7c1.8,0,3.3-1.5,3.3-3.3S46.1,73.2,44.3,73.2z"/>
	
		<linearGradient id="SVGID_6_" gradientUnits="userSpaceOnUse" x1="18.4" y1="-427.62" x2="79.0113" y2="-427.62" gradientTransform="matrix(1 0 0 -1 0 -396.02)">
		<stop  offset="0" style="stop-color:#4BA3C3"/>
		<stop  offset="1" style="stop-color:#175776"/>
	</linearGradient>
	<path class="st6" d="M21.6,34.9c1.6,0,3-1.2,3.2-2.7h26.8c0.3,1.5,1.6,2.7,3.2,2.7s3-1.2,3.2-2.7h14.4c0.3,1.5,1.6,2.7,3.2,2.7
		c1.8,0,3.3-1.5,3.3-3.3s-1.5-3.3-3.3-3.3c-1.6,0-3,1.2-3.2,2.7H58.1c-0.3-1.5-1.6-2.7-3.2-2.7s-3,1.2-3.2,2.7H24.9
		c-0.3-1.5-1.6-2.7-3.2-2.7c-1.8,0-3.3,1.5-3.3,3.3S19.8,34.9,21.6,34.9z"/>
	
		<linearGradient id="SVGID_7_" gradientUnits="userSpaceOnUse" x1="11.8" y1="-436.02" x2="91.4" y2="-436.02" gradientTransform="matrix(1 0 0 -1 0 -396.02)">
		<stop  offset="0" style="stop-color:#4BA3C3"/>
		<stop  offset="1" style="stop-color:#175776"/>
	</linearGradient>
	<path class="st7" d="M15.1,43.8c1.6,0,3-1.2,3.2-2.7h16.2c0.5,2,2.3,3.5,4.4,3.5s3.9-1.5,4.4-3.5h11c0.5,2.3,2.5,4,5,4
		c2.4,0,4.5-1.7,5-4H68c0.3,1.5,1.6,2.7,3.2,2.7s3-1.2,3.2-2.7h10.5c0.3,1.5,1.6,2.7,3.2,2.7c1.8,0,3.3-1.5,3.3-3.3
		s-1.5-3.3-3.3-3.3c-1.6,0-3,1.2-3.2,2.7H74.4c-0.3-1.5-1.6-2.7-3.2-2.7s-3,1.2-3.2,2.7h-3.6c0-2.8-2.3-5-5.1-5s-5,2.2-5.1,5H43.5
		c0-2.5-2-4.5-4.5-4.5s-4.5,2-4.5,4.5H18.3c-0.3-1.5-1.6-2.7-3.2-2.7c-1.8,0-3.3,1.5-3.3,3.3S13.3,43.8,15.1,43.8z"/>
	
		<linearGradient id="SVGID_8_" gradientUnits="userSpaceOnUse" x1="34.2638" y1="-482.5164" x2="40.8317" y2="-482.5164" gradientTransform="matrix(1 0 0 -1 6.421898e-03 -396.0164)">
		<stop  offset="0" style="stop-color:#4BA3C3"/>
		<stop  offset="1" style="stop-color:#175776"/>
	</linearGradient>
	<circle class="st8" cx="37.5" cy="86.5" r="3.3"/>
</g>
</svg>
