<svg id="Layer_1" data-name="Layer 1" xmlns="http://www.w3.org/2000/svg" viewBox="0 0 323.15 327.19"><defs><style>.cls-1{fill:#fff;stroke:#8e8e8e;stroke-miterlimit:10;}.cls-2{fill:#9e9d9e;}</style></defs><rect class="cls-1" x="177.23" y="271.2" width="203.19" height="264.89" rx="30.85" transform="translate(-291.57 -78.05) rotate(-27.13)"/><rect class="cls-1" x="209.14" y="280.16" width="203.19" height="264.89" rx="30.85" transform="translate(-217.17 -176) rotate(-12)"/><rect class="cls-1" x="244.69" y="302.86" width="203.19" height="264.89" rx="30.85" transform="translate(-76.89 -291.99) rotate(7.68)"/><path class="cls-2" d="M334.57,398.42a3.54,3.54,0,0,0,3.68-2.12L360.19,399a3.56,3.56,0,1,0,.15-1.19l-21.79-2.66a3.56,3.56,0,1,0-4,3.29Z" transform="translate(-138.18 -249.61)"/><path class="cls-2" d="M393.31,425.55a3.55,3.55,0,0,0-3.83,2.5l-13.05-1.59a3.55,3.55,0,0,0-6.95-.85L350,423.23a5.48,5.48,0,0,0-10.82-1.32l-7.29-.9a3.55,3.55,0,0,0-7-.85l-15.63-1.91a3.56,3.56,0,1,0-4,4,3.51,3.51,0,0,0,3.92-2.79l15.48,1.89a3.55,3.55,0,0,0,6.95.85l7.25.88a5.51,5.51,0,0,0,4.81,5.53,5.44,5.44,0,0,0,6-4.2l19.45,2.38a3.55,3.55,0,0,0,6.95.84l13.05,1.6a3.56,3.56,0,0,0,7.08.26,3.36,3.36,0,0,0-3-3.94Z" transform="translate(-138.18 -249.61)"/><path class="cls-2" d="M383.21,434.84a3.56,3.56,0,0,0-3.83,2.5l-15.54-1.89a4.85,4.85,0,0,0-9.63-1.18L335,431.91a3.55,3.55,0,0,0-7-.86l-16.23-2a3.53,3.53,0,1,0-.14,1.19l16.37,2a3.52,3.52,0,0,0,3.08,2.85,3.58,3.58,0,0,0,3.67-2l19.61,2.39a4.82,4.82,0,0,0,9.33,1.14l15.68,1.92a3.55,3.55,0,0,0,7.07.26,3.57,3.57,0,0,0-3.14-4Z" transform="translate(-138.18 -249.61)"/><path class="cls-2" d="M346.16,438.77a3.55,3.55,0,0,0-3.83,2.51l-23.43-2.87a3.57,3.57,0,1,0-.15,1.19l23.43,2.87a3.55,3.55,0,1,0,4-3.7Z" transform="translate(-138.18 -249.61)"/><path class="cls-2" d="M335.94,447.4a3.55,3.55,0,0,0-3.84,2.5l-8.43-1a3.56,3.56,0,1,0-.15,1.19l8.44,1a3.55,3.55,0,0,0,7.07.26A3.47,3.47,0,0,0,335.94,447.4Z" transform="translate(-138.18 -249.61)"/><path class="cls-2" d="M316.62,403.08a3.55,3.55,0,0,0,3.83-2.51l28.94,3.54a3.55,3.55,0,0,0,6.95.85l15.43,1.89a3.57,3.57,0,1,0,.15-1.19l-15.44-1.89a3.55,3.55,0,0,0-7-.85l-28.93-3.54a3.55,3.55,0,1,0-4,3.7Z" transform="translate(-138.18 -249.61)"/><path class="cls-2" d="M308.35,411.79a3.56,3.56,0,0,0,3.84-2.51l17.47,2.14a4.93,4.93,0,0,0,9.52,1.16L351,414a5.53,5.53,0,0,0,10.72,1.31l4,.48a3.55,3.55,0,0,0,6.95.85L384,418.06a3.57,3.57,0,1,0,.15-1.19l-11.32-1.39a3.55,3.55,0,0,0-6.95-.85l-3.82-.46a5.5,5.5,0,0,0-10.92-1.34l-11.61-1.42a5,5,0,0,0-9.83-1.2l-17.37-2.12a3.55,3.55,0,0,0-7.07-.26,3.61,3.61,0,0,0,3.14,4Z" transform="translate(-138.18 -249.61)"/><circle class="cls-2" cx="188.76" cy="211.2" r="3.55"/></svg>