<svg id="Layer_2" data-name="Layer 2" xmlns="http://www.w3.org/2000/svg" viewBox="0 0 87.2 67.8"><defs><style>.cls-1{fill:#fff;}</style></defs><g id="Layer_1-2" data-name="Layer 1-2"><path class="cls-1" d="M37.5,28.6a3.24,3.24,0,0,0,3.1-2.3H60.9a3.28,3.28,0,1,0,3.2-3.9,3.23,3.23,0,0,0-3.2,2.7H40.8A3.29,3.29,0,0,0,37.5,22a3.3,3.3,0,1,0,0,6.6Z" transform="translate(-10.2 -22)"/><path class="cls-1" d="M94.2,46.8A3.23,3.23,0,0,0,91,49.5H78.9a3.32,3.32,0,0,0-3.2-2.7,3.23,3.23,0,0,0-3.2,2.7H54.4a5.08,5.08,0,0,0-5-4.5,5,5,0,0,0-5,4.5H37.7a3.32,3.32,0,0,0-3.2-2.7,3.23,3.23,0,0,0-3.2,2.7H16.7a3.24,3.24,0,0,0-3.2-2.4,3.3,3.3,0,1,0,0,6.6,3.28,3.28,0,0,0,3.3-3H31.2a3.32,3.32,0,0,0,3.2,2.7,3.23,3.23,0,0,0,3.2-2.7h6.7a5.08,5.08,0,0,0,5,4.5,5,5,0,0,0,5-4.5H72.4a3.32,3.32,0,0,0,3.2,2.7,3.23,3.23,0,0,0,3.2-2.7H90.9a3.28,3.28,0,0,0,6.5-.6,3.18,3.18,0,0,0-3.2-3.3Z" transform="translate(-10.2 -22)"/><path class="cls-1" d="M86,56.5a3.23,3.23,0,0,0-3.2,2.7H68.4a4.5,4.5,0,0,0-9,0H41.6a3.3,3.3,0,0,0-6.6,0H20a3.28,3.28,0,1,0-3.2,3.9A3.23,3.23,0,0,0,20,60.4H35.2a3.34,3.34,0,0,0,3.1,2.3,3.24,3.24,0,0,0,3.1-2.3H59.6a4.42,4.42,0,0,0,8.6,0H82.7a3.28,3.28,0,0,0,6.5-.6A3.12,3.12,0,0,0,86,56.5Z" transform="translate(-10.2 -22)"/><path class="cls-1" d="M52.6,64.2a3.23,3.23,0,0,0-3.2,2.7H27.7a3.28,3.28,0,1,0-3.2,3.9,3.23,3.23,0,0,0,3.2-2.7H49.4a3.28,3.28,0,0,0,6.5-.6A3.27,3.27,0,0,0,52.6,64.2Z" transform="translate(-10.2 -22)"/><path class="cls-1" d="M44.3,73.2a3.23,3.23,0,0,0-3.2,2.7H33.3a3.28,3.28,0,1,0-3.2,3.9,3.23,3.23,0,0,0,3.2-2.7h7.8a3.28,3.28,0,1,0,3.2-3.9Z" transform="translate(-10.2 -22)"/><path class="cls-1" d="M21.6,34.9a3.23,3.23,0,0,0,3.2-2.7H51.6a3.32,3.32,0,0,0,3.2,2.7A3.23,3.23,0,0,0,58,32.2H72.4a3.28,3.28,0,1,0,3.2-3.9A3.23,3.23,0,0,0,72.4,31H58.1a3.32,3.32,0,0,0-3.2-2.7A3.23,3.23,0,0,0,51.7,31H24.9a3.28,3.28,0,0,0-6.5.6A3.24,3.24,0,0,0,21.6,34.9Z" transform="translate(-10.2 -22)"/><path class="cls-1" d="M15.1,43.8a3.23,3.23,0,0,0,3.2-2.7H34.5a4.52,4.52,0,0,0,8.8,0h11a5.06,5.06,0,0,0,5,4,5.14,5.14,0,0,0,5-4H68a3.32,3.32,0,0,0,3.2,2.7,3.23,3.23,0,0,0,3.2-2.7H84.9a3.28,3.28,0,1,0,3.2-3.9,3.23,3.23,0,0,0-3.2,2.7H74.4a3.32,3.32,0,0,0-3.2-2.7A3.23,3.23,0,0,0,68,39.9H64.4a5,5,0,0,0-5.1-5,5.1,5.1,0,0,0-5.1,5H43.5a4.5,4.5,0,0,0-9,0H18.3a3.28,3.28,0,1,0-3.2,3.9Z" transform="translate(-10.2 -22)"/><circle class="cls-1" cx="27.3" cy="64.5" r="3.3"/></g></svg>