<?xml version="1.0" encoding="utf-8"?>
<!-- Generator: Adobe Illustrator 27.5.0, SVG Export Plug-In . SVG Version: 6.00 Build 0)  -->
<svg version="1.1" id="Layer_2_00000180358205065579734120000009738941298244738728_"
	 xmlns="http://www.w3.org/2000/svg" xmlns:xlink="http://www.w3.org/1999/xlink" x="0px" y="0px" viewBox="0 0 382.4 173"
	 style="enable-background:new 0 0 382.4 173;" xml:space="preserve">
<style type="text/css">
	.st0{fill:url(#SVGID_1_);}
	.st1{fill:url(#SVGID_00000078007729025591838300000004111669147313995433_);}
	.st2{fill:url(#SVGID_00000014611061861517398900000003131629592158873731_);}
	.st3{fill:url(#SVGID_00000133499680114208212040000007669679977550379409_);}
	.st4{fill:url(#SVGID_00000092439506206409161500000004311580306678398899_);}
	.st5{fill:url(#SVGID_00000093886168311505108770000007403259270226563507_);}
	.st6{fill:url(#SVGID_00000144318379005069817730000010499543441501033605_);}
	.st7{fill:url(#SVGID_00000153707447718924848920000003122278811744361873_);}
	.st8{enable-background:new    ;}
	.st9{fill:#175776;}
</style>
<linearGradient id="SVGID_1_" gradientUnits="userSpaceOnUse" x1="78.7369" y1="154.7063" x2="151.0285" y2="154.7063" gradientTransform="matrix(1 0 0 -1 0 174)">
	<stop  offset="0" style="stop-color:#4BA3C3"/>
	<stop  offset="1" style="stop-color:#175776"/>
</linearGradient>
<path class="st0" d="M85.9,26c3.2,0,5.9-2.1,6.8-5.1h44.2c0.6,3.4,3.5,5.9,7,5.9c3.9,0,7.1-3.2,7.1-7.1s-3.2-7.1-7.1-7.1
	c-3.5,0-6.5,2.6-7,5.9H93c-0.2-3.8-3.3-6.8-7.1-6.8c-3.8,0-7.1,3.2-7.1,7.1S81.9,26,85.9,26z"/>
<linearGradient id="SVGID_00000031190153374659029910000014046099302169896371_" gradientUnits="userSpaceOnUse" x1="26.62" y1="101.2813" x2="216.2631" y2="101.2813" gradientTransform="matrix(1 0 0 -1 0 174)">
	<stop  offset="0" style="stop-color:#4BA3C3"/>
	<stop  offset="1" style="stop-color:#175776"/>
</linearGradient>
<path style="fill:url(#SVGID_00000031190153374659029910000014046099302169896371_);" d="M209.1,65.6c-3.5,0-6.5,2.6-7,5.9h-26.3
	c-0.6-3.4-3.5-5.9-7-5.9c-3.5,0-6.5,2.6-7,5.9h-39.2c-0.6-5.5-5.3-9.8-10.9-9.8c-5.7,0-10.4,4.3-10.9,9.8H86.1
	c-0.6-3.4-3.5-5.9-7-5.9c-3.5,0-6.5,2.6-7,5.9H40.6c-0.8-3.1-3.6-5.3-6.9-5.3c-3.9,0-7.1,3.2-7.1,7.1c0,3.9,3.2,7.1,7.1,7.1
	s6.8-2.9,7.1-6.5h31.2c0.6,3.4,3.5,5.9,7,5.9c3.5,0,6.5-2.6,7-5.9h14.6c0.6,5.5,5.3,9.8,10.9,9.8c5.7,0,10.4-4.3,10.9-9.8h39.2
	c0.6,3.4,3.5,5.9,7,5.9c3.5,0,6.5-2.6,7-5.9h26.3c0.6,3.4,3.5,5.9,7,5.9c3.9,0,7.1-3.2,7.1-7.1C216.3,68.8,213.1,65.6,209.1,65.6
	L209.1,65.6z"/>
<linearGradient id="SVGID_00000155839592252022027210000006916420844079360898_" gradientUnits="userSpaceOnUse" x1="33.7421" y1="81.3348" x2="198.4532" y2="81.3348" gradientTransform="matrix(1 0 0 -1 0 174)">
	<stop  offset="0" style="stop-color:#4BA3C3"/>
	<stop  offset="1" style="stop-color:#175776"/>
</linearGradient>
<path style="fill:url(#SVGID_00000155839592252022027210000006916420844079360898_);" d="M191.3,86.5c-3.5,0-6.5,2.6-7,5.9H153
	c-0.1-5.3-4.4-9.5-9.7-9.5c-5.3,0-9.6,4.2-9.7,9.5H94.8c-0.1-3.8-3.3-6.9-7.1-6.9s-7,3.1-7.1,6.9H47.9c-0.6-3.4-3.5-5.9-7-5.9
	c-3.9,0-7.1,3.2-7.1,7.1s3.2,7.1,7.1,7.1c3.5,0,6.5-2.6,7-5.9h33c0.9,2.9,3.6,4.9,6.8,4.9s5.9-2.1,6.8-4.9h39.5
	c1,4.3,4.8,7.5,9.4,7.5c4.6,0,8.4-3.2,9.4-7.5h31.6c0.6,3.4,3.5,5.9,7,5.9c3.9,0,7.1-3.2,7.1-7.1C198.5,89.7,195.3,86.5,191.3,86.5
	L191.3,86.5z"/>
<linearGradient id="SVGID_00000140706329270833255380000013312429744995762317_" gradientUnits="userSpaceOnUse" x1="50.3882" y1="63.5668" x2="125.873" y2="63.5668" gradientTransform="matrix(1 0 0 -1 0 174)">
	<stop  offset="0" style="stop-color:#4BA3C3"/>
	<stop  offset="1" style="stop-color:#175776"/>
</linearGradient>
<path style="fill:url(#SVGID_00000140706329270833255380000013312429744995762317_);" d="M118.7,103.3c-3.5,0-6.5,2.6-7,5.9H64.5
	c-0.6-3.4-3.5-5.9-7-5.9c-3.9,0-7.1,3.2-7.1,7.1c0,3.9,3.2,7.1,7.1,7.1c3.5,0,6.5-2.6,7-5.9h47.2c0.6,3.4,3.5,5.9,7,5.9
	c3.9,0,7.1-3.2,7.1-7.1C125.9,106.5,122.7,103.3,118.7,103.3z"/>
<linearGradient id="SVGID_00000151508828336020877030000003709705005111588799_" gradientUnits="userSpaceOnUse" x1="62.3608" y1="44.016" x2="107.6628" y2="44.016" gradientTransform="matrix(1 0 0 -1 0 174)">
	<stop  offset="0" style="stop-color:#4BA3C3"/>
	<stop  offset="1" style="stop-color:#175776"/>
</linearGradient>
<path style="fill:url(#SVGID_00000151508828336020877030000003709705005111588799_);" d="M100.5,122.9c-3.5,0-6.5,2.6-7,5.9h-17
	c-0.6-3.4-3.5-5.9-7-5.9c-3.9,0-7.1,3.2-7.1,7.1s3.2,7.1,7.1,7.1c3.5,0,6.5-2.6,7-5.9h17c0.6,3.4,3.5,5.9,7,5.9
	c3.9,0,7.1-3.2,7.1-7.1C107.7,126,104.5,122.9,100.5,122.9z"/>
<linearGradient id="SVGID_00000005248701422609433370000004326618597332069008_" gradientUnits="userSpaceOnUse" x1="44.2344" y1="141.4816" x2="175.9511" y2="141.4816" gradientTransform="matrix(1 0 0 -1 0 174)">
	<stop  offset="0" style="stop-color:#4BA3C3"/>
	<stop  offset="1" style="stop-color:#175776"/>
</linearGradient>
<path style="fill:url(#SVGID_00000005248701422609433370000004326618597332069008_);" d="M51.4,39.6c3.5,0,6.5-2.6,7-5.9h58.3
	c0.6,3.4,3.5,5.9,7,5.9c3.5,0,6.5-2.6,7-5.9h31.1c0.6,3.4,3.5,5.9,7,5.9c3.9,0,7.1-3.2,7.1-7.1s-3.2-7.1-7.1-7.1
	c-3.5,0-6.5,2.6-7,5.9h-31.1c-0.6-3.4-3.5-5.9-7-5.9c-3.5,0-6.5,2.6-7,5.9H58.4c-0.6-3.4-3.5-5.9-7-5.9c-3.9,0-7.1,3.2-7.1,7.1
	S47.4,39.6,51.4,39.6z"/>
<linearGradient id="SVGID_00000156566414665788128630000018141447876248791428_" gradientUnits="userSpaceOnUse" x1="29.9622" y1="123.3179" x2="202.8475" y2="123.3179" gradientTransform="matrix(1 0 0 -1 0 174)">
	<stop  offset="0" style="stop-color:#4BA3C3"/>
	<stop  offset="1" style="stop-color:#175776"/>
</linearGradient>
<path style="fill:url(#SVGID_00000156566414665788128630000018141447876248791428_);" d="M37.1,58.9c3.5,0,6.5-2.6,7-5.9h35.2
	c1,4.3,4.9,7.6,9.6,7.6c4.6,0,8.5-3.2,9.6-7.6h23.8c1.1,5,5.5,8.7,10.8,8.7c5.3,0,9.7-3.7,10.8-8.7h8c0.6,3.4,3.5,5.9,7,5.9
	s6.5-2.6,7-5.9h22.8c0.6,3.4,3.5,5.9,7,5.9c3.9,0,7.1-3.2,7.1-7.1s-3.2-7.1-7.1-7.1c-3.5,0-6.5,2.6-7,5.9h-22.8
	c-0.6-3.4-3.5-5.9-7-5.9s-6.5,2.6-7,5.9h-7.7c-0.1-6-5-10.9-11-10.9c-6.1,0-11,4.9-11,10.9H98.8c-0.1-5.4-4.5-9.8-9.9-9.8
	c-5.4,0-9.8,4.4-9.9,9.8h-35c-0.6-3.4-3.5-5.9-7-5.9c-3.9,0-7.1,3.2-7.1,7.1S33.2,58.9,37.1,58.9L37.1,58.9z"/>
<linearGradient id="SVGID_00000095303651195808187200000016807655149157719434_" gradientUnits="userSpaceOnUse" x1="78.7319" y1="22.2673" x2="92.9979" y2="22.2673" gradientTransform="matrix(1 0 0 -1 -4.282634e-03 174.0065)">
	<stop  offset="0" style="stop-color:#4BA3C3"/>
	<stop  offset="1" style="stop-color:#175776"/>
</linearGradient>
<circle style="fill:url(#SVGID_00000095303651195808187200000016807655149157719434_);" cx="85.9" cy="151.7" r="7.1"/>
<g class="st8">
	<path class="st9" d="M144.7,143.1c2.5,2.7,5.8,4.1,9.8,4.1c1.8,0,3.2-0.4,4.4-1.1c1.1-0.7,1.7-1.7,1.7-3c0-1.1-0.3-1.9-1-2.4
		c-0.7-0.5-1.6-0.7-2.8-0.8l-5.5-0.5c-2.6-0.2-4.7-1.1-6.3-2.7c-1.7-1.5-2.5-3.6-2.6-6.3c0-3.3,1.2-5.7,3.4-7.3
		c2.1-1.6,4.8-2.5,8.1-2.5c1.4,0,2.7,0.1,3.8,0.3c1.1,0.2,2.2,0.5,3.2,0.9c1.9,0.8,3.6,1.9,5.1,3.2l-3.8,4.6
		c-1.2-0.9-2.4-1.6-3.8-2.2c-1.3-0.5-2.8-0.8-4.5-0.8c-1.9,0-3.3,0.4-4.1,1.1c-0.8,0.7-1.2,1.6-1.2,2.8c0,0.7,0.3,1.3,0.9,1.9
		c0.6,0.6,1.6,1,3.1,1.1l5.1,0.4c3.2,0.2,5.5,1.2,7,3c1.3,1.7,2,3.9,2,6.5c0,3.1-1.3,5.5-3.6,7.1c-2.4,1.7-5.4,2.6-9.1,2.6
		c-5,0-9.5-1.9-13.6-5.7L144.7,143.1z"/>
	<path class="st9" d="M169.5,121h6.5l7.3,22.3h0.1l7.3-22.3h6.6L184,159.3c-0.8,2.4-2,4-3.5,5c-1.5,0.9-3.2,1.3-5.2,1.3h-2v-6h1.8
		c0.8,0,1.6-0.2,2.3-0.7c0.7-0.5,1.2-1.2,1.5-2.1l1.7-5.3L169.5,121z"/>
	<path class="st9" d="M201.7,121h6.2v3.4h0.1c2-2.5,4.7-3.8,8-3.8c2.5,0,4.9,0.9,7,2.8c2.1,1.9,3.2,4.6,3.3,8.3v21.1h-6.2v-18.9
		c0-2.2-0.6-3.9-1.7-5.1c-1.1-1.2-2.6-1.8-4.4-1.8c-1.8,0-3.2,0.6-4.4,1.8c-1.2,1.2-1.8,2.9-1.8,5.1v18.9h-6.2V121z"/>
	<path class="st9" d="M251.6,150h-0.1c-0.6,1.1-1.5,1.9-2.7,2.4c-1.2,0.5-2.8,0.8-4.9,0.8c-3.4,0-6.1-1-7.9-2.8
		c-2-1.8-2.9-4.1-2.9-6.9c0-2.7,0.8-4.9,2.5-6.6c1.7-1.8,4.2-2.7,7.5-2.8h8.6v-3.4c0-2.8-2.1-4.2-6.3-4.1c-1.5,0-2.8,0.2-3.6,0.5
		c-0.9,0.4-1.7,1-2.2,2l-4.9-3.8c2.4-3.2,5.8-4.7,10.4-4.6c3.9,0,7,0.7,9.3,2.3c2.3,1.6,3.5,4.3,3.5,8.2v21.7h-6.2V150z
		 M251.6,139.3h-7.4c-3.6,0.1-5.4,1.4-5.3,3.8c0,1.1,0.5,2,1.4,2.8c0.9,0.8,2.4,1.3,4.4,1.3c2.6,0,4.4-0.3,5.5-0.9
		c1-0.7,1.5-2.2,1.5-4.6V139.3z"/>
	<path class="st9" d="M266.8,121h6.2v3.3c2.1-2.4,4.7-3.6,7.9-3.7c3.8,0.1,6.5,1.5,8.3,4.2c0.8,1,1.4,2.3,1.7,3.9
		c0.3,1.6,0.4,4.3,0.4,8.2c0,3.8-0.1,6.5-0.4,8.1c-0.3,1.6-0.9,3-1.7,4c-0.8,1.2-2,2.2-3.3,2.9c-1.4,0.8-3,1.2-4.9,1.2
		c-1.6,0-3-0.4-4.2-1.1c-1.3-0.6-2.6-1.5-3.7-2.7v16.2h-6.2V121z M279,146.8c1.5,0,2.6-0.3,3.5-0.9c0.9-0.6,1.5-1.4,1.8-2.3
		c0.4-1,0.7-2,0.8-3.2c0-1.1,0.1-2.3,0.1-3.5c0-1.3,0-2.5-0.1-3.7c-0.1-1.2-0.4-2.3-0.8-3.2c-0.4-1-1-1.7-1.8-2.3
		c-0.9-0.5-2-0.8-3.5-0.8c-1.4,0-2.5,0.3-3.3,0.9c-0.9,0.6-1.5,1.4-1.9,2.3c-0.4,1-0.6,2-0.7,3.1c-0.1,1.2-0.2,2.4-0.2,3.6
		c0,1.1,0.1,2.3,0.2,3.4c0.1,1.2,0.4,2.3,0.7,3.2c0.4,1,1,1.7,1.9,2.3C276.5,146.5,277.6,146.8,279,146.8z"/>
	<path class="st9" d="M300.2,143.1c2.5,2.7,5.8,4.1,9.8,4.1c1.8,0,3.2-0.4,4.4-1.1c1.1-0.7,1.7-1.7,1.7-3c0-1.1-0.3-1.9-1-2.4
		c-0.7-0.5-1.6-0.7-2.8-0.8l-5.5-0.5c-2.6-0.2-4.7-1.1-6.3-2.7c-1.7-1.5-2.5-3.6-2.6-6.3c0-3.3,1.2-5.7,3.4-7.3
		c2.1-1.6,4.8-2.5,8.1-2.5c1.4,0,2.7,0.1,3.8,0.3c1.1,0.2,2.2,0.5,3.2,0.9c1.9,0.8,3.6,1.9,5.1,3.2l-3.8,4.6
		c-1.2-0.9-2.4-1.6-3.8-2.2c-1.3-0.5-2.8-0.8-4.5-0.8c-1.9,0-3.3,0.4-4.1,1.1c-0.8,0.7-1.2,1.6-1.2,2.8c0,0.7,0.3,1.3,0.9,1.9
		c0.6,0.6,1.6,1,3.1,1.1l5.1,0.4c3.2,0.2,5.5,1.2,7,3c1.3,1.7,2,3.9,2,6.5c0,3.1-1.3,5.5-3.6,7.1c-2.4,1.7-5.4,2.6-9.1,2.6
		c-5,0-9.5-1.9-13.6-5.7L300.2,143.1z"/>
	<path class="st9" d="M327.9,136.8c0-3.4,0.3-5.9,0.8-7.7c0.6-1.8,1.4-3.2,2.6-4.4c0.8-1.1,2-2,3.6-2.8c1.5-0.8,3.4-1.2,5.8-1.2
		c2.4,0,4.4,0.5,5.9,1.3c1.5,0.8,2.6,1.8,3.4,2.8c1.2,1.2,2.1,2.7,2.6,4.4c0.5,1.8,0.7,4.4,0.7,7.7c0,3.3-0.2,5.9-0.7,7.7
		c-0.5,1.8-1.4,3.3-2.6,4.6c-0.4,0.5-0.9,0.9-1.5,1.4c-0.5,0.5-1.2,0.9-2,1.3c-1.5,0.9-3.5,1.3-5.9,1.4c-2.4,0-4.3-0.5-5.8-1.4
		c-1.5-0.8-2.7-1.7-3.6-2.7c-1.1-1.3-2-2.8-2.5-4.6C328.1,142.7,327.9,140.2,327.9,136.8z M347.1,136.9c0-2.3-0.1-3.9-0.3-5
		c-0.2-1-0.6-1.9-1.2-2.6c-0.5-0.7-1.1-1.3-2-1.7c-0.9-0.4-1.8-0.6-3-0.6c-1,0-2,0.2-2.9,0.6c-0.9,0.4-1.5,1-2.1,1.7
		c-0.5,0.8-0.9,1.6-1.2,2.6c-0.2,1-0.4,2.7-0.4,4.9c0,2.2,0.1,3.8,0.4,4.9c0.2,1,0.6,2,1.2,2.8c0.5,0.6,1.2,1.2,2.1,1.6
		c0.9,0.5,1.9,0.7,2.9,0.7c1.1,0,2.1-0.2,3-0.7c0.9-0.5,1.6-1,2-1.6c0.6-0.8,1-1.7,1.2-2.8C347,140.7,347.1,139.1,347.1,136.9z"/>
</g>
</svg>
