<svg id="Layer_1" data-name="Layer 1" xmlns="http://www.w3.org/2000/svg" viewBox="0 0 265.89 204.19"><defs><style>.cls-1{fill:#fff;stroke:#8e8e8e;stroke-miterlimit:10;}.cls-2{fill:#9e9d9e;}.cls-3{fill:#a31d21;}.cls-4{fill:#278541;}</style></defs><rect class="cls-1" x="244.69" y="302.36" width="203.19" height="264.89" rx="30.85" transform="translate(567.76 -244.19) rotate(90)"/><path class="cls-2" d="M250,357.6a2.33,2.33,0,0,0,2.22-1.68l14.45-.08a2.3,2.3,0,0,0,2.3,1.91,2.32,2.32,0,1,0-2.31-2.7l-14.35.08A2.32,2.32,0,1,0,250,357.6Z" transform="translate(-213.34 -332.72)"/><path class="cls-2" d="M290.37,370.32a2.32,2.32,0,0,0-2.28,1.94l-8.6.05a2.32,2.32,0,0,0-4.58,0l-12.81.07a3.61,3.61,0,0,0-3.59-3.19,3.56,3.56,0,0,0-3.54,3.23l-4.81,0a2.32,2.32,0,0,0-4.58,0l-10.3.06a2.33,2.33,0,0,0-4.57.62,2.34,2.34,0,0,0,2.33,2.31,2.3,2.3,0,0,0,2.31-2.14l10.21-.06a2.32,2.32,0,0,0,4.57,0l4.78,0a3.58,3.58,0,0,0,7.13,0l12.81-.07a2.32,2.32,0,0,0,4.58,0l8.6,0a2.32,2.32,0,0,0,4.61-.41,2.19,2.19,0,0,0-2.27-2.31Z" transform="translate(-213.34 -332.72)"/><path class="cls-2" d="M284.59,377.18a2.33,2.33,0,0,0-2.28,1.95l-10.23.06a3.18,3.18,0,0,0-6.35,0l-12.68.08a2.33,2.33,0,0,0-4.65,0l-10.69.06a2.34,2.34,0,1,0,0,.79l10.8-.06a2.31,2.31,0,0,0,2.23,1.59,2.35,2.35,0,0,0,2.21-1.62l12.92-.07a3.15,3.15,0,0,0,6.15,0l10.33-.06a2.32,2.32,0,0,0,4.61-.42,2.35,2.35,0,0,0-2.37-2.31Z" transform="translate(-213.34 -332.72)"/><path class="cls-2" d="M260.88,382.81a2.34,2.34,0,0,0-2.28,1.95l-15.43.09a2.33,2.33,0,1,0,0,.78l15.44-.09a2.32,2.32,0,1,0,2.27-2.73Z" transform="translate(-213.34 -332.72)"/><path class="cls-2" d="M255,389.26a2.31,2.31,0,0,0-2.28,1.94l-5.56,0a2.3,2.3,0,0,0-2.3-1.91,2.32,2.32,0,1,0,2.31,2.7l5.55,0a2.32,2.32,0,0,0,4.61-.41A2.26,2.26,0,0,0,255,389.26Z" transform="translate(-213.34 -332.72)"/><path class="cls-2" d="M238.76,362.11a2.3,2.3,0,0,0,2.27-1.94l19.07-.11a2.32,2.32,0,0,0,4.57,0l10.17,0a2.34,2.34,0,1,0,0-.79l-10.17.06a2.32,2.32,0,0,0-4.58,0l-19.06.1a2.32,2.32,0,1,0-2.27,2.73Z" transform="translate(-213.34 -332.72)"/><path class="cls-2" d="M234.12,368.45a2.31,2.31,0,0,0,2.27-1.94l11.51-.07a3.22,3.22,0,0,0,6.28,0l7.78,0a3.62,3.62,0,0,0,7.07,0l2.61,0a2.32,2.32,0,0,0,4.58,0l7.46,0a2.31,2.31,0,1,0,0-.79l-7.45,0a2.32,2.32,0,0,0-4.58,0h-2.52A3.62,3.62,0,0,0,265.5,362a3.58,3.58,0,0,0-3.57,3.59l-7.65,0a3.24,3.24,0,0,0-6.48,0l-11.44.06a2.32,2.32,0,0,0-4.61.42,2.36,2.36,0,0,0,2.37,2.31Z" transform="translate(-213.34 -332.72)"/><circle class="cls-2" cx="36.91" cy="65.99" r="2.32"/><path class="cls-2" d="M230.2,463l12.91-28.18H252l-12.56,27.83h18.81v7.61H230.2Zm16.91-10.95H255v24.66h-7.9Z" transform="translate(-213.34 -332.72)"/><path class="cls-2" d="M263.33,447.08h7.9V455h-7.9Zm0,21.73h7.9v7.89h-7.9Z" transform="translate(-213.34 -332.72)"/><path class="cls-2" d="M283.92,475.65a11.07,11.07,0,0,1-4.32-4.32,15.36,15.36,0,0,1-1.89-6.73v0h7.89v0a6.07,6.07,0,0,0,1.42,3.59,4,4,0,0,0,3.08,1.28,4,4,0,0,0,3.21-1.36,5.78,5.78,0,0,0,1.14-3.83v-3.51a6.14,6.14,0,0,0-1-3.82,3.39,3.39,0,0,0-2.86-1.34,4.79,4.79,0,0,0-2.9.87A4.39,4.39,0,0,0,286,458.9h-7.38V434.81h22.5v7.61H286.52v7.4a6.27,6.27,0,0,1,2.44-1.37,10.56,10.56,0,0,1,8.64,1,9.35,9.35,0,0,1,3.53,4.38,17.81,17.81,0,0,1,1.21,6.94v3.51a15.28,15.28,0,0,1-1.45,7,10.06,10.06,0,0,1-4.22,4.39,13.78,13.78,0,0,1-6.69,1.51A12.31,12.31,0,0,1,283.92,475.65Z" transform="translate(-213.34 -332.72)"/><path class="cls-2" d="M315.69,475.69a10.9,10.9,0,0,1-4.65-4.08,11.34,11.34,0,0,1-1.64-6.12v-.69a10.87,10.87,0,0,1,1.73-5.9,11.06,11.06,0,0,1,4.61-4.18,9.9,9.9,0,0,1-4-3.46,8.46,8.46,0,0,1-1.5-4.78v-1.1a10.82,10.82,0,0,1,1.54-5.77,10.29,10.29,0,0,1,4.35-3.86,16.25,16.25,0,0,1,13.06,0,10.2,10.2,0,0,1,4.34,3.86,10.74,10.74,0,0,1,1.55,5.77v1.1a8.33,8.33,0,0,1-1.53,4.82,9.94,9.94,0,0,1-4,3.42,11.49,11.49,0,0,1,4.66,4.19A10.76,10.76,0,0,1,336,464.8v.69a11.34,11.34,0,0,1-1.64,6.12,10.9,10.9,0,0,1-4.65,4.08,17.69,17.69,0,0,1-14,0Zm9.8-6.81a4.65,4.65,0,0,0,1.9-1.83,5.37,5.37,0,0,0,.68-2.71v-.4a4.43,4.43,0,0,0-2.57-4.14,7,7,0,0,0-5.64,0,4.52,4.52,0,0,0-1.89,1.67,4.64,4.64,0,0,0-.68,2.5v.43a5.27,5.27,0,0,0,.68,2.69,4.52,4.52,0,0,0,1.9,1.8,6.06,6.06,0,0,0,2.81.64A5.94,5.94,0,0,0,325.49,468.88ZM325.06,451a4,4,0,0,0,1.58-1.67,5.25,5.25,0,0,0,.56-2.49v-.41a4.61,4.61,0,0,0-.56-2.32,3.91,3.91,0,0,0-1.58-1.54,5.42,5.42,0,0,0-4.76,0,3.89,3.89,0,0,0-1.58,1.56,4.65,4.65,0,0,0-.56,2.33v.43a5.09,5.09,0,0,0,.56,2.45A4,4,0,0,0,320.3,451a5.1,5.1,0,0,0,4.76,0Z" transform="translate(-213.34 -332.72)"/><rect class="cls-3" x="283.07" y="451.37" width="13.33" height="80.44" rx="6.67" transform="translate(567.98 -130.86) rotate(90)"/><rect class="cls-4" x="283.07" y="467.62" width="13.33" height="80.44" rx="6.67" transform="translate(584.24 -114.61) rotate(90)"/><rect class="cls-2" x="225.49" y="493.82" width="29.59" height="11.79" rx="5.61" transform="translate(526.65 -73.28) rotate(90)"/><rect class="cls-2" x="74.24" y="155.57" width="1.32" height="6.59"/><rect class="cls-2" x="77.23" y="155.57" width="1.32" height="6.59"/><polygon class="cls-2" points="79.07 175.94 73.72 172.85 73.72 179.03 79.07 175.94"/><path class="cls-2" d="M228.36,421.68h3.47v1.6h-3.47Zm1.17,6.66a2,2,0,0,1-.44-1.41v-7.31H231v6.85a.66.66,0,0,0,.11.4.36.36,0,0,0,.3.14h.46v1.8h-.94A1.73,1.73,0,0,1,229.53,428.34Z" transform="translate(-213.34 -332.72)"/><path class="cls-2" d="M233.37,418.84h1.87v1.87h-1.87Zm0,2.84h1.87v7.1h-1.87Z" transform="translate(-213.34 -332.72)"/><path class="cls-2" d="M237,421.68h1.87v7.1H237Zm4.13,3a1.34,1.34,0,0,0-.31-1,1.08,1.08,0,0,0-.86-.34,1.06,1.06,0,0,0-.81.29,1.09,1.09,0,0,0-.28.81l-.14-1.57a2.61,2.61,0,0,1,.78-1,1.92,1.92,0,0,1,1.11-.34,2.27,2.27,0,0,1,1.29.36,2.32,2.32,0,0,1,.82,1.06,4.69,4.69,0,0,1,.28,1.68v4.1h-1.88Zm4.14,0a1.38,1.38,0,0,0-.3-1,1.05,1.05,0,0,0-.84-.34,1.07,1.07,0,0,0-.83.32,1.3,1.3,0,0,0-.29.92l-.35-1.64a2.57,2.57,0,0,1,.87-1,2,2,0,0,1,1.19-.37,2.32,2.32,0,0,1,1.31.36,2.34,2.34,0,0,1,.83,1.06,4.48,4.48,0,0,1,.28,1.68v4.1h-1.87Z" transform="translate(-213.34 -332.72)"/><path class="cls-2" d="M250.27,428.51a2.56,2.56,0,0,1-1.12-1.09,3.64,3.64,0,0,1-.38-1.72v-.8a3.91,3.91,0,0,1,.37-1.79A2.55,2.55,0,0,1,250.2,422a3.47,3.47,0,0,1,1.7-.39,2.69,2.69,0,0,1,1.59.47,2.88,2.88,0,0,1,1,1.35,5.87,5.87,0,0,1,.34,2.13V426H250v-1.27h3.14l0-.16a1.69,1.69,0,0,0-.38-.95,1.11,1.11,0,0,0-.83-.34,1.35,1.35,0,0,0-1.05.41,1.62,1.62,0,0,0-.38,1.14v.9a1.5,1.5,0,0,0,.41,1.12,1.54,1.54,0,0,0,1.14.4,2.35,2.35,0,0,0,.74-.13,2.33,2.33,0,0,0,.67-.38l1.23,1.08a4.2,4.2,0,0,1-1.25.79,4,4,0,0,1-3.14-.1Z" transform="translate(-213.34 -332.72)"/><path class="cls-2" d="M260.24,421.68h2v7.1h-2Zm3.66,1.78a1.27,1.27,0,0,0-.46-.07,1.1,1.1,0,0,0-.88.36,1.57,1.57,0,0,0-.31,1l-.14-1.85a2.57,2.57,0,0,1,.76-1,1.71,1.71,0,0,1,1-.35,2.24,2.24,0,0,1,.8.14,1.79,1.79,0,0,1,.63.42l-1.1,1.52A.79.79,0,0,0,263.9,423.46Z" transform="translate(-213.34 -332.72)"/><path class="cls-2" d="M267.37,428.51a2.49,2.49,0,0,1-1.11-1.09,3.53,3.53,0,0,1-.38-1.72v-.8a4.05,4.05,0,0,1,.36-1.79,2.52,2.52,0,0,1,1.07-1.14,3.41,3.41,0,0,1,1.69-.39,2.69,2.69,0,0,1,1.59.47,2.88,2.88,0,0,1,1,1.35,5.86,5.86,0,0,1,.35,2.13V426h-4.86v-1.27h3.15l0-.16a1.63,1.63,0,0,0-.39-.95,1.09,1.09,0,0,0-.83-.34,1.36,1.36,0,0,0-1.05.41,1.61,1.61,0,0,0-.37,1.14v.9a1.49,1.49,0,0,0,.4,1.12,1.55,1.55,0,0,0,1.14.4,2.24,2.24,0,0,0,1.42-.51l1.22,1.08a4.15,4.15,0,0,1-1.24.79,3.83,3.83,0,0,1-1.4.27A3.77,3.77,0,0,1,267.37,428.51Z" transform="translate(-213.34 -332.72)"/><path class="cls-2" d="M273.59,421.68h1.87v7.1h-1.87Zm4.13,3a1.34,1.34,0,0,0-.31-1,1.08,1.08,0,0,0-.86-.34,1.06,1.06,0,0,0-.81.29,1.09,1.09,0,0,0-.28.81l-.14-1.57a2.61,2.61,0,0,1,.78-1,1.92,1.92,0,0,1,1.11-.34,2.27,2.27,0,0,1,1.29.36,2.24,2.24,0,0,1,.81,1.06,4.47,4.47,0,0,1,.29,1.68v4.1h-1.88Zm4.14,0a1.38,1.38,0,0,0-.3-1,1.05,1.05,0,0,0-.84-.34,1.07,1.07,0,0,0-.83.32,1.3,1.3,0,0,0-.29.92l-.35-1.64a2.57,2.57,0,0,1,.87-1,2,2,0,0,1,1.19-.37,2.32,2.32,0,0,1,1.31.36,2.34,2.34,0,0,1,.83,1.06,4.48,4.48,0,0,1,.28,1.68v4.1h-1.87Z" transform="translate(-213.34 -332.72)"/><path class="cls-2" d="M285.8,428.34a2.17,2.17,0,0,1-.57-1.65,2,2,0,0,1,.64-1.58,2.9,2.9,0,0,1,1.89-.53h1.78l.1,1.43h-1.87a1,1,0,0,0-.63.17.59.59,0,0,0-.22.51.56.56,0,0,0,.27.51,1.48,1.48,0,0,0,.81.17,2.62,2.62,0,0,0,1.11-.17.55.55,0,0,0,.37-.53l.14,1a.92.92,0,0,1-.35.65,2.06,2.06,0,0,1-.78.4,3.54,3.54,0,0,1-1,.13A2.36,2.36,0,0,1,285.8,428.34Zm3.68-4.06a.92.92,0,0,0-.33-.76,1.49,1.49,0,0,0-.93-.26,2.36,2.36,0,0,0-.78.13,2.06,2.06,0,0,0-.69.36l-1.17-1.14a2.82,2.82,0,0,1,1.12-.76,4.27,4.27,0,0,1,1.55-.27,3.82,3.82,0,0,1,1.59.31,2.27,2.27,0,0,1,1,.91,2.77,2.77,0,0,1,.34,1.42v4.56h-1.7Z" transform="translate(-213.34 -332.72)"/><path class="cls-2" d="M292.93,418.84h1.87v1.87h-1.87Zm0,2.84h1.87v7.1h-1.87Z" transform="translate(-213.34 -332.72)"/><path class="cls-2" d="M296.54,421.68h1.87v7.1h-1.87Zm4.1,2.8a1.11,1.11,0,0,0-.29-.81,1.18,1.18,0,0,0-.85-.28,1,1,0,0,0-.8.29,1.1,1.1,0,0,0-.29.81l-.14-1.57a2.61,2.61,0,0,1,.77-1,1.78,1.78,0,0,1,1.12-.34,2.1,2.1,0,0,1,1.74.76,3.28,3.28,0,0,1,.62,2.13v4.31h-1.88Z" transform="translate(-213.34 -332.72)"/><path class="cls-2" d="M304.26,418.84h1.87v1.87h-1.87Zm0,2.84h1.87v7.1h-1.87Z" transform="translate(-213.34 -332.72)"/><path class="cls-2" d="M307.88,421.68h1.87v7.1h-1.87Zm4.1,2.8a1.08,1.08,0,0,0-.3-.81,1.17,1.17,0,0,0-.84-.28,1.06,1.06,0,0,0-.81.29,1.09,1.09,0,0,0-.28.81l-.14-1.57a2.69,2.69,0,0,1,.76-1,1.81,1.81,0,0,1,1.13-.34,2.1,2.1,0,0,1,1.74.76,3.28,3.28,0,0,1,.61,2.13v4.31H312Z" transform="translate(-213.34 -332.72)"/><path class="cls-2" d="M316.59,428.52a2.24,2.24,0,0,1-.82-1,4.34,4.34,0,0,1-.28-1.66v-1.13a4.48,4.48,0,0,1,.28-1.68,2.32,2.32,0,0,1,.82-1.06,2.27,2.27,0,0,1,1.29-.36,1.7,1.7,0,0,1,1,.34,2.46,2.46,0,0,1,.76,1l-.15,1.57a1.41,1.41,0,0,0-.12-.61.85.85,0,0,0-.36-.39,1.09,1.09,0,0,0-.57-.13,1,1,0,0,0-.81.36,1.52,1.52,0,0,0-.3,1v1.12a1.46,1.46,0,0,0,.3,1,1,1,0,0,0,.81.35A1.2,1.2,0,0,0,319,427a.88.88,0,0,0,.36-.38,1.32,1.32,0,0,0,.12-.59l.1,1.62a2,2,0,0,1-.67.9,1.82,1.82,0,0,1-1.07.31A2.27,2.27,0,0,1,316.59,428.52Zm.11,2.85a2.43,2.43,0,0,1-1-.84l1.26-1.15a1.61,1.61,0,0,0,.57.39,1.73,1.73,0,0,0,.7.15,1.4,1.4,0,0,0,1-.33,1.09,1.09,0,0,0,.37-.88v-7h1.88v6.89a3.46,3.46,0,0,1-.38,1.67,2.41,2.41,0,0,1-1.08,1.06,3.81,3.81,0,0,1-1.73.37A3.63,3.63,0,0,1,316.7,431.37Z" transform="translate(-213.34 -332.72)"/><path class="cls-2" d="M322.94,426.91h1.87v1.87h-1.87Z" transform="translate(-213.34 -332.72)"/><path class="cls-2" d="M326.11,426.91H328v1.87h-1.87Z" transform="translate(-213.34 -332.72)"/><path class="cls-2" d="M329.28,426.91h1.87v1.87h-1.87Z" transform="translate(-213.34 -332.72)"/></svg>