<?xml version="1.0" encoding="utf-8"?>
<!-- Generator: Adobe Illustrator 27.5.0, SVG Export Plug-In . SVG Version: 6.00 Build 0)  -->
<svg version="1.1" id="Layer_2_00000069365828698720195380000007255320081226354570_"
	 xmlns="http://www.w3.org/2000/svg" xmlns:xlink="http://www.w3.org/1999/xlink" x="0px" y="0px" viewBox="0 0 383.2 195"
	 style="enable-background:new 0 0 383.2 195;" xml:space="preserve">
<style type="text/css">
	.st0{fill:#4BA3C3;}
	.st1{clip-path:url(#SVGID_00000128480596184034102290000018008612662859066803_);}
	.st2{clip-path:url(#SVGID_00000163065605883516940360000008054292873007416242_);}
	.st3{clip-path:url(#SVGID_00000114075674159082672960000013058286362782778550_);}
	.st4{clip-path:url(#SVGID_00000021079202896603395760000002244518418152688299_);}
	.st5{clip-path:url(#SVGID_00000089541620397615937120000005605434440450658487_);}
	.st6{clip-path:url(#SVGID_00000139293556376695809350000010533291602956412820_);}
	.st7{clip-path:url(#SVGID_00000090981106349882399840000014925028754764006033_);}
	.st8{clip-path:url(#SVGID_00000106832644890590958890000003700441143189515649_);}
	.st9{enable-background:new    ;}
	.st10{clip-path:url(#SVGID_00000121281844930209924910000004190548620468943775_);}
</style>
<g id="Layer_1-2">
	<g id="Group_30">
		<path class="st0" d="M103.5,134c0,3.9,3.2,7.1,7.1,7.1c3.1,0,5.9-2.1,6.8-5.1h44.1c0.7,3.9,4.3,6.5,8.2,5.8
			c3.9-0.7,6.5-4.3,5.8-8.2s-4.3-6.5-8.2-5.8c-3,0.5-5.3,2.8-5.8,5.8h-43.8c-0.2-3.9-3.5-7-7.5-6.8
			C106.5,127.1,103.5,130.2,103.5,134"/>
		<g>
			<defs>
				<path id="SVGID_1_" d="M103.5,134c0,3.9,3.2,7.1,7.1,7.1c3.1,0,5.9-2.1,6.8-5.1h44.1c0.7,3.9,4.3,6.5,8.2,5.8
					c3.9-0.7,6.5-4.3,5.8-8.2s-4.3-6.5-8.2-5.8c-3,0.5-5.3,2.8-5.8,5.8h-43.8c-0.2-3.9-3.5-7-7.5-6.8
					C106.5,127.1,103.5,130.2,103.5,134"/>
			</defs>
			<clipPath id="SVGID_00000125589880345450028810000018081704537175687323_">
				<use xlink:href="#SVGID_1_"  style="overflow:visible;"/>
			</clipPath>
			<g style="clip-path:url(#SVGID_00000125589880345450028810000018081704537175687323_);">
				<g id="Group_29">
					<rect id="Rectangle_17" x="103.5" y="126.9" class="st0" width="72.2" height="15.1"/>
				</g>
			</g>
		</g>
	</g>
	<g id="Group_32">
		<path class="st0" d="M102.9,94.9H88.4c-0.7-3.9-4.3-6.5-8.2-5.8c-3,0.5-5.3,2.8-5.8,5.8H42.9c-1-3.8-4.9-6.1-8.7-5.1
			c-3.8,1-6.1,4.9-5.1,8.7c1,3.8,4.9,6.1,8.7,5.1c2.9-0.8,5-3.3,5.3-6.3h31.2c0.7,3.9,4.3,6.5,8.2,5.8c3-0.5,5.3-2.8,5.8-5.8h14.5
			c0.7,6,6.1,10.4,12.1,9.7c5.1-0.6,9.2-4.6,9.7-9.7h39.2c0.7,3.9,4.3,6.5,8.2,5.8c3-0.5,5.3-2.8,5.8-5.8h26.2
			c0.7,3.9,4.3,6.5,8.2,5.8c3.9-0.7,6.5-4.3,5.8-8.2c-0.7-3.9-4.3-6.5-8.2-5.8c-3,0.5-5.3,2.8-5.8,5.8H178c-0.7-3.9-4.3-6.5-8.2-5.8
			c-3,0.5-5.3,2.8-5.8,5.8h-39.2c-0.7-6-6.1-10.4-12.1-9.7C107.5,85.8,103.4,89.8,102.9,94.9"/>
		<g>
			<defs>
				<path id="SVGID_00000082337376648842635460000016112186364395228348_" d="M102.9,94.9H88.4c-0.7-3.9-4.3-6.5-8.2-5.8
					c-3,0.5-5.3,2.8-5.8,5.8H42.9c-1-3.8-4.9-6.1-8.7-5.1c-3.8,1-6.1,4.9-5.1,8.7c1,3.8,4.9,6.1,8.7,5.1c2.9-0.8,5-3.3,5.3-6.3h31.2
					c0.7,3.9,4.3,6.5,8.2,5.8c3-0.5,5.3-2.8,5.8-5.8h14.5c0.7,6,6.1,10.4,12.1,9.7c5.1-0.6,9.2-4.6,9.7-9.7h39.2
					c0.7,3.9,4.3,6.5,8.2,5.8c3-0.5,5.3-2.8,5.8-5.8h26.2c0.7,3.9,4.3,6.5,8.2,5.8c3.9-0.7,6.5-4.3,5.8-8.2
					c-0.7-3.9-4.3-6.5-8.2-5.8c-3,0.5-5.3,2.8-5.8,5.8H178c-0.7-3.9-4.3-6.5-8.2-5.8c-3,0.5-5.3,2.8-5.8,5.8h-39.2
					c-0.7-6-6.1-10.4-12.1-9.7C107.5,85.8,103.4,89.8,102.9,94.9"/>
			</defs>
			<clipPath id="SVGID_00000167377778857398469870000012192541353877646759_">
				<use xlink:href="#SVGID_00000082337376648842635460000016112186364395228348_"  style="overflow:visible;"/>
			</clipPath>
			<g style="clip-path:url(#SVGID_00000167377778857398469870000012192541353877646759_);">
				<g id="Group_31">
					<rect id="Rectangle_18" x="28.9" y="85.1" class="st0" width="189.4" height="22"/>
				</g>
			</g>
		</g>
	</g>
	<g id="Group_34">
		<path class="st0" d="M285.2,134.2h-38.8c-0.1-3.9-3.4-7-7.3-6.9c-3.8,0.1-6.8,3.1-6.9,6.9h-32.6c-0.7-3.9-4.3-6.5-8.2-5.8
			c-3.9,0.7-6.5,4.3-5.8,8.2s4.3,6.5,8.2,5.8c3-0.5,5.3-2.8,5.8-5.8h32.9c1.2,3.7,5.2,5.8,9,4.6c2.2-0.7,3.9-2.4,4.6-4.6h39.4
			c1.2,5.2,6.4,8.4,11.6,7.2c3.6-0.8,6.4-3.6,7.2-7.2h31.5c0.7,3.9,4.3,6.5,8.2,5.8c3.9-0.7,6.5-4.3,5.8-8.2
			c-0.7-3.9-4.3-6.5-8.2-5.8c-3,0.5-5.3,2.8-5.8,5.8h-31.3c-0.1-5.3-4.5-9.6-9.9-9.5C289.5,124.9,285.3,129,285.2,134.2"/>
		<g>
			<defs>
				<path id="SVGID_00000009548289807139487840000001193928308698642587_" d="M285.2,134.2h-38.8c-0.1-3.9-3.4-7-7.3-6.9
					c-3.8,0.1-6.8,3.1-6.9,6.9h-32.6c-0.7-3.9-4.3-6.5-8.2-5.8c-3.9,0.7-6.5,4.3-5.8,8.2s4.3,6.5,8.2,5.8c3-0.5,5.3-2.8,5.8-5.8
					h32.9c1.2,3.7,5.2,5.8,9,4.6c2.2-0.7,3.9-2.4,4.6-4.6h39.4c1.2,5.2,6.4,8.4,11.6,7.2c3.6-0.8,6.4-3.6,7.2-7.2h31.5
					c0.7,3.9,4.3,6.5,8.2,5.8c3.9-0.7,6.5-4.3,5.8-8.2c-0.7-3.9-4.3-6.5-8.2-5.8c-3,0.5-5.3,2.8-5.8,5.8h-31.3
					c-0.1-5.3-4.5-9.6-9.9-9.5C289.5,124.9,285.3,129,285.2,134.2"/>
			</defs>
			<clipPath id="SVGID_00000166657759560935034620000003707586962728647066_">
				<use xlink:href="#SVGID_00000009548289807139487840000001193928308698642587_"  style="overflow:visible;"/>
			</clipPath>
			<g style="clip-path:url(#SVGID_00000166657759560935034620000003707586962728647066_);">
				<g id="Group_33">
					<rect id="Rectangle_19" x="185.4" y="124.8" class="st0" width="164.5" height="19.3"/>
				</g>
			</g>
		</g>
	</g>
	<g id="Group_36">
		<path class="st0" d="M133,154.9H85.9c-0.7-3.9-4.3-6.5-8.2-5.8s-6.5,4.3-5.8,8.2c0.7,3.9,4.3,6.5,8.2,5.8c3-0.5,5.3-2.8,5.8-5.8
			H133c0.7,3.9,4.3,6.5,8.2,5.8c3.9-0.7,6.5-4.3,5.8-8.2c-0.7-3.9-4.3-6.5-8.2-5.8C135.9,149.6,133.5,152,133,154.9"/>
		<g>
			<defs>
				<path id="SVGID_00000144322983374384209530000009508773925357126531_" d="M133,154.9H85.9c-0.7-3.9-4.3-6.5-8.2-5.8
					s-6.5,4.3-5.8,8.2c0.7,3.9,4.3,6.5,8.2,5.8c3-0.5,5.3-2.8,5.8-5.8H133c0.7,3.9,4.3,6.5,8.2,5.8c3.9-0.7,6.5-4.3,5.8-8.2
					c-0.7-3.9-4.3-6.5-8.2-5.8C135.9,149.6,133.5,152,133,154.9"/>
			</defs>
			<clipPath id="SVGID_00000025439481725058612300000016965738239675044780_">
				<use xlink:href="#SVGID_00000144322983374384209530000009508773925357126531_"  style="overflow:visible;"/>
			</clipPath>
			<g style="clip-path:url(#SVGID_00000025439481725058612300000016965738239675044780_);">
				<g id="Group_35">
					<rect id="Rectangle_20" x="71.8" y="149" class="st0" width="75.4" height="14.3"/>
				</g>
			</g>
		</g>
	</g>
	<g id="Group_38">
		<path class="st0" d="M84.8,115.8h-17c-0.7-3.9-4.3-6.5-8.2-5.8s-6.5,4.3-5.8,8.2c0.7,3.9,4.3,6.5,8.2,5.8c3-0.5,5.3-2.8,5.8-5.8
			h17c0.7,3.9,4.3,6.5,8.2,5.8c3.9-0.7,6.5-4.3,5.8-8.2c-0.7-3.9-4.3-6.5-8.2-5.8C87.7,110.5,85.3,112.8,84.8,115.8"/>
		<g>
			<defs>
				<path id="SVGID_00000114796201201607374770000001595573950439411626_" d="M84.8,115.8h-17c-0.7-3.9-4.3-6.5-8.2-5.8
					s-6.5,4.3-5.8,8.2c0.7,3.9,4.3,6.5,8.2,5.8c3-0.5,5.3-2.8,5.8-5.8h17c0.7,3.9,4.3,6.5,8.2,5.8c3.9-0.7,6.5-4.3,5.8-8.2
					c-0.7-3.9-4.3-6.5-8.2-5.8C87.7,110.5,85.3,112.8,84.8,115.8"/>
			</defs>
			<clipPath id="SVGID_00000152980699773357171470000012955712831924380814_">
				<use xlink:href="#SVGID_00000114796201201607374770000001595573950439411626_"  style="overflow:visible;"/>
			</clipPath>
			<g style="clip-path:url(#SVGID_00000152980699773357171470000012955712831924380814_);">
				<g id="Group_37">
					<rect id="Rectangle_21" x="53.7" y="109.9" class="st0" width="45.3" height="14.3"/>
				</g>
			</g>
		</g>
	</g>
	<g id="Group_40">
		<path class="st0" d="M253.5,115.8h-31c-0.7-3.9-4.3-6.5-8.2-5.8c-3,0.5-5.3,2.8-5.8,5.8h-58.2c-0.7-3.9-4.3-6.5-8.2-5.8
			s-6.5,4.3-5.8,8.2c0.7,3.9,4.3,6.5,8.2,5.8c3-0.5,5.3-2.8,5.8-5.8h58.2c0.7,3.9,4.3,6.5,8.2,5.8c3-0.5,5.3-2.8,5.8-5.8h31
			c0.7,3.9,4.3,6.5,8.2,5.8c3.9-0.7,6.5-4.3,5.8-8.2c-0.7-3.9-4.3-6.5-8.2-5.8C256.4,110.5,254,112.8,253.5,115.8"/>
		<g>
			<defs>
				<path id="SVGID_00000059292752574571957930000001159484980330238398_" d="M253.5,115.8h-31c-0.7-3.9-4.3-6.5-8.2-5.8
					c-3,0.5-5.3,2.8-5.8,5.8h-58.2c-0.7-3.9-4.3-6.5-8.2-5.8s-6.5,4.3-5.8,8.2c0.7,3.9,4.3,6.5,8.2,5.8c3-0.5,5.3-2.8,5.8-5.8h58.2
					c0.7,3.9,4.3,6.5,8.2,5.8c3-0.5,5.3-2.8,5.8-5.8h31c0.7,3.9,4.3,6.5,8.2,5.8c3.9-0.7,6.5-4.3,5.8-8.2c-0.7-3.9-4.3-6.5-8.2-5.8
					C256.4,110.5,254,112.8,253.5,115.8"/>
			</defs>
			<clipPath id="SVGID_00000104691524217465299210000011538883244411709319_">
				<use xlink:href="#SVGID_00000059292752574571957930000001159484980330238398_"  style="overflow:visible;"/>
			</clipPath>
			<g style="clip-path:url(#SVGID_00000104691524217465299210000011538883244411709319_);">
				<g id="Group_39">
					<rect id="Rectangle_22" x="136.1" y="109.9" class="st0" width="131.6" height="14.3"/>
				</g>
			</g>
		</g>
	</g>
	<g id="Group_42">
		<path class="st0" d="M162.5,73.9h-23.3c-0.1-5.4-4.5-9.8-10-9.7c-5.4,0.1-9.7,4.4-9.7,9.7H84.6c-0.7-3.9-4.3-6.5-8.2-5.8
			c-3.9,0.7-6.5,4.3-5.8,8.2c0.7,3.9,4.3,6.5,8.2,5.8c3-0.5,5.3-2.8,5.8-5.8h35.2c1.3,5.3,6.6,8.6,11.9,7.3c3.6-0.9,6.4-3.7,7.3-7.3
			h23.8c1.3,5.9,7.1,9.7,13.1,8.5c4.2-0.9,7.6-4.2,8.5-8.5h7.9c0.7,3.9,4.3,6.5,8.2,5.8c3-0.5,5.3-2.8,5.8-5.8H229
			c0.7,3.9,4.3,6.5,8.2,5.8s6.5-4.3,5.8-8.2c-0.7-3.9-4.3-6.5-8.2-5.8c-3,0.5-5.3,2.8-5.8,5.8h-22.7c-0.7-3.9-4.3-6.5-8.2-5.8
			c-3,0.5-5.3,2.8-5.8,5.8h-7.7c-0.1-6.1-5-11-11.1-10.9C167.4,63,162.6,67.9,162.5,73.9"/>
		<g>
			<defs>
				<path id="SVGID_00000183215308927005653180000009481828330874846860_" d="M162.5,73.9h-23.3c-0.1-5.4-4.5-9.8-10-9.7
					c-5.4,0.1-9.7,4.4-9.7,9.7H84.6c-0.7-3.9-4.3-6.5-8.2-5.8c-3.9,0.7-6.5,4.3-5.8,8.2c0.7,3.9,4.3,6.5,8.2,5.8
					c3-0.5,5.3-2.8,5.8-5.8h35.2c1.3,5.3,6.6,8.6,11.9,7.3c3.6-0.9,6.4-3.7,7.3-7.3h23.8c1.3,5.9,7.1,9.7,13.1,8.5
					c4.2-0.9,7.6-4.2,8.5-8.5h7.9c0.7,3.9,4.3,6.5,8.2,5.8c3-0.5,5.3-2.8,5.8-5.8H229c0.7,3.9,4.3,6.5,8.2,5.8s6.5-4.3,5.8-8.2
					c-0.7-3.9-4.3-6.5-8.2-5.8c-3,0.5-5.3,2.8-5.8,5.8h-22.7c-0.7-3.9-4.3-6.5-8.2-5.8c-3,0.5-5.3,2.8-5.8,5.8h-7.7
					c-0.1-6.1-5-11-11.1-10.9C167.4,63,162.6,67.9,162.5,73.9"/>
			</defs>
			<clipPath id="SVGID_00000089564997650404951500000017780155946391708057_">
				<use xlink:href="#SVGID_00000183215308927005653180000009481828330874846860_"  style="overflow:visible;"/>
			</clipPath>
			<g style="clip-path:url(#SVGID_00000089564997650404951500000017780155946391708057_);">
				<g id="Group_41">
					<rect id="Rectangle_23" x="70.5" y="63" class="st0" width="172.7" height="22"/>
				</g>
			</g>
		</g>
	</g>
	<g id="Group_44">
		<path class="st0" d="M32.7,134.4c0,3.9,3.2,7.1,7.1,7.1s7.1-3.2,7.1-7.1c0-3.9-3.2-7.1-7.1-7.1S32.7,130.5,32.7,134.4L32.7,134.4"
			/>
		<g>
			<defs>
				<path id="SVGID_00000047764175807866289610000009384416531852085151_" d="M32.7,134.4c0,3.9,3.2,7.1,7.1,7.1s7.1-3.2,7.1-7.1
					c0-3.9-3.2-7.1-7.1-7.1S32.7,130.5,32.7,134.4L32.7,134.4"/>
			</defs>
			<clipPath id="SVGID_00000168078015800892627560000004432766071315558820_">
				<use xlink:href="#SVGID_00000047764175807866289610000009384416531852085151_"  style="overflow:visible;"/>
			</clipPath>
			<g style="clip-path:url(#SVGID_00000168078015800892627560000004432766071315558820_);">
				<g id="Group_43">
					<rect id="Rectangle_24" x="32.7" y="127.3" class="st0" width="14.3" height="14.3"/>
				</g>
			</g>
		</g>
	</g>
	<g id="reimagined.">
		<g class="st9">
			<path class="st0" d="M184.2,160.2h2.7v1.5h0.1c0.9-1.1,2-1.6,3.5-1.6c1.1,0,2,0.4,2.8,1.1l-1.9,2.4c-0.6-0.5-1.1-0.7-1.8-0.7
				c-0.7,0-1.3,0.2-1.8,0.7c-0.5,0.4-0.8,1.2-0.8,2.2v8.3h-2.7V160.2z"/>
		</g>
		<g class="st9">
			<path class="st0" d="M196.2,168c0,1.1,0.3,1.9,0.9,2.5c0.6,0.6,1.3,0.9,2.2,0.9c1.1,0,2-0.4,2.9-1.3l1.9,1.7
				c-1.4,1.5-2.9,2.2-4.8,2.2c-0.7,0-1.4-0.1-2-0.3c-0.3-0.1-0.7-0.3-1-0.5c-0.3-0.2-0.6-0.4-0.9-0.6c-0.6-0.5-1-1.2-1.4-2.1
				c-0.4-0.9-0.6-2-0.6-3.4c0-1.4,0.2-2.5,0.5-3.4c0.3-0.9,0.8-1.6,1.3-2.2c0.5-0.5,1.1-0.9,1.8-1.2c0.6-0.2,1.3-0.4,1.9-0.4
				c1.5,0,2.8,0.5,3.8,1.5c1.1,1,1.6,2.4,1.6,4.2v2.3H196.2z M201.9,165.8c0-1.1-0.3-1.9-0.8-2.4c-0.5-0.5-1.2-0.8-2-0.8
				s-1.5,0.3-2,0.8c-0.5,0.5-0.8,1.4-0.8,2.4H201.9z"/>
			<path class="st0" d="M207.8,154.6h2.7v2.7h-2.7V154.6z M207.8,160.2h2.7v13.7h-2.7V160.2z"/>
			<path class="st0" d="M214.1,160.2h2.7v1.5h0.1c0.9-1.1,2.1-1.6,3.6-1.6c1,0,1.7,0.2,2.3,0.5c0.6,0.3,1.1,0.8,1.6,1.3
				c1.1-1.2,2.5-1.8,4.3-1.8c1.1,0,2.2,0.4,3.1,1.2c0.9,0.8,1.4,2,1.5,3.6v9.1h-2.7v-8.2c0-1-0.3-1.7-0.8-2.2
				c-0.5-0.5-1.2-0.8-2-0.8s-1.5,0.3-2,0.8c-0.5,0.5-0.8,1.2-0.8,2.2v8.2h-2.7v-8.2c0-1-0.3-1.7-0.8-2.2c-0.5-0.5-1.2-0.8-2-0.8
				c-0.8,0-1.5,0.3-2,0.8c-0.5,0.5-0.8,1.2-0.8,2.2v8.2h-2.7V160.2z"/>
			<path class="st0" d="M244.2,172.6L244.2,172.6c-0.3,0.5-0.7,0.8-1.2,1c-0.5,0.2-1.2,0.3-2.1,0.3c-1.5,0-2.6-0.4-3.4-1.2
				c-0.8-0.8-1.3-1.8-1.3-3c0-1.2,0.4-2.1,1.1-2.9c0.7-0.8,1.8-1.2,3.2-1.2h3.7v-1.4c0-1.2-0.9-1.8-2.7-1.8c-0.7,0-1.2,0.1-1.6,0.2
				c-0.4,0.2-0.7,0.5-0.9,0.8l-2.1-1.7c1-1.4,2.5-2,4.5-2c1.7,0,3,0.3,4,1c1,0.7,1.5,1.9,1.5,3.5v9.4h-2.7V172.6z M244.2,168H241
				c-1.6,0-2.3,0.6-2.3,1.7c0,0.5,0.2,0.9,0.6,1.2c0.4,0.4,1,0.5,1.9,0.5c1.1,0,1.9-0.1,2.4-0.4c0.4-0.3,0.6-1,0.6-2V168z"/>
			<path class="st0" d="M258.2,172.4c-0.9,1-2,1.6-3.4,1.6c-0.9,0-1.6-0.2-2.1-0.6c-0.6-0.3-1.1-0.7-1.4-1.1c-0.3-0.4-0.6-1-0.8-1.6
				c-0.2-0.6-0.2-1.9-0.2-3.7c0-1.8,0.1-3.1,0.2-3.7c0.2-0.6,0.4-1.2,0.8-1.6c0.3-0.4,0.8-0.8,1.4-1.2c0.6-0.3,1.3-0.5,2.1-0.5
				c1.3,0,2.5,0.5,3.4,1.6v-1.5h2.7v13.4c0,2.1-0.6,3.6-1.7,4.5c-1.1,1-2.5,1.5-4,1.5c-1.8,0-3.3-0.8-4.6-2.3l2.1-1.7
				c0.3,0.3,0.7,0.6,1.2,0.8c0.5,0.3,0.9,0.4,1.4,0.4c0.9,0,1.6-0.3,2.2-0.8c0.5-0.5,0.8-1.3,0.8-2.2V172.4z M252.9,167
				c0,1,0,1.8,0.1,2.2c0.1,0.4,0.2,0.8,0.4,1c0.2,0.2,0.5,0.5,0.8,0.7c0.3,0.2,0.8,0.4,1.3,0.4c0.5,0,1-0.1,1.3-0.4
				c0.3-0.2,0.6-0.4,0.8-0.7c0.2-0.3,0.4-0.6,0.4-1c0.1-0.4,0.1-1.1,0.1-2.2c0-1.1,0-1.8-0.1-2.2c-0.1-0.4-0.2-0.8-0.4-1
				c-0.2-0.2-0.4-0.5-0.8-0.7c-0.3-0.2-0.8-0.3-1.3-0.3c-0.5,0-1,0.1-1.3,0.3c-0.4,0.2-0.6,0.5-0.8,0.7c-0.2,0.3-0.4,0.6-0.4,1
				C253,165.2,252.9,165.9,252.9,167z"/>
			<path class="st0" d="M264.9,154.6h2.7v2.7h-2.7V154.6z M264.9,160.2h2.7v13.7h-2.7V160.2z"/>
			<path class="st0" d="M271.3,160.2h2.7v1.5h0.1c0.9-1.1,2-1.6,3.4-1.6c1.1,0,2.1,0.4,3,1.2c0.9,0.8,1.4,2,1.4,3.6v9.1h-2.7v-8.2
				c0-1-0.2-1.7-0.7-2.2c-0.5-0.5-1.1-0.8-1.9-0.8c-0.8,0-1.4,0.3-1.9,0.8c-0.5,0.5-0.8,1.2-0.8,2.2v8.2h-2.7V160.2z"/>
			<path class="st0" d="M287.8,168c0,1.1,0.3,1.9,0.9,2.5c0.6,0.6,1.3,0.9,2.2,0.9c1.1,0,2-0.4,2.9-1.3l1.9,1.7
				c-1.4,1.5-2.9,2.2-4.8,2.2c-0.7,0-1.4-0.1-2-0.3c-0.3-0.1-0.7-0.3-1-0.5c-0.3-0.2-0.6-0.4-0.9-0.6c-0.6-0.5-1-1.2-1.4-2.1
				c-0.4-0.9-0.6-2-0.6-3.4c0-1.4,0.2-2.5,0.5-3.4c0.3-0.9,0.8-1.6,1.3-2.2c0.5-0.5,1.1-0.9,1.8-1.2c0.6-0.2,1.3-0.4,1.9-0.4
				c1.5,0,2.8,0.5,3.8,1.5c1.1,1,1.6,2.4,1.6,4.2v2.3H287.8z M293.4,165.8c0-1.1-0.3-1.9-0.8-2.4c-0.5-0.5-1.2-0.8-2-0.8
				s-1.5,0.3-2,0.8c-0.5,0.5-0.8,1.4-0.8,2.4H293.4z"/>
			<path class="st0" d="M307.2,172.4c-0.9,1-2,1.6-3.4,1.6c-0.8,0-1.5-0.2-2.1-0.5c-0.6-0.3-1.1-0.7-1.5-1.3c-0.4-0.4-0.6-1-0.7-1.8
				c-0.1-0.7-0.2-1.9-0.2-3.5c0-1.6,0.1-2.8,0.2-3.5c0.1-0.7,0.4-1.3,0.7-1.7c0.7-1.1,1.9-1.7,3.5-1.8c0.7,0,1.3,0.1,1.9,0.4
				c0.5,0.3,1.1,0.7,1.5,1.2v-7h2.7v19.2h-2.7V172.4z M304.6,162.7c-0.6,0-1.1,0.1-1.4,0.3c-0.4,0.2-0.6,0.6-0.8,1
				c-0.2,0.4-0.3,0.9-0.3,1.3c-0.1,0.5-0.1,1.1-0.1,1.6c0,0.5,0,1,0.1,1.5c0.1,0.5,0.2,1,0.3,1.4c0.2,0.4,0.4,0.7,0.8,1
				c0.3,0.2,0.8,0.4,1.4,0.4c0.6,0,1.1-0.1,1.5-0.4c0.4-0.3,0.6-0.6,0.8-1c0.2-0.4,0.3-0.9,0.3-1.4c0-0.5,0-1,0-1.5c0-0.5,0-1,0-1.5
				c-0.1-0.5-0.2-0.9-0.3-1.4c-0.1-0.4-0.4-0.8-0.8-1S305.2,162.7,304.6,162.7z"/>
			<path class="st0" d="M313.4,171.1h2.7v2.7h-2.7V171.1z"/>
		</g>
	</g>
	<g id="Group_48">
		<path class="st0" d="M264.8,93.9h-17c-0.7-3.9-4.3-6.5-8.2-5.8c-3.9,0.7-6.5,4.3-5.8,8.2c0.7,3.9,4.3,6.5,8.2,5.8
			c3-0.5,5.3-2.8,5.8-5.8h17c0.7,3.9,4.3,6.5,8.2,5.8c3.9-0.7,6.5-4.3,5.8-8.2c-0.7-3.9-4.3-6.5-8.2-5.8
			C267.6,88.6,265.3,90.9,264.8,93.9"/>
		<g>
			<defs>
				<path id="SVGID_00000142856340221897671110000014242850800411916160_" d="M264.8,93.9h-17c-0.7-3.9-4.3-6.5-8.2-5.8
					c-3.9,0.7-6.5,4.3-5.8,8.2c0.7,3.9,4.3,6.5,8.2,5.8c3-0.5,5.3-2.8,5.8-5.8h17c0.7,3.9,4.3,6.5,8.2,5.8c3.9-0.7,6.5-4.3,5.8-8.2
					c-0.7-3.9-4.3-6.5-8.2-5.8C267.6,88.6,265.3,90.9,264.8,93.9"/>
			</defs>
			<clipPath id="SVGID_00000168094592105411856100000014600713057409550728_">
				<use xlink:href="#SVGID_00000142856340221897671110000014242850800411916160_"  style="overflow:visible;"/>
			</clipPath>
			<g style="clip-path:url(#SVGID_00000168094592105411856100000014600713057409550728_);">
				<g id="Group_47">
					<rect id="Rectangle_26" x="233.7" y="87.9" class="st0" width="45.3" height="14.3"/>
				</g>
			</g>
		</g>
	</g>
	<g id="pomodoro_">
		<g class="st9">
			<path class="st0" d="M72.3,34.5h-1.9v-3h1.9v-2.6c0-1.9,0.5-3.2,1.5-4.1c1-0.8,2.2-1.2,3.7-1.2H80v3.7h-2.2
				c-1.1,0-1.7,0.5-1.6,1.6v2.6H80v3h-3.8v16.5h-3.8V34.5z"/>
			<path class="st0" d="M81.7,23.6h3.8V46c0,0.9,0.5,1.3,1.4,1.3h1.3v3.7h-1.7c-1.4,0-2.5-0.4-3.4-1.1c-0.9-0.7-1.4-1.9-1.4-3.7
				V23.6z"/>
			<path class="st0" d="M100.8,49.3L100.8,49.3c-0.4,0.7-1,1.2-1.7,1.5c-0.7,0.3-1.7,0.5-3,0.5c-2.1,0-3.7-0.6-4.9-1.7
				c-1.2-1.1-1.8-2.5-1.8-4.2c0-1.6,0.5-3,1.6-4.1c1-1.1,2.6-1.7,4.6-1.7h5.3v-2.1c0-1.7-1.3-2.6-3.9-2.5c-0.9,0-1.7,0.1-2.2,0.3
				c-0.6,0.2-1,0.6-1.4,1.2l-3-2.4c1.4-1.9,3.6-2.9,6.4-2.8c2.4,0,4.3,0.4,5.7,1.4c1.4,1,2.1,2.7,2.2,5.1v13.4h-3.8V49.3z
				 M100.8,42.8h-4.6c-2.2,0.1-3.3,0.8-3.3,2.4c0,0.7,0.3,1.2,0.9,1.7c0.5,0.5,1.5,0.8,2.7,0.8c1.6,0,2.7-0.2,3.4-0.6
				c0.6-0.4,0.9-1.4,0.9-2.8V42.8z"/>
			<path class="st0" d="M110,45.1c1.5,1.7,3.6,2.5,6,2.5c1.1,0,2-0.2,2.7-0.7c0.7-0.4,1-1.1,1-1.8c0-0.7-0.2-1.2-0.6-1.5
				c-0.4-0.3-1-0.4-1.7-0.5l-3.4-0.3c-1.6-0.2-2.9-0.7-3.9-1.7c-1-0.9-1.5-2.2-1.6-3.9c0-2,0.7-3.5,2.1-4.5c1.3-1,3-1.5,5-1.5
				c0.9,0,1.7,0.1,2.4,0.2c0.7,0.1,1.3,0.3,2,0.5c1.2,0.5,2.2,1.1,3.1,2l-2.4,2.8c-0.7-0.5-1.5-1-2.3-1.4c-0.8-0.3-1.7-0.5-2.8-0.5
				c-1.2,0-2,0.2-2.5,0.7c-0.5,0.4-0.8,1-0.8,1.7c0,0.4,0.2,0.8,0.6,1.2c0.4,0.4,1,0.6,1.9,0.7l3.1,0.2c2,0.2,3.4,0.8,4.3,1.8
				c0.8,1.1,1.2,2.4,1.2,4c0,1.9-0.8,3.4-2.2,4.4c-1.5,1.1-3.3,1.6-5.6,1.6c-3.1,0-5.9-1.2-8.3-3.5L110,45.1z"/>
			<path class="st0" d="M127.2,23.6h3.8v10h0.1c1.3-1.5,2.9-2.3,4.9-2.3c1.6,0,3,0.6,4.3,1.7c1.3,1.2,2,2.9,2,5.1v13h-3.8V39.4
				c0-1.4-0.4-2.4-1.1-3.1c-0.7-0.7-1.6-1.1-2.7-1.1c-1.1,0-2,0.4-2.7,1.1c-0.7,0.7-1.1,1.8-1.1,3.1v11.7h-3.8V23.6z"/>
			<path class="st0" d="M169.5,47.9c-0.8,1-1.8,1.8-2.9,2.4c-1.1,0.6-2.4,1-3.9,1c-2.2,0-4.2-0.8-5.9-2.4c-1.8-1.6-2.6-4.1-2.7-7.6
				c0-3.6,0.9-6.1,2.7-7.7c1.7-1.6,3.7-2.3,5.9-2.3c1.5,0,2.8,0.3,3.9,0.9c1.1,0.6,2.1,1.4,2.9,2.5l-2.8,2.6c-1-1.3-2.2-2-3.9-2.1
				c-3.2-0.1-4.9,2-4.9,6.1c0,4.1,1.7,6.1,4.9,6.1c1.6,0,2.9-0.7,3.9-2L169.5,47.9z"/>
			<path class="st0" d="M181.9,49.3L181.9,49.3c-0.4,0.7-1,1.2-1.7,1.5c-0.7,0.3-1.7,0.5-3,0.5c-2.1,0-3.7-0.6-4.9-1.7
				c-1.2-1.1-1.8-2.5-1.8-4.2c0-1.6,0.5-3,1.6-4.1c1-1.1,2.6-1.7,4.6-1.7h5.3v-2.1c0-1.7-1.3-2.6-3.9-2.5c-0.9,0-1.7,0.1-2.2,0.3
				c-0.6,0.2-1,0.6-1.4,1.2l-3-2.4c1.4-1.9,3.6-2.9,6.4-2.8c2.4,0,4.3,0.4,5.7,1.4c1.4,1,2.1,2.7,2.2,5.1v13.4h-3.8V49.3z
				 M181.9,42.8h-4.6c-2.2,0.1-3.3,0.8-3.3,2.4c0,0.7,0.3,1.2,0.9,1.7c0.5,0.5,1.5,0.8,2.7,0.8c1.6,0,2.7-0.2,3.4-0.6
				c0.6-0.4,0.9-1.4,0.9-2.8V42.8z"/>
		</g>
		<g class="st9">
			<path class="st0" d="M191.4,31.5h3.8v2.1h0.1c1.3-1.5,2.9-2.3,4.9-2.3c1.5,0,2.8,0.5,4,1.5l-2.8,3.4c-0.8-0.7-1.6-1-2.5-1
				c-1,0-1.8,0.3-2.5,1c-0.8,0.6-1.2,1.7-1.2,3.1v11.8h-3.8V31.5z"/>
		</g>
		<g class="st9">
			<path class="st0" d="M216.4,49c-1.3,1.5-2.9,2.2-4.9,2.3c-1.1,0-2.1-0.3-2.9-0.7c-0.9-0.5-1.6-1.1-2.1-1.8
				c-0.5-0.6-0.9-1.5-1-2.5c-0.2-1-0.3-2.7-0.3-5c0-2.4,0.1-4,0.3-5c0.2-1,0.5-1.8,1-2.4c1.1-1.6,2.8-2.5,5.1-2.5
				c1,0,1.9,0.2,2.7,0.6c0.8,0.4,1.5,1,2.2,1.7v-10h3.8v27.5h-3.8V49z M212.7,35.2c-0.9,0-1.6,0.2-2.1,0.5c-0.5,0.3-0.9,0.8-1.2,1.4
				c-0.2,0.6-0.4,1.2-0.5,1.9c-0.1,0.7-0.1,1.5-0.1,2.3c0,0.7,0,1.5,0.1,2.2c0.1,0.7,0.2,1.4,0.5,2c0.2,0.6,0.6,1,1.2,1.4
				c0.5,0.4,1.2,0.5,2.1,0.5s1.6-0.2,2.1-0.6c0.5-0.4,0.9-0.8,1.1-1.4c0.2-0.6,0.4-1.3,0.5-2c0-0.7,0-1.4,0-2.1c0-0.8,0-1.5,0-2.2
				c-0.1-0.7-0.2-1.3-0.5-1.9c-0.2-0.6-0.6-1.1-1.1-1.4S213.6,35.2,212.7,35.2z"/>
			<path class="st0" d="M224.9,45.1c1.5,1.7,3.6,2.5,6,2.5c1.1,0,2-0.2,2.7-0.7c0.7-0.4,1-1.1,1-1.8c0-0.7-0.2-1.2-0.6-1.5
				c-0.4-0.3-1-0.4-1.7-0.5l-3.4-0.3c-1.6-0.2-2.9-0.7-3.9-1.7c-1-0.9-1.5-2.2-1.6-3.9c0-2,0.7-3.5,2.1-4.5c1.3-1,3-1.5,5-1.5
				c0.9,0,1.7,0.1,2.4,0.2c0.7,0.1,1.3,0.3,2,0.5c1.2,0.5,2.2,1.1,3.1,2l-2.4,2.8c-0.7-0.5-1.5-1-2.3-1.4c-0.8-0.3-1.7-0.5-2.8-0.5
				c-1.2,0-2,0.2-2.5,0.7c-0.5,0.4-0.8,1-0.8,1.7c0,0.4,0.2,0.8,0.6,1.2c0.4,0.4,1,0.6,1.9,0.7l3.1,0.2c2,0.2,3.4,0.8,4.3,1.8
				c0.8,1.1,1.2,2.4,1.2,4c0,1.9-0.8,3.4-2.2,4.4c-1.5,1.1-3.3,1.6-5.6,1.6c-3.1,0-5.9-1.2-8.3-3.5L224.9,45.1z"/>
			<path class="st0" d="M242.2,47.1h3.8v3.9l-3.8,2.9V47.1z"/>
		</g>
	</g>
</g>
</svg>
