<?xml version="1.0" encoding="utf-8"?>
<!-- Generator: Adobe Illustrator 27.5.0, SVG Export Plug-In . SVG Version: 6.00 Build 0)  -->
<svg version="1.1" id="Layer_2_00000111162361617942768130000000770121120052081574_"
	 xmlns="http://www.w3.org/2000/svg" xmlns:xlink="http://www.w3.org/1999/xlink" x="0px" y="0px" viewBox="0 0 383.2 195"
	 style="enable-background:new 0 0 383.2 195;" xml:space="preserve">
<style type="text/css">
	.st0{fill:#4A494A;}
	.st1{clip-path:url(#SVGID_00000145026075258279714460000018205603591511230114_);}
	.st2{clip-path:url(#SVGID_00000055698564156931026320000015552941508855042993_);}
	.st3{clip-path:url(#SVGID_00000075864516990221083180000006015368374064418743_);}
	.st4{clip-path:url(#SVGID_00000121980580767892072210000014625920637940770184_);}
	.st5{clip-path:url(#SVGID_00000060011610334116479330000005025127224062186643_);}
	.st6{clip-path:url(#SVGID_00000034072217866067852920000007666554451915628420_);}
	.st7{clip-path:url(#SVGID_00000000929540656689075830000015083054683763090621_);}
	.st8{clip-path:url(#SVGID_00000167366862687556890030000007717456292485338772_);}
	.st9{enable-background:new    ;}
	.st10{clip-path:url(#SVGID_00000139273801670035609740000015883895160237492106_);}
</style>
<g id="Layer_1-2">
	<g id="Group_30">
		<path class="st0" d="M107.3,130.3c0,3.9,3.2,7.1,7.1,7.1c3.1,0,5.9-2.1,6.8-5.1h44c0.7,3.9,4.3,6.5,8.2,5.8
			c3.9-0.7,6.5-4.3,5.8-8.2s-4.3-6.5-8.2-5.8c-3,0.5-5.3,2.8-5.8,5.8h-43.8c-0.2-3.9-3.5-6.9-7.4-6.7
			C110.2,123.4,107.3,126.5,107.3,130.3"/>
		<g>
			<defs>
				<path id="SVGID_1_" d="M107.3,130.3c0,3.9,3.2,7.1,7.1,7.1c3.1,0,5.9-2.1,6.8-5.1h44c0.7,3.9,4.3,6.5,8.2,5.8
					c3.9-0.7,6.5-4.3,5.8-8.2s-4.3-6.5-8.2-5.8c-3,0.5-5.3,2.8-5.8,5.8h-43.8c-0.2-3.9-3.5-6.9-7.4-6.7
					C110.2,123.4,107.3,126.5,107.3,130.3"/>
			</defs>
			<clipPath id="SVGID_00000134221456624340792400000006246600718308897971_">
				<use xlink:href="#SVGID_1_"  style="overflow:visible;"/>
			</clipPath>
			<g style="clip-path:url(#SVGID_00000134221456624340792400000006246600718308897971_);">
				<g id="Group_29">
					<rect id="Rectangle_17" x="107.3" y="123.2" class="st0" width="72.1" height="15.1"/>
				</g>
			</g>
		</g>
	</g>
	<g id="Group_32">
		<path class="st0" d="M106.6,91.3H92.1c-0.7-3.9-4.3-6.5-8.2-5.8c-3,0.5-5.3,2.8-5.8,5.8H46.8c-1-3.8-4.9-6.1-8.7-5.1
			c-3.8,1-6.1,4.9-5.1,8.7c1,3.8,4.9,6.1,8.7,5.1c2.9-0.8,5-3.3,5.3-6.3h31.1c0.7,3.9,4.3,6.5,8.2,5.8c3-0.5,5.3-2.8,5.8-5.8h14.5
			c0.7,6,6.1,10.4,12.1,9.7c5.1-0.6,9.2-4.6,9.7-9.7h39.1c0.7,3.9,4.3,6.5,8.2,5.8c3-0.5,5.3-2.8,5.8-5.8h26.2
			c0.7,3.9,4.3,6.5,8.2,5.8c3.9-0.7,6.5-4.3,5.8-8.2c-0.7-3.9-4.3-6.5-8.2-5.8c-3,0.5-5.3,2.8-5.8,5.8h-26.2
			c-0.7-3.9-4.3-6.5-8.2-5.8c-3,0.5-5.3,2.8-5.8,5.8h-39.1c-0.7-6-6.1-10.4-12.1-9.7C111.2,82.1,107.2,86.2,106.6,91.3"/>
		<g>
			<defs>
				<path id="SVGID_00000021816803046792753110000011704262738081148849_" d="M106.6,91.3H92.1c-0.7-3.9-4.3-6.5-8.2-5.8
					c-3,0.5-5.3,2.8-5.8,5.8H46.8c-1-3.8-4.9-6.1-8.7-5.1c-3.8,1-6.1,4.9-5.1,8.7c1,3.8,4.9,6.1,8.7,5.1c2.9-0.8,5-3.3,5.3-6.3h31.1
					c0.7,3.9,4.3,6.5,8.2,5.8c3-0.5,5.3-2.8,5.8-5.8h14.5c0.7,6,6.1,10.4,12.1,9.7c5.1-0.6,9.2-4.6,9.7-9.7h39.1
					c0.7,3.9,4.3,6.5,8.2,5.8c3-0.5,5.3-2.8,5.8-5.8h26.2c0.7,3.9,4.3,6.5,8.2,5.8c3.9-0.7,6.5-4.3,5.8-8.2
					c-0.7-3.9-4.3-6.5-8.2-5.8c-3,0.5-5.3,2.8-5.8,5.8h-26.2c-0.7-3.9-4.3-6.5-8.2-5.8c-3,0.5-5.3,2.8-5.8,5.8h-39.1
					c-0.7-6-6.1-10.4-12.1-9.7C111.2,82.1,107.2,86.2,106.6,91.3"/>
			</defs>
			<clipPath id="SVGID_00000174595272959815306620000005384514340392943540_">
				<use xlink:href="#SVGID_00000021816803046792753110000011704262738081148849_"  style="overflow:visible;"/>
			</clipPath>
			<g style="clip-path:url(#SVGID_00000174595272959815306620000005384514340392943540_);">
				<g id="Group_31">
					<rect id="Rectangle_18" x="32.8" y="81.5" class="st0" width="189.1" height="22"/>
				</g>
			</g>
		</g>
	</g>
	<g id="Group_34">
		<path class="st0" d="M288.6,130.5h-38.8c-0.1-3.9-3.4-7-7.3-6.9c-3.8,0.1-6.8,3.1-6.9,6.9h-32.5c-0.7-3.9-4.3-6.5-8.2-5.8
			c-3.9,0.7-6.5,4.3-5.8,8.2s4.3,6.5,8.2,5.8c3-0.5,5.3-2.8,5.8-5.8h32.9c1.2,3.7,5.2,5.8,9,4.6c2.2-0.7,3.9-2.4,4.6-4.6h39.3
			c1.2,5.2,6.4,8.4,11.6,7.2c3.6-0.8,6.4-3.6,7.2-7.2h31.5c0.7,3.9,4.3,6.5,8.2,5.8c3.9-0.7,6.5-4.3,5.8-8.2
			c-0.7-3.9-4.3-6.5-8.2-5.8c-3,0.5-5.3,2.8-5.8,5.8h-31.2c-0.1-5.3-4.5-9.6-9.8-9.4C292.9,121.2,288.7,125.3,288.6,130.5"/>
		<g>
			<defs>
				<path id="SVGID_00000139268632860895431750000004857581838765524617_" d="M288.6,130.5h-38.8c-0.1-3.9-3.4-7-7.3-6.9
					c-3.8,0.1-6.8,3.1-6.9,6.9h-32.5c-0.7-3.9-4.3-6.5-8.2-5.8c-3.9,0.7-6.5,4.3-5.8,8.2s4.3,6.5,8.2,5.8c3-0.5,5.3-2.8,5.8-5.8
					h32.9c1.2,3.7,5.2,5.8,9,4.6c2.2-0.7,3.9-2.4,4.6-4.6h39.3c1.2,5.2,6.4,8.4,11.6,7.2c3.6-0.8,6.4-3.6,7.2-7.2h31.5
					c0.7,3.9,4.3,6.5,8.2,5.8c3.9-0.7,6.5-4.3,5.8-8.2c-0.7-3.9-4.3-6.5-8.2-5.8c-3,0.5-5.3,2.8-5.8,5.8h-31.2
					c-0.1-5.3-4.5-9.6-9.8-9.4C292.9,121.2,288.7,125.3,288.6,130.5"/>
			</defs>
			<clipPath id="SVGID_00000168806124962013595640000002365191693855020459_">
				<use xlink:href="#SVGID_00000139268632860895431750000004857581838765524617_"  style="overflow:visible;"/>
			</clipPath>
			<g style="clip-path:url(#SVGID_00000168806124962013595640000002365191693855020459_);">
				<g id="Group_33">
					<rect id="Rectangle_19" x="189" y="121.1" class="st0" width="164.2" height="19.3"/>
				</g>
			</g>
		</g>
	</g>
	<g id="Group_36">
		<path class="st0" d="M136.7,151.2h-47c-0.7-3.9-4.3-6.5-8.2-5.8c-3.9,0.7-6.5,4.3-5.8,8.2c0.7,3.9,4.3,6.5,8.2,5.8
			c3-0.5,5.3-2.8,5.8-5.8h47c0.7,3.9,4.3,6.5,8.2,5.8c3.9-0.7,6.5-4.3,5.8-8.2c-0.7-3.9-4.3-6.5-8.2-5.8
			C139.5,145.9,137.2,148.2,136.7,151.2"/>
		<g>
			<defs>
				<path id="SVGID_00000178902527753645168650000016180971178949595558_" d="M136.7,151.2h-47c-0.7-3.9-4.3-6.5-8.2-5.8
					c-3.9,0.7-6.5,4.3-5.8,8.2c0.7,3.9,4.3,6.5,8.2,5.8c3-0.5,5.3-2.8,5.8-5.8h47c0.7,3.9,4.3,6.5,8.2,5.8c3.9-0.7,6.5-4.3,5.8-8.2
					c-0.7-3.9-4.3-6.5-8.2-5.8C139.5,145.9,137.2,148.2,136.7,151.2"/>
			</defs>
			<clipPath id="SVGID_00000047060264503415085710000000700481322118811012_">
				<use xlink:href="#SVGID_00000178902527753645168650000016180971178949595558_"  style="overflow:visible;"/>
			</clipPath>
			<g style="clip-path:url(#SVGID_00000047060264503415085710000000700481322118811012_);">
				<g id="Group_35">
					<rect id="Rectangle_20" x="75.6" y="145.3" class="st0" width="75.3" height="14.2"/>
				</g>
			</g>
		</g>
	</g>
	<g id="Group_38">
		<path class="st0" d="M88.6,112.1H71.6c-0.7-3.9-4.3-6.5-8.2-5.8c-3.9,0.7-6.5,4.3-5.8,8.2c0.7,3.9,4.3,6.5,8.2,5.8
			c3-0.5,5.3-2.8,5.8-5.8h16.9c0.7,3.9,4.3,6.5,8.2,5.8c3.9-0.7,6.5-4.3,5.8-8.2c-0.7-3.9-4.3-6.5-8.2-5.8
			C91.4,106.8,89.1,109.1,88.6,112.1"/>
		<g>
			<defs>
				<path id="SVGID_00000090992058039886889100000010934149588147683718_" d="M88.6,112.1H71.6c-0.7-3.9-4.3-6.5-8.2-5.8
					c-3.9,0.7-6.5,4.3-5.8,8.2c0.7,3.9,4.3,6.5,8.2,5.8c3-0.5,5.3-2.8,5.8-5.8h16.9c0.7,3.9,4.3,6.5,8.2,5.8
					c3.9-0.7,6.5-4.3,5.8-8.2c-0.7-3.9-4.3-6.5-8.2-5.8C91.4,106.8,89.1,109.1,88.6,112.1"/>
			</defs>
			<clipPath id="SVGID_00000178893822902175053680000011842052234501809819_">
				<use xlink:href="#SVGID_00000090992058039886889100000010934149588147683718_"  style="overflow:visible;"/>
			</clipPath>
			<g style="clip-path:url(#SVGID_00000178893822902175053680000011842052234501809819_);">
				<g id="Group_37">
					<rect id="Rectangle_21" x="57.5" y="106.2" class="st0" width="45.2" height="14.2"/>
				</g>
			</g>
		</g>
	</g>
	<g id="Group_40">
		<path class="st0" d="M257,112.1h-31c-0.7-3.9-4.3-6.5-8.2-5.8c-3,0.5-5.3,2.8-5.8,5.8h-58.1c-0.7-3.9-4.3-6.5-8.2-5.8
			c-3.9,0.7-6.5,4.3-5.8,8.2c0.7,3.9,4.3,6.5,8.2,5.8c3-0.5,5.3-2.8,5.8-5.8H212c0.7,3.9,4.3,6.5,8.2,5.8c3-0.5,5.3-2.8,5.8-5.8h31
			c0.7,3.9,4.3,6.5,8.2,5.8c3.9-0.7,6.5-4.3,5.8-8.2c-0.7-3.9-4.3-6.5-8.2-5.8C259.8,106.8,257.5,109.1,257,112.1"/>
		<g>
			<defs>
				<path id="SVGID_00000142862216616099252380000011645365987219388812_" d="M257,112.1h-31c-0.7-3.9-4.3-6.5-8.2-5.8
					c-3,0.5-5.3,2.8-5.8,5.8h-58.1c-0.7-3.9-4.3-6.5-8.2-5.8c-3.9,0.7-6.5,4.3-5.8,8.2c0.7,3.9,4.3,6.5,8.2,5.8
					c3-0.5,5.3-2.8,5.8-5.8H212c0.7,3.9,4.3,6.5,8.2,5.8c3-0.5,5.3-2.8,5.8-5.8h31c0.7,3.9,4.3,6.5,8.2,5.8c3.9-0.7,6.5-4.3,5.8-8.2
					c-0.7-3.9-4.3-6.5-8.2-5.8C259.8,106.8,257.5,109.1,257,112.1"/>
			</defs>
			<clipPath id="SVGID_00000025406896757303808930000005431918182377861292_">
				<use xlink:href="#SVGID_00000142862216616099252380000011645365987219388812_"  style="overflow:visible;"/>
			</clipPath>
			<g style="clip-path:url(#SVGID_00000025406896757303808930000005431918182377861292_);">
				<g id="Group_39">
					<rect id="Rectangle_22" x="139.8" y="106.2" class="st0" width="131.3" height="14.2"/>
				</g>
			</g>
		</g>
	</g>
	<g id="Group_42">
		<path class="st0" d="M166.1,70.3h-23.2c-0.1-5.4-4.5-9.8-9.9-9.7c-5.3,0.1-9.7,4.4-9.7,9.7H88.4c-0.7-3.9-4.3-6.5-8.2-5.8
			c-3.9,0.7-6.5,4.3-5.8,8.2c0.7,3.9,4.3,6.5,8.2,5.8c3-0.5,5.3-2.8,5.8-5.8h35.1c1.3,5.3,6.6,8.5,11.8,7.3c3.6-0.9,6.4-3.7,7.3-7.3
			h23.8c1.3,5.9,7.1,9.7,13,8.4c4.2-0.9,7.5-4.2,8.4-8.4h7.9c0.7,3.9,4.3,6.5,8.2,5.8c3-0.5,5.3-2.8,5.8-5.8h22.7
			c0.7,3.9,4.3,6.5,8.2,5.8c3.9-0.7,6.5-4.3,5.8-8.2c-0.7-3.9-4.3-6.5-8.2-5.8c-3,0.5-5.3,2.8-5.8,5.8h-22.7
			c-0.7-3.9-4.3-6.5-8.2-5.8c-3,0.5-5.3,2.8-5.8,5.8h-7.7c-0.1-6.1-5-10.9-11.1-10.9C171,59.5,166.2,64.3,166.1,70.3"/>
		<g>
			<defs>
				<path id="SVGID_00000164471557955846750050000018165575643617706116_" d="M166.1,70.3h-23.2c-0.1-5.4-4.5-9.8-9.9-9.7
					c-5.3,0.1-9.7,4.4-9.7,9.7H88.4c-0.7-3.9-4.3-6.5-8.2-5.8c-3.9,0.7-6.5,4.3-5.8,8.2c0.7,3.9,4.3,6.5,8.2,5.8
					c3-0.5,5.3-2.8,5.8-5.8h35.1c1.3,5.3,6.6,8.5,11.8,7.3c3.6-0.9,6.4-3.7,7.3-7.3h23.8c1.3,5.9,7.1,9.7,13,8.4
					c4.2-0.9,7.5-4.2,8.4-8.4h7.9c0.7,3.9,4.3,6.5,8.2,5.8c3-0.5,5.3-2.8,5.8-5.8h22.7c0.7,3.9,4.3,6.5,8.2,5.8
					c3.9-0.7,6.5-4.3,5.8-8.2c-0.7-3.9-4.3-6.5-8.2-5.8c-3,0.5-5.3,2.8-5.8,5.8h-22.7c-0.7-3.9-4.3-6.5-8.2-5.8
					c-3,0.5-5.3,2.8-5.8,5.8h-7.7c-0.1-6.1-5-10.9-11.1-10.9C171,59.5,166.2,64.3,166.1,70.3"/>
			</defs>
			<clipPath id="SVGID_00000178178270080174893440000002909927372574094764_">
				<use xlink:href="#SVGID_00000164471557955846750050000018165575643617706116_"  style="overflow:visible;"/>
			</clipPath>
			<g style="clip-path:url(#SVGID_00000178178270080174893440000002909927372574094764_);">
				<g id="Group_41">
					<rect id="Rectangle_23" x="74.2" y="59.4" class="st0" width="172.4" height="22"/>
				</g>
			</g>
		</g>
	</g>
	<g id="Group_44">
		<path class="st0" d="M36.6,130.7c0,3.9,3.2,7.1,7.1,7.1s7.1-3.2,7.1-7.1c0-3.9-3.2-7.1-7.1-7.1S36.6,126.8,36.6,130.7L36.6,130.7"
			/>
		<g>
			<defs>
				<path id="SVGID_00000047045472143478354360000003175058054381498282_" d="M36.6,130.7c0,3.9,3.2,7.1,7.1,7.1s7.1-3.2,7.1-7.1
					c0-3.9-3.2-7.1-7.1-7.1S36.6,126.8,36.6,130.7L36.6,130.7"/>
			</defs>
			<clipPath id="SVGID_00000059285943969163358020000010197011691811733153_">
				<use xlink:href="#SVGID_00000047045472143478354360000003175058054381498282_"  style="overflow:visible;"/>
			</clipPath>
			<g style="clip-path:url(#SVGID_00000059285943969163358020000010197011691811733153_);">
				<g id="Group_43">
					<rect id="Rectangle_24" x="36.6" y="123.6" class="st0" width="14.2" height="14.2"/>
				</g>
			</g>
		</g>
	</g>
	<g id="reimagined.">
		<g class="st9">
			<path class="st0" d="M187.8,156.4h2.7v1.4h0.1c0.9-1.1,2-1.6,3.4-1.6c1.1,0,2,0.4,2.8,1l-1.9,2.4c-0.6-0.5-1.1-0.7-1.7-0.7
				c-0.7,0-1.3,0.2-1.7,0.7c-0.5,0.4-0.8,1.2-0.8,2.2v8.2h-2.7V156.4z"/>
		</g>
		<g class="st9">
			<path class="st0" d="M199.8,164.3c0,1.1,0.3,1.9,0.9,2.5c0.6,0.6,1.3,0.9,2.2,0.9c1.1,0,2-0.4,2.9-1.3l1.9,1.7
				c-1.4,1.5-2.9,2.2-4.8,2.2c-0.7,0-1.4-0.1-2-0.3c-0.3-0.1-0.7-0.3-1-0.5c-0.3-0.2-0.6-0.4-0.9-0.6c-0.6-0.5-1-1.2-1.4-2.1
				c-0.4-0.9-0.6-2-0.6-3.4c0-1.4,0.2-2.5,0.5-3.4c0.3-0.9,0.8-1.6,1.3-2.2c0.5-0.5,1.1-0.9,1.8-1.2c0.6-0.2,1.3-0.4,1.9-0.4
				c1.5,0,2.8,0.5,3.8,1.5c1.1,1,1.6,2.4,1.6,4.2v2.3H199.8z M205.4,162c0-1.1-0.3-1.9-0.8-2.4c-0.5-0.5-1.2-0.8-2-0.8
				s-1.5,0.3-2,0.8c-0.5,0.5-0.8,1.4-0.8,2.4H205.4z"/>
			<path class="st0" d="M211.4,150.9h2.7v2.7h-2.7V150.9z M211.4,156.4h2.7v13.7h-2.7V156.4z"/>
			<path class="st0" d="M217.6,156.4h2.7v1.4h0.1c0.9-1.1,2.1-1.6,3.6-1.6c0.9,0,1.7,0.2,2.3,0.5c0.6,0.3,1.1,0.8,1.6,1.3
				c1.1-1.2,2.5-1.8,4.3-1.8c1.1,0,2.2,0.4,3.1,1.2c0.9,0.8,1.4,2,1.4,3.6v9.1H234v-8.1c0-1-0.3-1.7-0.8-2.2c-0.5-0.5-1.2-0.8-2-0.8
				s-1.5,0.3-2,0.8c-0.5,0.5-0.8,1.2-0.8,2.2v8.1h-2.7v-8.1c0-1-0.3-1.7-0.8-2.2c-0.5-0.5-1.2-0.8-2-0.8s-1.5,0.3-2,0.8
				c-0.5,0.5-0.8,1.2-0.8,2.2v8.1h-2.7V156.4z"/>
			<path class="st0" d="M247.7,168.8L247.7,168.8c-0.3,0.5-0.7,0.8-1.2,1c-0.5,0.2-1.2,0.3-2.1,0.3c-1.5,0-2.6-0.4-3.4-1.2
				c-0.8-0.8-1.3-1.8-1.3-3c0-1.2,0.4-2.1,1.1-2.9c0.7-0.8,1.8-1.2,3.2-1.2h3.7v-1.4c0-1.2-0.9-1.8-2.7-1.8c-0.7,0-1.2,0.1-1.6,0.2
				c-0.4,0.2-0.7,0.5-0.9,0.8l-2.1-1.6c1-1.4,2.5-2,4.5-2c1.7,0,3,0.3,4,1c1,0.7,1.5,1.9,1.5,3.5v9.3h-2.7V168.8z M247.7,164.3h-3.2
				c-1.6,0-2.3,0.6-2.3,1.6c0,0.5,0.2,0.9,0.6,1.2c0.4,0.4,1,0.5,1.9,0.5c1.1,0,1.9-0.1,2.4-0.4c0.4-0.3,0.6-0.9,0.6-2V164.3z"/>
			<path class="st0" d="M261.6,168.6c-0.9,1-2,1.5-3.4,1.6c-0.9,0-1.6-0.2-2.1-0.6c-0.6-0.3-1-0.7-1.4-1.1c-0.3-0.4-0.6-1-0.8-1.6
				c-0.2-0.6-0.2-1.9-0.2-3.7c0-1.8,0.1-3.1,0.2-3.7c0.2-0.6,0.4-1.2,0.8-1.6c0.3-0.4,0.8-0.8,1.4-1.2c0.6-0.3,1.3-0.5,2.1-0.5
				c1.3,0,2.5,0.5,3.4,1.6v-1.4h2.7v13.3c0,2.1-0.6,3.6-1.7,4.5c-1.1,1-2.5,1.5-4,1.5c-1.8,0-3.3-0.8-4.6-2.3l2.1-1.7
				c0.3,0.3,0.7,0.6,1.2,0.8c0.5,0.3,0.9,0.4,1.4,0.4c0.9,0,1.6-0.3,2.2-0.8c0.5-0.5,0.8-1.3,0.8-2.2V168.6z M256.4,163.2
				c0,1,0,1.8,0.1,2.2c0.1,0.4,0.2,0.8,0.4,1c0.2,0.2,0.5,0.5,0.8,0.7c0.3,0.2,0.8,0.4,1.3,0.4s1-0.1,1.3-0.4
				c0.3-0.2,0.6-0.4,0.8-0.7c0.2-0.3,0.4-0.6,0.4-1c0.1-0.4,0.1-1.1,0.1-2.2c0-1.1,0-1.8-0.1-2.2c-0.1-0.4-0.2-0.7-0.4-1
				c-0.2-0.2-0.4-0.5-0.8-0.7c-0.3-0.2-0.8-0.3-1.3-0.3c-0.5,0-1,0.1-1.3,0.3c-0.4,0.2-0.6,0.5-0.8,0.7c-0.2,0.3-0.4,0.6-0.4,1
				C256.4,161.4,256.4,162.2,256.4,163.2z"/>
			<path class="st0" d="M268.3,150.9h2.7v2.7h-2.7V150.9z M268.3,156.4h2.7v13.7h-2.7V156.4z"/>
			<path class="st0" d="M274.7,156.4h2.7v1.4h0.1c0.9-1.1,2-1.6,3.4-1.6c1.1,0,2.1,0.4,3,1.2c0.9,0.8,1.4,2,1.4,3.6v9.1h-2.7v-8.1
				c0-1-0.2-1.7-0.7-2.2c-0.5-0.5-1.1-0.8-1.9-0.8c-0.8,0-1.4,0.3-1.9,0.8c-0.5,0.5-0.8,1.2-0.8,2.2v8.1h-2.7V156.4z"/>
			<path class="st0" d="M291.1,164.3c0,1.1,0.3,1.9,0.9,2.5c0.6,0.6,1.3,0.9,2.2,0.9c1.1,0,2-0.4,2.9-1.3l1.9,1.7
				c-1.4,1.5-2.9,2.2-4.8,2.2c-0.7,0-1.4-0.1-2-0.3c-0.3-0.1-0.7-0.3-1-0.5c-0.3-0.2-0.6-0.4-0.9-0.6c-0.6-0.5-1-1.2-1.4-2.1
				c-0.4-0.9-0.6-2-0.6-3.4c0-1.4,0.2-2.5,0.5-3.4c0.3-0.9,0.8-1.6,1.3-2.2c0.5-0.5,1.1-0.9,1.8-1.2c0.6-0.2,1.3-0.4,1.9-0.4
				c1.5,0,2.8,0.5,3.8,1.5c1.1,1,1.6,2.4,1.6,4.2v2.3H291.1z M296.7,162c0-1.1-0.3-1.9-0.8-2.4c-0.5-0.5-1.2-0.8-2-0.8
				c-0.8,0-1.5,0.3-2,0.8c-0.5,0.5-0.8,1.4-0.8,2.4H296.7z"/>
			<path class="st0" d="M310.5,168.6c-0.9,1-2,1.5-3.4,1.6c-0.8,0-1.5-0.2-2.1-0.5c-0.6-0.3-1.1-0.7-1.5-1.3c-0.4-0.4-0.6-1-0.7-1.8
				c-0.1-0.7-0.2-1.9-0.2-3.5c0-1.6,0.1-2.8,0.2-3.5c0.1-0.7,0.4-1.3,0.7-1.7c0.7-1.1,1.9-1.7,3.5-1.8c0.7,0,1.3,0.1,1.9,0.4
				c0.5,0.3,1,0.7,1.5,1.2v-7h2.7v19.2h-2.7V168.6z M307.9,159c-0.6,0-1.1,0.1-1.4,0.3c-0.4,0.2-0.6,0.6-0.8,1
				c-0.2,0.4-0.3,0.9-0.3,1.3c-0.1,0.5-0.1,1.1-0.1,1.6c0,0.5,0,1,0.1,1.5c0.1,0.5,0.2,1,0.3,1.4c0.2,0.4,0.4,0.7,0.8,1
				c0.3,0.2,0.8,0.4,1.4,0.4c0.6,0,1.1-0.1,1.5-0.4c0.4-0.3,0.6-0.6,0.8-1c0.2-0.4,0.3-0.9,0.3-1.4c0-0.5,0-1,0-1.5c0-0.5,0-1,0-1.5
				c-0.1-0.5-0.2-0.9-0.3-1.3c-0.1-0.4-0.4-0.7-0.8-1C309,159.1,308.5,159,307.9,159z"/>
			<path class="st0" d="M316.7,167.3h2.7v2.7h-2.7V167.3z"/>
		</g>
	</g>
	<g id="Group_48">
		<path class="st0" d="M268.2,90.2h-16.9c-0.7-3.9-4.3-6.5-8.2-5.8c-3.9,0.7-6.5,4.3-5.8,8.2c0.7,3.9,4.3,6.5,8.2,5.8
			c3-0.5,5.3-2.8,5.8-5.8h16.9c0.7,3.9,4.3,6.5,8.2,5.8c3.9-0.7,6.5-4.3,5.8-8.2s-4.3-6.5-8.2-5.8C271,84.9,268.7,87.3,268.2,90.2"
			/>
		<g>
			<defs>
				<path id="SVGID_00000108271270785553332980000001773210410375759240_" d="M268.2,90.2h-16.9c-0.7-3.9-4.3-6.5-8.2-5.8
					c-3.9,0.7-6.5,4.3-5.8,8.2c0.7,3.9,4.3,6.5,8.2,5.8c3-0.5,5.3-2.8,5.8-5.8h16.9c0.7,3.9,4.3,6.5,8.2,5.8
					c3.9-0.7,6.5-4.3,5.8-8.2s-4.3-6.5-8.2-5.8C271,84.9,268.7,87.3,268.2,90.2"/>
			</defs>
			<clipPath id="SVGID_00000103258387442344142400000001534109395439329471_">
				<use xlink:href="#SVGID_00000108271270785553332980000001773210410375759240_"  style="overflow:visible;"/>
			</clipPath>
			<g style="clip-path:url(#SVGID_00000103258387442344142400000001534109395439329471_);">
				<g id="Group_47">
					<rect id="Rectangle_26" x="237.1" y="84.3" class="st0" width="45.2" height="14.2"/>
				</g>
			</g>
		</g>
	</g>
	<g id="pomodoro_">
		<g class="st9">
			<path class="st0" d="M76.1,41.5c1.5,1.7,3.5,2.5,6,2.5c1.1,0,2-0.2,2.7-0.7s1-1.1,1-1.8c0-0.7-0.2-1.2-0.6-1.5
				c-0.4-0.3-1-0.4-1.7-0.5l-3.4-0.3c-1.6-0.2-2.9-0.7-3.9-1.7c-1-0.9-1.5-2.2-1.6-3.9c0-2,0.7-3.5,2.1-4.5c1.3-1,3-1.5,5-1.5
				c0.9,0,1.7,0.1,2.4,0.2c0.7,0.1,1.3,0.3,2,0.5c1.2,0.5,2.2,1.1,3.1,2l-2.4,2.8c-0.7-0.5-1.5-1-2.3-1.3c-0.8-0.3-1.7-0.5-2.8-0.5
				c-1.2,0-2,0.2-2.5,0.7c-0.5,0.4-0.7,1-0.7,1.7c0,0.4,0.2,0.8,0.6,1.1c0.4,0.4,1,0.6,1.9,0.7l3.1,0.2c2,0.2,3.4,0.8,4.3,1.8
				c0.8,1.1,1.2,2.4,1.2,4c0,1.9-0.8,3.4-2.2,4.4c-1.5,1.1-3.3,1.6-5.6,1.6c-3.1,0-5.9-1.2-8.3-3.5L76.1,41.5z"/>
			<path class="st0" d="M93.5,22h3.8V28h2.8v3h-2.8v11.4c0,1,0.4,1.5,1.3,1.4h1.4v3.7h-2c-1.3,0-2.4-0.4-3.3-1.3
				c-0.9-0.8-1.3-2-1.3-3.5V31h-1.9v-3h1.9V22z"/>
			<path class="st0" d="M103.2,28h3.8v11.6c0,1.3,0.4,2.3,1.1,3.1c0.7,0.7,1.6,1.1,2.7,1.1c1.1,0,2-0.4,2.7-1.1
				c0.7-0.7,1.1-1.8,1.1-3.1V28h3.8v19.5h-3.8v-2.1h-0.1c-1.3,1.5-2.9,2.3-4.9,2.3c-1.6,0-3-0.6-4.2-1.8c-1.4-1.1-2.1-2.8-2.1-5V28z
				"/>
			<path class="st0" d="M134.4,45.5c-1.3,1.5-2.9,2.2-4.9,2.3c-1.1,0-2.1-0.3-2.9-0.7c-0.8-0.5-1.6-1.1-2.1-1.8
				c-0.5-0.6-0.9-1.4-1-2.5c-0.2-1-0.3-2.7-0.3-5c0-2.3,0.1-4,0.3-5c0.2-1,0.5-1.8,1-2.4c1.1-1.6,2.8-2.5,5.1-2.5
				c1,0,1.9,0.2,2.7,0.6c0.8,0.4,1.5,1,2.2,1.7v-10h3.8v27.4h-3.8V45.5z M130.7,31.6c-0.9,0-1.6,0.2-2.1,0.5
				c-0.5,0.3-0.9,0.8-1.1,1.4c-0.2,0.6-0.4,1.2-0.5,1.9c-0.1,0.7-0.1,1.5-0.1,2.3c0,0.7,0,1.5,0.1,2.2c0.1,0.7,0.2,1.4,0.5,2
				c0.2,0.6,0.6,1,1.1,1.4c0.5,0.4,1.2,0.5,2.1,0.5c0.9,0,1.6-0.2,2.1-0.6c0.5-0.4,0.9-0.8,1.1-1.4c0.2-0.6,0.4-1.3,0.5-2
				c0-0.7,0-1.4,0-2.1c0-0.8,0-1.5,0-2.2c-0.1-0.7-0.2-1.3-0.5-1.9c-0.2-0.6-0.6-1.1-1.1-1.4C132.3,31.8,131.6,31.6,130.7,31.6z"/>
			<path class="st0" d="M139.6,28h4l4.5,13.7h0.1l4.5-13.7h4l-8.1,23.6c-0.5,1.5-1.2,2.5-2.2,3c-0.9,0.5-2,0.8-3.2,0.8h-1.3v-3.7
				h1.1c0.5,0,1-0.1,1.4-0.4c0.4-0.3,0.7-0.7,0.9-1.3l1-3.3L139.6,28z"/>
			<path class="st0" d="M158.8,20.1h3.8V24h-3.8V20.1z M158.8,28h3.8v19.5h-3.8V28z"/>
			<path class="st0" d="M167.1,28h3.8V30h0.1c1.2-1.5,2.9-2.3,4.9-2.3c1.6,0,3,0.6,4.3,1.7c1.3,1.2,2,2.8,2,5.1v13h-3.8V35.9
				c0-1.4-0.4-2.4-1.1-3.1c-0.7-0.7-1.6-1.1-2.7-1.1c-1.1,0-2,0.4-2.7,1.1c-0.7,0.7-1.1,1.8-1.1,3.1v11.6h-3.8V28z"/>
			<path class="st0" d="M197.7,45.5c-1.2,1.5-2.9,2.2-4.9,2.3c-1.2,0-2.2-0.3-3.1-0.8c-0.8-0.5-1.5-1-1.9-1.6
				c-0.5-0.6-0.9-1.4-1.1-2.4c-0.2-0.9-0.3-2.7-0.3-5.2c0-2.6,0.1-4.4,0.3-5.3c0.2-0.9,0.6-1.7,1.1-2.3c0.4-0.6,1.1-1.2,1.9-1.6
				c0.8-0.5,1.8-0.7,3.1-0.7c1.9,0,3.5,0.8,4.9,2.3V28h3.8V47c0,2.9-0.9,5.1-2.5,6.5c-1.6,1.4-3.5,2.1-5.8,2.1
				c-2.6,0-4.7-1.1-6.6-3.3l2.9-2.4c0.5,0.5,1,0.9,1.7,1.2c0.6,0.4,1.3,0.6,2,0.6c1.3,0,2.3-0.4,3.1-1.1c0.8-0.8,1.2-1.8,1.2-3.1
				V45.5z M190.2,37.7c0,1.5,0,2.5,0.1,3.1c0.1,0.6,0.3,1.1,0.6,1.5c0.3,0.4,0.6,0.7,1.2,1c0.5,0.4,1.1,0.5,1.9,0.5s1.4-0.2,1.9-0.5
				c0.5-0.3,0.9-0.6,1.1-1c0.3-0.4,0.5-0.9,0.6-1.5c0.1-0.6,0.1-1.6,0.1-3.1c0-1.5,0-2.6-0.1-3.2c-0.1-0.6-0.3-1.1-0.6-1.4
				c-0.3-0.4-0.6-0.7-1.1-1c-0.5-0.3-1.1-0.4-1.9-0.5c-0.7,0-1.4,0.2-1.9,0.5c-0.5,0.3-0.9,0.7-1.2,1c-0.3,0.4-0.5,0.8-0.6,1.4
				C190.2,35.2,190.2,36.2,190.2,37.7z"/>
			<path class="st0" d="M206.4,43.6h3.8v3.9l-3.8,2.9V43.6z"/>
		</g>
	</g>
</g>
</svg>
