<?xml version="1.0" encoding="utf-8"?>
<!-- Generator: Adobe Illustrator 27.5.0, SVG Export Plug-In . SVG Version: 6.00 Build 0)  -->
<svg version="1.1" id="Layer_2_00000120552743768837258880000002641615313470407321_"
	 xmlns="http://www.w3.org/2000/svg" xmlns:xlink="http://www.w3.org/1999/xlink" x="0px" y="0px" viewBox="0 0 383.2 195"
	 style="enable-background:new 0 0 383.2 195;" xml:space="preserve">
<style type="text/css">
	.st0{clip-path:url(#SVGID_00000013181435816136246040000014708101889415743677_);}
	.st1{fill:#074763;}
	.st2{clip-path:url(#SVGID_00000091703448512588056540000005294707878721204661_);}
	.st3{clip-path:url(#SVGID_00000177456868566582170870000001105318546901709213_);}
	.st4{clip-path:url(#SVGID_00000008863205192543210620000006968290509178796940_);}
	.st5{clip-path:url(#SVGID_00000073683366940752859380000004152747894344007090_);}
	.st6{clip-path:url(#SVGID_00000019675751893057662050000005569267214635894925_);}
	.st7{clip-path:url(#SVGID_00000070815631904089655230000017265874415158325407_);}
	.st8{clip-path:url(#SVGID_00000039133304982300496140000010785468698375053485_);}
	.st9{enable-background:new    ;}
	.st10{clip-path:url(#SVGID_00000183207925758446964490000007393861339789867965_);}
</style>
<g id="Layer_1-2">
	<g>
		<g id="Group_30_00000171679569579767953030000009644760455170426509_">
			<g>
				<defs>
					<path id="SVGID_1_" d="M102.1,129.3c0,4,3.2,7.2,7.2,7.2c3.2,0,6-2.1,6.9-5.1h44.4c0.7,3.9,4.4,6.5,8.3,5.9
						c3.9-0.7,6.5-4.4,5.9-8.3c-0.7-3.9-4.4-6.5-8.3-5.9c-3,0.5-5.3,2.9-5.9,5.9h-44.2c-0.2-4-3.6-7-7.5-6.8
						C105.1,122.3,102.1,125.5,102.1,129.3"/>
				</defs>
				<clipPath id="SVGID_00000167367695849703219340000005820009026590482604_">
					<use xlink:href="#SVGID_1_"  style="overflow:visible;"/>
				</clipPath>
			</g>
		</g>
		<g id="Group_32_00000166675557273558629270000006806352495249223348_">
			<g>
				<defs>
					<path id="SVGID_00000150093268550372254890000013917963352029362307_" d="M101.5,89.9H86.8c-0.7-3.9-4.4-6.5-8.3-5.9
						c-3,0.5-5.3,2.9-5.9,5.9H41.1c-1-3.8-4.9-6.1-8.8-5.1c-3.8,1-6.1,4.9-5.1,8.8c1,3.8,4.9,6.1,8.8,5.1c2.9-0.8,5.1-3.3,5.3-6.3
						h31.4c0.7,3.9,4.4,6.5,8.3,5.9c3-0.5,5.3-2.9,5.9-5.9h14.6c0.7,6.1,6.1,10.5,12.2,9.8c5.2-0.6,9.2-4.6,9.8-9.8h39.5
						c0.7,3.9,4.4,6.5,8.3,5.9c3-0.5,5.3-2.9,5.9-5.9h26.4c0.7,3.9,4.4,6.5,8.3,5.9c3.9-0.7,6.5-4.4,5.9-8.3
						c-0.7-3.9-4.4-6.5-8.3-5.9c-3,0.5-5.3,2.9-5.9,5.9h-26.4c-0.7-3.9-4.4-6.5-8.3-5.9c-3,0.5-5.3,2.9-5.9,5.9h-39.5
						c-0.7-6.1-6.1-10.5-12.2-9.8C106.1,80.7,102,84.8,101.5,89.9"/>
				</defs>
				<clipPath id="SVGID_00000040543928140969460450000005654661031448180866_">
					<use xlink:href="#SVGID_00000150093268550372254890000013917963352029362307_"  style="overflow:visible;"/>
				</clipPath>
			</g>
		</g>
		<g id="Group_34_00000101819724928348402310000009865388986705296563_">
			<g>
				<defs>
					<path id="SVGID_00000182504304709895739340000014857847883569075873_" d="M285.1,129.5H246c-0.1-4-3.4-7.1-7.4-7
						c-3.8,0.1-6.9,3.2-7,7h-32.8c-0.7-3.9-4.4-6.5-8.3-5.9c-3.9,0.7-6.5,4.4-5.9,8.3c0.7,3.9,4.4,6.5,8.3,5.9
						c3-0.5,5.3-2.9,5.9-5.9H232c1.2,3.8,5.3,5.8,9,4.6c2.2-0.7,3.9-2.4,4.6-4.6h39.7c1.2,5.2,6.4,8.5,11.7,7.3
						c3.6-0.8,6.4-3.7,7.3-7.3h31.8c0.7,3.9,4.4,6.5,8.3,5.9c3.9-0.7,6.5-4.4,5.9-8.3c-0.7-3.9-4.4-6.5-8.3-5.9
						c-3,0.5-5.3,2.9-5.9,5.9h-31.5c-0.1-5.4-4.6-9.6-9.9-9.5C289.4,120.1,285.2,124.3,285.1,129.5"/>
				</defs>
				<clipPath id="SVGID_00000137833361017559917530000004139731875081977747_">
					<use xlink:href="#SVGID_00000182504304709895739340000014857847883569075873_"  style="overflow:visible;"/>
				</clipPath>
			</g>
		</g>
		<g id="Group_36_00000181780457510697936010000010723602643975985037_">
			<g>
				<defs>
					<path id="SVGID_00000034789586917316147040000007956885876852060836_" d="M131.8,150.4H84.4c-0.7-3.9-4.4-6.5-8.3-5.9
						c-3.9,0.7-6.5,4.4-5.9,8.3c0.7,3.9,4.4,6.5,8.3,5.9c3-0.5,5.3-2.9,5.9-5.9h47.4c0.7,3.9,4.4,6.5,8.3,5.9
						c3.9-0.7,6.5-4.4,5.9-8.3c-0.7-3.9-4.4-6.5-8.3-5.9C134.7,145.1,132.3,147.4,131.8,150.4"/>
				</defs>
				<clipPath id="SVGID_00000024707529056740085730000003873986086053654435_">
					<use xlink:href="#SVGID_00000034789586917316147040000007956885876852060836_"  style="overflow:visible;"/>
				</clipPath>
			</g>
		</g>
		<g id="Group_38_00000060026949409864012950000003967374269224302751_">
			<g>
				<defs>
					<path id="SVGID_00000123437608624941457390000009769262693832144821_" d="M83.2,111H66.2c-0.7-3.9-4.4-6.5-8.3-5.9
						s-6.5,4.4-5.9,8.3c0.7,3.9,4.4,6.5,8.3,5.9c3-0.5,5.3-2.9,5.9-5.9h17.1c0.7,3.9,4.4,6.5,8.3,5.9c3.9-0.7,6.5-4.4,5.9-8.3
						s-4.4-6.5-8.3-5.9C86.1,105.6,83.8,108,83.2,111"/>
				</defs>
				<clipPath id="SVGID_00000142151642321968934600000006033960063330986397_">
					<use xlink:href="#SVGID_00000123437608624941457390000009769262693832144821_"  style="overflow:visible;"/>
				</clipPath>
			</g>
		</g>
		<g id="Group_40_00000067947974664645905920000013724463956429772971_">
			<g>
				<defs>
					<path id="SVGID_00000046341924475595332520000003000891571257984677_" d="M253.2,111h-31.3c-0.7-3.9-4.4-6.5-8.3-5.9
						c-3,0.5-5.3,2.9-5.9,5.9h-58.6c-0.7-3.9-4.4-6.5-8.3-5.9s-6.5,4.4-5.9,8.3c0.7,3.9,4.4,6.5,8.3,5.9c3-0.5,5.3-2.9,5.9-5.9h58.6
						c0.7,3.9,4.4,6.5,8.3,5.9c3-0.5,5.3-2.9,5.9-5.9h31.3c0.7,3.9,4.4,6.5,8.3,5.9c3.9-0.7,6.5-4.4,5.9-8.3s-4.4-6.5-8.3-5.9
						C256.1,105.6,253.7,108,253.2,111"/>
				</defs>
				<clipPath id="SVGID_00000093879214917358264120000001313321286066491831_">
					<use xlink:href="#SVGID_00000046341924475595332520000003000891571257984677_"  style="overflow:visible;"/>
				</clipPath>
			</g>
		</g>
		<g id="Group_42_00000181084528404089540690000017954273269504682682_">
			<g>
				<defs>
					<path id="SVGID_00000136386960273257737120000017072822328480860847_" d="M161.5,68.8h-23.4c-0.1-5.5-4.6-9.9-10-9.8
						c-5.4,0.1-9.7,4.4-9.8,9.8H83c-0.7-3.9-4.4-6.5-8.3-5.9c-3.9,0.7-6.5,4.4-5.9,8.3c0.7,3.9,4.4,6.5,8.3,5.9
						c3-0.5,5.3-2.9,5.9-5.9h35.5c1.3,5.3,6.6,8.6,11.9,7.3c3.6-0.9,6.5-3.7,7.3-7.3h24c1.3,6,7.2,9.8,13.2,8.5
						c4.3-0.9,7.6-4.3,8.5-8.5h8c0.7,3.9,4.4,6.5,8.3,5.9c3-0.5,5.3-2.9,5.9-5.9h22.9c0.7,3.9,4.4,6.5,8.3,5.9
						c3.9-0.7,6.5-4.4,5.9-8.3c-0.7-3.9-4.4-6.5-8.3-5.9c-3,0.5-5.3,2.9-5.9,5.9h-22.9c-0.7-3.9-4.4-6.5-8.3-5.9
						c-3,0.5-5.3,2.9-5.9,5.9h-7.8c-0.1-6.1-5.1-11-11.2-11C166.5,57.8,161.6,62.7,161.5,68.8"/>
				</defs>
				<clipPath id="SVGID_00000170964720241028193730000009476140258638746791_">
					<use xlink:href="#SVGID_00000136386960273257737120000017072822328480860847_"  style="overflow:visible;"/>
				</clipPath>
			</g>
		</g>
		<g id="Group_44_00000158750772638493620200000006120819901418894753_">
			<g>
				<defs>
					<path id="SVGID_00000083810774183683093940000010260158466421921450_" d="M30.8,129.7c0,4,3.2,7.2,7.2,7.2s7.2-3.2,7.2-7.2
						c0-4-3.2-7.2-7.2-7.2S30.8,125.8,30.8,129.7L30.8,129.7"/>
				</defs>
				<clipPath id="SVGID_00000050661745523771547910000001849245096502035858_">
					<use xlink:href="#SVGID_00000083810774183683093940000010260158466421921450_"  style="overflow:visible;"/>
				</clipPath>
			</g>
		</g>
		<g id="Group_48_00000054254430157664237340000011140759001414580658_">
			<g>
				<defs>
					<path id="SVGID_00000039842349380390584650000003983772893243990679_" d="M264.5,88.9h-17.1c-0.7-3.9-4.4-6.5-8.3-5.9
						c-3.9,0.7-6.5,4.4-5.9,8.3c0.7,3.9,4.4,6.5,8.3,5.9c3-0.5,5.3-2.9,5.9-5.9h17.1c0.7,3.9,4.4,6.5,8.3,5.9
						c3.9-0.7,6.5-4.4,5.9-8.3c-0.7-3.9-4.4-6.5-8.3-5.9C267.4,83.5,265,85.9,264.5,88.9"/>
				</defs>
				<clipPath id="SVGID_00000026162131769993968870000013672302150700463290_">
					<use xlink:href="#SVGID_00000039842349380390584650000003983772893243990679_"  style="overflow:visible;"/>
				</clipPath>
			</g>
		</g>
	</g>
	<g>
		<g id="Group_30_00000177467178581350036780000015694579871515197872_">
			<g>
				<defs>
					<path id="SVGID_00000021803482479406631250000016274454482133495936_" d="M102.1,129.3c0,4,3.2,7.2,7.2,7.2
						c3.2,0,6-2.1,6.9-5.1h44.4c0.7,3.9,4.4,6.5,8.3,5.9c3.9-0.7,6.5-4.4,5.9-8.3c-0.7-3.9-4.4-6.5-8.3-5.9c-3,0.5-5.3,2.9-5.9,5.9
						h-44.2c-0.2-4-3.6-7-7.5-6.8C105.1,122.3,102.1,125.5,102.1,129.3"/>
				</defs>
				<use xlink:href="#SVGID_00000021803482479406631250000016274454482133495936_"  style="overflow:visible;fill:#074763;"/>
				<clipPath id="SVGID_00000129201846122916196500000006543428293027267486_">
					<use xlink:href="#SVGID_00000021803482479406631250000016274454482133495936_"  style="overflow:visible;"/>
				</clipPath>
				<g style="clip-path:url(#SVGID_00000129201846122916196500000006543428293027267486_);">
					<g id="Group_29_00000047747553344975216050000005259369141885939353_">
						
							<rect id="Rectangle_17_00000118358667541038067930000000219098488030108348_" x="102.1" y="122.1" class="st1" width="72.7" height="15.2"/>
					</g>
				</g>
			</g>
		</g>
		<g id="Group_32_00000042711185080265946990000000381930606552492703_">
			<g>
				<defs>
					<path id="SVGID_00000026130602793359475200000017755386219239070602_" d="M101.5,89.9H86.8c-0.7-3.9-4.4-6.5-8.3-5.9
						c-3,0.5-5.3,2.9-5.9,5.9H41.1c-1-3.8-4.9-6.1-8.8-5.1c-3.8,1-6.1,4.9-5.1,8.8c1,3.8,4.9,6.1,8.8,5.1c2.9-0.8,5.1-3.3,5.3-6.3
						h31.4c0.7,3.9,4.4,6.5,8.3,5.9c3-0.5,5.3-2.9,5.9-5.9h14.6c0.7,6.1,6.1,10.5,12.2,9.8c5.2-0.6,9.2-4.6,9.8-9.8h39.5
						c0.7,3.9,4.4,6.5,8.3,5.9c3-0.5,5.3-2.9,5.9-5.9h26.4c0.7,3.9,4.4,6.5,8.3,5.9c3.9-0.7,6.5-4.4,5.9-8.3
						c-0.7-3.9-4.4-6.5-8.3-5.9c-3,0.5-5.3,2.9-5.9,5.9h-26.4c-0.7-3.9-4.4-6.5-8.3-5.9c-3,0.5-5.3,2.9-5.9,5.9h-39.5
						c-0.7-6.1-6.1-10.5-12.2-9.8C106.1,80.7,102,84.8,101.5,89.9"/>
				</defs>
				<use xlink:href="#SVGID_00000026130602793359475200000017755386219239070602_"  style="overflow:visible;fill:#074763;"/>
				<clipPath id="SVGID_00000150099411138960931050000013091838600153381256_">
					<use xlink:href="#SVGID_00000026130602793359475200000017755386219239070602_"  style="overflow:visible;"/>
				</clipPath>
				<g style="clip-path:url(#SVGID_00000150099411138960931050000013091838600153381256_);">
					<g id="Group_31_00000108309367234300869780000014024434365043487659_">
						
							<rect id="Rectangle_18_00000163784531225754628230000003862813437584246965_" x="27" y="80.1" class="st1" width="190.8" height="22.2"/>
					</g>
				</g>
			</g>
		</g>
		<g id="Group_34_00000070081745805631025930000010282606020434315439_">
			<g>
				<defs>
					<path id="SVGID_00000051372912665777563610000012389084923963596936_" d="M285.1,129.5H246c-0.1-4-3.4-7.1-7.4-7
						c-3.8,0.1-6.9,3.2-7,7h-32.8c-0.7-3.9-4.4-6.5-8.3-5.9c-3.9,0.7-6.5,4.4-5.9,8.3c0.7,3.9,4.4,6.5,8.3,5.9
						c3-0.5,5.3-2.9,5.9-5.9H232c1.2,3.8,5.3,5.8,9,4.6c2.2-0.7,3.9-2.4,4.6-4.6h39.7c1.2,5.2,6.4,8.5,11.7,7.3
						c3.6-0.8,6.4-3.7,7.3-7.3h31.8c0.7,3.9,4.4,6.5,8.3,5.9c3.9-0.7,6.5-4.4,5.9-8.3c-0.7-3.9-4.4-6.5-8.3-5.9
						c-3,0.5-5.3,2.9-5.9,5.9h-31.5c-0.1-5.4-4.6-9.6-9.9-9.5C289.4,120.1,285.2,124.3,285.1,129.5"/>
				</defs>
				<use xlink:href="#SVGID_00000051372912665777563610000012389084923963596936_"  style="overflow:visible;fill:#074763;"/>
				<clipPath id="SVGID_00000069369122396728756130000003515806510896929975_">
					<use xlink:href="#SVGID_00000051372912665777563610000012389084923963596936_"  style="overflow:visible;"/>
				</clipPath>
				<g style="clip-path:url(#SVGID_00000069369122396728756130000003515806510896929975_);">
					<g id="Group_33_00000113335211378670138810000008636472474700387468_">
						
							<rect id="Rectangle_19_00000097500918352147847060000003432342328499783072_" x="184.6" y="120" class="st1" width="165.7" height="19.5"/>
					</g>
				</g>
			</g>
		</g>
		<g id="Group_36_00000070801863738790558780000008687965243548993438_">
			<g>
				<defs>
					<path id="SVGID_00000046320997522761575180000009290804098697861002_" d="M131.8,150.4H84.4c-0.7-3.9-4.4-6.5-8.3-5.9
						c-3.9,0.7-6.5,4.4-5.9,8.3c0.7,3.9,4.4,6.5,8.3,5.9c3-0.5,5.3-2.9,5.9-5.9h47.4c0.7,3.9,4.4,6.5,8.3,5.9
						c3.9-0.7,6.5-4.4,5.9-8.3c-0.7-3.9-4.4-6.5-8.3-5.9C134.7,145.1,132.3,147.4,131.8,150.4"/>
				</defs>
				<use xlink:href="#SVGID_00000046320997522761575180000009290804098697861002_"  style="overflow:visible;fill:#074763;"/>
				<clipPath id="SVGID_00000150101629872872949250000003947246044037968809_">
					<use xlink:href="#SVGID_00000046320997522761575180000009290804098697861002_"  style="overflow:visible;"/>
				</clipPath>
				<g style="clip-path:url(#SVGID_00000150101629872872949250000003947246044037968809_);">
					<g id="Group_35_00000132772191967464473100000016497687965248178579_">
						
							<rect id="Rectangle_20_00000173873164053645878610000010696542105878793900_" x="70.1" y="144.4" class="st1" width="76" height="14.4"/>
					</g>
				</g>
			</g>
		</g>
		<g id="Group_38_00000114072186838328614810000007635191412132338055_">
			<g>
				<defs>
					<path id="SVGID_00000127004763834448742770000012617565024920931977_" d="M83.2,111H66.2c-0.7-3.9-4.4-6.5-8.3-5.9
						s-6.5,4.4-5.9,8.3c0.7,3.9,4.4,6.5,8.3,5.9c3-0.5,5.3-2.9,5.9-5.9h17.1c0.7,3.9,4.4,6.5,8.3,5.9c3.9-0.7,6.5-4.4,5.9-8.3
						s-4.4-6.5-8.3-5.9C86.1,105.6,83.8,108,83.2,111"/>
				</defs>
				<use xlink:href="#SVGID_00000127004763834448742770000012617565024920931977_"  style="overflow:visible;fill:#074763;"/>
				<clipPath id="SVGID_00000182518167799850551920000004661229358248257726_">
					<use xlink:href="#SVGID_00000127004763834448742770000012617565024920931977_"  style="overflow:visible;"/>
				</clipPath>
				<g style="clip-path:url(#SVGID_00000182518167799850551920000004661229358248257726_);">
					<g id="Group_37_00000027579523234129365280000011339612177658298782_">
						
							<rect id="Rectangle_21_00000067213338715796201170000008996783798670709662_" x="51.9" y="105" class="st1" width="45.6" height="14.4"/>
					</g>
				</g>
			</g>
		</g>
		<g id="Group_40_00000051384472131960676350000003847435796776219265_">
			<g>
				<defs>
					<path id="SVGID_00000035516006282902348200000014172497047244453298_" d="M253.2,111h-31.3c-0.7-3.9-4.4-6.5-8.3-5.9
						c-3,0.5-5.3,2.9-5.9,5.9h-58.6c-0.7-3.9-4.4-6.5-8.3-5.9s-6.5,4.4-5.9,8.3c0.7,3.9,4.4,6.5,8.3,5.9c3-0.5,5.3-2.9,5.9-5.9h58.6
						c0.7,3.9,4.4,6.5,8.3,5.9c3-0.5,5.3-2.9,5.9-5.9h31.3c0.7,3.9,4.4,6.5,8.3,5.9c3.9-0.7,6.5-4.4,5.9-8.3s-4.4-6.5-8.3-5.9
						C256.1,105.6,253.7,108,253.2,111"/>
				</defs>
				<use xlink:href="#SVGID_00000035516006282902348200000014172497047244453298_"  style="overflow:visible;fill:#074763;"/>
				<clipPath id="SVGID_00000000943295662299598380000006695416067643017898_">
					<use xlink:href="#SVGID_00000035516006282902348200000014172497047244453298_"  style="overflow:visible;"/>
				</clipPath>
				<g style="clip-path:url(#SVGID_00000000943295662299598380000006695416067643017898_);">
					<g id="Group_39_00000072976449374739934090000016708489695644027279_">
						
							<rect id="Rectangle_22_00000060730752267378592800000012055182843745338767_" x="134.9" y="105" class="st1" width="132.5" height="14.4"/>
					</g>
				</g>
			</g>
		</g>
		<g id="Group_42_00000120539239306102183120000004540855533387782303_">
			<g>
				<defs>
					<path id="SVGID_00000033350791701935132170000005774482395943282857_" d="M161.5,68.8h-23.4c-0.1-5.5-4.6-9.9-10-9.8
						c-5.4,0.1-9.7,4.4-9.8,9.8H83c-0.7-3.9-4.4-6.5-8.3-5.9c-3.9,0.7-6.5,4.4-5.9,8.3c0.7,3.9,4.4,6.5,8.3,5.9
						c3-0.5,5.3-2.9,5.9-5.9h35.5c1.3,5.3,6.6,8.6,11.9,7.3c3.6-0.9,6.5-3.7,7.3-7.3h24c1.3,6,7.2,9.8,13.2,8.5
						c4.3-0.9,7.6-4.3,8.5-8.5h8c0.7,3.9,4.4,6.5,8.3,5.9c3-0.5,5.3-2.9,5.9-5.9h22.9c0.7,3.9,4.4,6.5,8.3,5.9
						c3.9-0.7,6.5-4.4,5.9-8.3c-0.7-3.9-4.4-6.5-8.3-5.9c-3,0.5-5.3,2.9-5.9,5.9h-22.9c-0.7-3.9-4.4-6.5-8.3-5.9
						c-3,0.5-5.3,2.9-5.9,5.9h-7.8c-0.1-6.1-5.1-11-11.2-11C166.5,57.8,161.6,62.7,161.5,68.8"/>
				</defs>
				<use xlink:href="#SVGID_00000033350791701935132170000005774482395943282857_"  style="overflow:visible;fill:#074763;"/>
				<clipPath id="SVGID_00000178179944152276591170000010956519742493224073_">
					<use xlink:href="#SVGID_00000033350791701935132170000005774482395943282857_"  style="overflow:visible;"/>
				</clipPath>
				<g style="clip-path:url(#SVGID_00000178179944152276591170000010956519742493224073_);">
					<g id="Group_41_00000034793250034475238750000000909470093121678729_">
						
							<rect id="Rectangle_23_00000013182884614802419670000017799229084130939812_" x="68.8" y="57.8" class="st1" width="174" height="22.2"/>
					</g>
				</g>
			</g>
		</g>
		<g id="Group_44_00000125563757727881735850000016509927940796820127_">
			<g>
				<defs>
					<path id="SVGID_00000067959175771778996790000008730096695114877070_" d="M30.8,129.7c0,4,3.2,7.2,7.2,7.2s7.2-3.2,7.2-7.2
						c0-4-3.2-7.2-7.2-7.2S30.8,125.8,30.8,129.7L30.8,129.7"/>
				</defs>
				<use xlink:href="#SVGID_00000067959175771778996790000008730096695114877070_"  style="overflow:visible;fill:#074763;"/>
				<clipPath id="SVGID_00000171679126601564182870000015616621244159413683_">
					<use xlink:href="#SVGID_00000067959175771778996790000008730096695114877070_"  style="overflow:visible;"/>
				</clipPath>
				<g style="clip-path:url(#SVGID_00000171679126601564182870000015616621244159413683_);">
					<g id="Group_43_00000132796593914136738770000013497474932143405457_">
						
							<rect id="Rectangle_24_00000044859471334614606170000003559604406379460513_" x="30.8" y="122.6" class="st1" width="14.4" height="14.4"/>
					</g>
				</g>
			</g>
		</g>
		<g id="reimagined._00000114043590168520356430000011057081352263265973_">
			<g class="st9">
				<path class="st1" d="M179.1,152.4h3.8v2.1h0.1c1.3-1.6,2.9-2.3,5-2.3c1.5,0,2.9,0.5,4,1.5l-2.8,3.4c-0.8-0.7-1.7-1-2.5-1
					c-1,0-1.8,0.3-2.5,1c-0.8,0.6-1.2,1.7-1.2,3.1v11.9h-3.8V152.4z"/>
				<path class="st1" d="M195.6,163.8c0,1.6,0.4,2.8,1.3,3.6c0.8,0.8,1.9,1.3,3.2,1.3c1.6,0,3-0.6,4.2-1.9l2.8,2.5
					c-1.9,2.2-4.2,3.2-6.9,3.2c-1,0-2-0.2-2.9-0.5c-0.5-0.2-0.9-0.4-1.4-0.7c-0.5-0.2-0.9-0.5-1.3-0.9c-0.8-0.7-1.5-1.8-2-3.1
					c-0.6-1.3-0.8-2.9-0.8-4.9c0-1.9,0.2-3.6,0.7-4.9c0.5-1.3,1.1-2.4,1.8-3.1c0.8-0.8,1.6-1.3,2.6-1.7c0.9-0.3,1.9-0.5,2.8-0.5
					c2.2,0,4,0.8,5.5,2.2c1.5,1.5,2.3,3.5,2.3,6.1v3.3H195.6z M203.7,160.5c0-1.5-0.4-2.7-1.2-3.5c-0.7-0.8-1.7-1.1-2.8-1.1
					c-1.2,0-2.1,0.4-2.8,1.1c-0.7,0.8-1.1,2-1.2,3.5H203.7z"/>
				<path class="st1" d="M211.5,144.5h3.8v3.9h-3.8V144.5z M211.5,152.4h3.8v19.7h-3.8V152.4z"/>
				<path class="st1" d="M219.8,152.4h3.8v2.1h0.1c1.3-1.6,3-2.3,5.1-2.3c1.4,0,2.5,0.3,3.3,0.7c0.8,0.5,1.6,1.1,2.3,1.9
					c1.5-1.7,3.6-2.6,6.2-2.6c1.6,0,3.1,0.6,4.5,1.7c1.3,1.2,2,2.9,2.1,5.1v13.1h-3.8v-11.7c0-1.4-0.4-2.4-1.1-3.2
					c-0.7-0.7-1.7-1.1-2.8-1.1s-2.1,0.4-2.9,1.1c-0.8,0.7-1.1,1.8-1.1,3.2v11.7h-3.8v-11.7c0-1.4-0.4-2.4-1.1-3.2
					c-0.7-0.7-1.7-1.1-2.9-1.1c-1.2,0-2.1,0.4-2.8,1.1c-0.8,0.7-1.2,1.8-1.2,3.2v11.7h-3.8V152.4z"/>
				<path class="st1" d="M262.3,170.4L262.3,170.4c-0.4,0.7-1,1.2-1.7,1.5c-0.7,0.3-1.8,0.5-3.1,0.5c-2.1,0-3.8-0.6-4.9-1.7
					c-1.2-1.1-1.8-2.5-1.8-4.3c0-1.7,0.5-3,1.6-4.1c1.1-1.1,2.6-1.7,4.6-1.7h5.3v-2.1c0-1.7-1.3-2.6-3.9-2.5c-1,0-1.7,0.1-2.3,0.3
					c-0.6,0.2-1,0.6-1.4,1.2l-3-2.4c1.5-2,3.6-2.9,6.4-2.9c2.4,0,4.3,0.4,5.8,1.4c1.4,1,2.2,2.7,2.2,5.1v13.5h-3.8V170.4z
					 M262.3,163.8h-4.6c-2.2,0.1-3.3,0.8-3.3,2.4c0,0.7,0.3,1.2,0.9,1.7c0.6,0.5,1.5,0.8,2.7,0.8c1.6,0,2.7-0.2,3.4-0.6
					c0.6-0.4,0.9-1.4,0.9-2.9V163.8z"/>
				<path class="st1" d="M281.7,170.1c-1.3,1.5-2.9,2.2-4.9,2.3c-1.2,0-2.3-0.3-3.1-0.8c-0.9-0.5-1.5-1-2-1.6
					c-0.5-0.6-0.9-1.4-1.1-2.4c-0.2-0.9-0.3-2.7-0.3-5.3c0-2.6,0.1-4.4,0.3-5.4c0.2-0.9,0.6-1.7,1.1-2.3c0.5-0.6,1.1-1.2,2-1.7
					c0.8-0.5,1.8-0.7,3.1-0.7c1.9,0,3.5,0.8,4.9,2.3v-2.1h3.8v19.2c0,3-0.9,5.1-2.5,6.5c-1.6,1.4-3.6,2.1-5.8,2.1
					c-2.6-0.1-4.8-1.1-6.6-3.3l3-2.4c0.5,0.5,1.1,0.9,1.7,1.2c0.6,0.4,1.3,0.6,2,0.6c1.3,0,2.4-0.4,3.2-1.1c0.8-0.8,1.2-1.8,1.2-3.2
					V170.1z M274.1,162.3c0,1.5,0,2.6,0.1,3.1c0.1,0.6,0.3,1.1,0.6,1.5c0.3,0.4,0.6,0.7,1.2,1c0.5,0.4,1.1,0.5,1.9,0.5
					s1.4-0.2,1.9-0.5c0.5-0.3,0.9-0.6,1.1-1c0.3-0.4,0.5-0.9,0.6-1.5c0.1-0.6,0.1-1.6,0.1-3.1c0-1.5,0-2.6-0.1-3.2
					c-0.1-0.6-0.3-1.1-0.6-1.4c-0.3-0.4-0.6-0.7-1.1-1c-0.5-0.3-1.1-0.5-1.9-0.5c-0.7,0-1.4,0.2-1.9,0.5c-0.5,0.3-0.9,0.7-1.2,1
					c-0.3,0.4-0.5,0.9-0.6,1.4C274.2,159.7,274.1,160.8,274.1,162.3z"/>
				<path class="st1" d="M290.5,144.5h3.8v3.9h-3.8V144.5z M290.5,152.4h3.8v19.7h-3.8V152.4z"/>
				<path class="st1" d="M298.9,152.4h3.8v2.1h0.1c1.3-1.6,2.9-2.3,5-2.3c1.6,0,3,0.6,4.3,1.7c1.3,1.2,2,2.9,2,5.1v13.1h-3.8v-11.7
					c0-1.4-0.4-2.4-1.1-3.2c-0.7-0.7-1.6-1.1-2.7-1.1c-1.1,0-2,0.4-2.7,1.1c-0.7,0.7-1.1,1.8-1.1,3.2v11.7h-3.8V152.4z"/>
				<path class="st1" d="M321.9,163.8c0,1.6,0.4,2.8,1.3,3.6c0.8,0.8,1.9,1.3,3.2,1.3c1.6,0,3-0.6,4.2-1.9l2.8,2.5
					c-1.9,2.2-4.2,3.2-6.9,3.2c-1,0-2-0.2-2.9-0.5c-0.5-0.2-0.9-0.4-1.4-0.7c-0.5-0.2-0.9-0.5-1.3-0.9c-0.8-0.7-1.5-1.8-2-3.1
					c-0.6-1.3-0.8-2.9-0.8-4.9c0-1.9,0.2-3.6,0.7-4.9c0.5-1.3,1.1-2.4,1.8-3.1c0.8-0.8,1.6-1.3,2.6-1.7c0.9-0.3,1.8-0.5,2.8-0.5
					c2.2,0,4,0.8,5.5,2.2c1.5,1.5,2.3,3.5,2.3,6.1v3.3H321.9z M330,160.5c0-1.5-0.4-2.7-1.2-3.5c-0.7-0.8-1.7-1.1-2.8-1.1
					s-2.1,0.4-2.8,1.1c-0.7,0.8-1.1,2-1.2,3.5H330z"/>
				<path class="st1" d="M349.1,170.1c-1.3,1.5-2.9,2.2-4.9,2.3c-1.2,0-2.1-0.3-3-0.7c-0.9-0.5-1.6-1.1-2.1-1.8
					c-0.5-0.6-0.9-1.5-1-2.5c-0.2-1-0.3-2.7-0.3-5c0-2.4,0.1-4.1,0.3-5.1c0.2-1,0.5-1.8,1-2.5c1.1-1.6,2.8-2.5,5.1-2.6
					c1,0,1.9,0.2,2.7,0.6c0.8,0.4,1.5,1,2.2,1.7v-10.1h3.8v27.7h-3.8V170.1z M345.3,156.1c-0.9,0-1.6,0.2-2.1,0.5
					c-0.5,0.3-0.9,0.8-1.2,1.4c-0.2,0.6-0.4,1.2-0.5,1.9c-0.1,0.7-0.1,1.5-0.1,2.3c0,0.8,0,1.5,0.1,2.2c0.1,0.7,0.2,1.4,0.5,2
					c0.2,0.6,0.6,1,1.2,1.4c0.5,0.4,1.2,0.5,2.1,0.5c0.9,0,1.6-0.2,2.2-0.6c0.5-0.4,0.9-0.9,1.1-1.4c0.2-0.6,0.4-1.3,0.5-2
					c0-0.7,0-1.4,0-2.1c0-0.8,0-1.5,0-2.2c-0.1-0.7-0.3-1.3-0.5-1.9c-0.2-0.6-0.6-1.1-1.1-1.4C346.9,156.3,346.2,156.1,345.3,156.1z
					"/>
				<path class="st1" d="M357.2,168.2h3.8v3.9h-3.8V168.2z"/>
			</g>
		</g>
		<g id="Group_48_00000182496464057098535500000014479069738526969228_">
			<g>
				<defs>
					<path id="SVGID_00000149341194376735772410000011745089815768114054_" d="M264.5,88.9h-17.1c-0.7-3.9-4.4-6.5-8.3-5.9
						c-3.9,0.7-6.5,4.4-5.9,8.3c0.7,3.9,4.4,6.5,8.3,5.9c3-0.5,5.3-2.9,5.9-5.9h17.1c0.7,3.9,4.4,6.5,8.3,5.9
						c3.9-0.7,6.5-4.4,5.9-8.3c-0.7-3.9-4.4-6.5-8.3-5.9C267.4,83.5,265,85.9,264.5,88.9"/>
				</defs>
				<use xlink:href="#SVGID_00000149341194376735772410000011745089815768114054_"  style="overflow:visible;fill:#074763;"/>
				<clipPath id="SVGID_00000039113434697804437550000009599904798215598763_">
					<use xlink:href="#SVGID_00000149341194376735772410000011745089815768114054_"  style="overflow:visible;"/>
				</clipPath>
				<g style="clip-path:url(#SVGID_00000039113434697804437550000009599904798215598763_);">
					<g id="Group_47_00000007424376180639779230000013518027306926557587_">
						
							<rect id="Rectangle_26_00000114771313973543939280000012202888055131131534_" x="233.2" y="82.9" class="st1" width="45.6" height="14.4"/>
					</g>
				</g>
			</g>
		</g>
		<g id="pomodoro__00000099640087245082368390000013629538644712849809_">
			<g class="st9">
				<path class="st1" d="M70.1,26h3.8v2.1c1.3-1.5,2.9-2.2,4.9-2.3c2.3,0.1,4,0.9,5.1,2.6c0.5,0.6,0.9,1.4,1.1,2.4
					c0.2,1,0.3,2.7,0.3,5.1c0,2.3-0.1,4-0.3,5c-0.2,1-0.6,1.8-1.1,2.5c-0.5,0.8-1.2,1.4-2.1,1.8C81,45.7,80,46,78.8,46
					c-1,0-1.9-0.2-2.6-0.7c-0.8-0.4-1.6-1-2.3-1.7v10.1h-3.8V26z M77.7,42c0.9,0,1.6-0.2,2.2-0.5c0.5-0.4,0.9-0.8,1.1-1.4
					c0.2-0.6,0.4-1.3,0.5-2c0-0.7,0-1.4,0-2.2c0-0.8,0-1.6,0-2.3c-0.1-0.7-0.3-1.4-0.5-2c-0.2-0.6-0.6-1.1-1.1-1.4
					c-0.5-0.3-1.2-0.5-2.2-0.5c-0.9,0-1.5,0.2-2,0.6c-0.5,0.4-0.9,0.9-1.2,1.4c-0.2,0.6-0.4,1.2-0.5,1.9c-0.1,0.7-0.1,1.5-0.1,2.2
					c0,0.7,0,1.4,0.1,2.1c0.1,0.7,0.2,1.4,0.5,2c0.2,0.6,0.6,1.1,1.2,1.4C76.1,41.8,76.8,42,77.7,42z"/>
				<path class="st1" d="M88.5,35.9c0-2.1,0.2-3.7,0.5-4.8c0.3-1.1,0.9-2,1.6-2.8c0.5-0.7,1.3-1.2,2.2-1.8c0.9-0.5,2.1-0.7,3.6-0.8
					c1.5,0,2.7,0.3,3.7,0.8c0.9,0.5,1.6,1.1,2.1,1.8c0.8,0.7,1.3,1.7,1.6,2.8c0.3,1.1,0.5,2.7,0.5,4.8c0,2.1-0.2,3.7-0.5,4.7
					c-0.3,1.1-0.9,2-1.6,2.8c-0.2,0.3-0.5,0.6-0.9,0.9c-0.3,0.3-0.7,0.6-1.2,0.8c-0.9,0.5-2.2,0.8-3.7,0.9c-1.5,0-2.7-0.3-3.6-0.9
					c-0.9-0.5-1.7-1.1-2.2-1.7c-0.7-0.8-1.2-1.7-1.6-2.8C88.7,39.5,88.5,38,88.5,35.9z M100.4,35.9c0-1.4-0.1-2.4-0.2-3.1
					c-0.1-0.6-0.4-1.2-0.8-1.6c-0.3-0.4-0.7-0.8-1.3-1c-0.5-0.3-1.1-0.4-1.8-0.4c-0.7,0-1.3,0.1-1.8,0.4c-0.5,0.3-1,0.6-1.3,1
					c-0.3,0.5-0.6,1-0.7,1.6c-0.1,0.6-0.2,1.7-0.2,3c0,1.4,0.1,2.4,0.2,3c0.1,0.6,0.4,1.2,0.7,1.7c0.3,0.4,0.8,0.7,1.3,1
					c0.6,0.3,1.2,0.4,1.8,0.4c0.7,0,1.3-0.1,1.8-0.4c0.6-0.3,1-0.6,1.3-1c0.4-0.5,0.6-1.1,0.8-1.7C100.4,38.3,100.4,37.3,100.4,35.9
					z"/>
				<path class="st1" d="M108,26h3.8v2.1h0.1c1.3-1.6,3-2.3,5.1-2.3c1.4,0,2.5,0.3,3.3,0.7c0.8,0.5,1.6,1.1,2.3,1.9
					c1.5-1.7,3.6-2.6,6.2-2.6c1.6,0,3.1,0.6,4.5,1.7c1.3,1.2,2,2.9,2.1,5.1v13.1h-3.8V34c0-1.4-0.4-2.4-1.1-3.2
					c-0.7-0.7-1.7-1.1-2.8-1.1c-1.2,0-2.1,0.4-2.9,1.1c-0.8,0.7-1.1,1.8-1.1,3.2v11.7h-3.8V34c0-1.4-0.4-2.4-1.1-3.2
					c-0.7-0.7-1.7-1.1-2.9-1.1c-1.2,0-2.1,0.4-2.8,1.1c-0.8,0.7-1.2,1.8-1.2,3.2v11.7H108V26z"/>
				<path class="st1" d="M139.6,35.9c0-2.1,0.2-3.7,0.5-4.8c0.3-1.1,0.9-2,1.6-2.8c0.5-0.7,1.3-1.2,2.2-1.8c0.9-0.5,2.1-0.7,3.6-0.8
					c1.5,0,2.7,0.3,3.7,0.8c0.9,0.5,1.6,1.1,2.1,1.8c0.8,0.7,1.3,1.7,1.6,2.8c0.3,1.1,0.5,2.7,0.5,4.8c0,2.1-0.2,3.7-0.5,4.7
					c-0.3,1.1-0.9,2-1.6,2.8c-0.2,0.3-0.5,0.6-0.9,0.9c-0.3,0.3-0.7,0.6-1.2,0.8c-0.9,0.5-2.2,0.8-3.7,0.9c-1.5,0-2.7-0.3-3.6-0.9
					c-0.9-0.5-1.7-1.1-2.2-1.7c-0.7-0.8-1.2-1.7-1.6-2.8C139.7,39.5,139.6,38,139.6,35.9z M151.5,35.9c0-1.4-0.1-2.4-0.2-3.1
					c-0.1-0.6-0.4-1.2-0.8-1.6c-0.3-0.4-0.7-0.8-1.3-1c-0.5-0.3-1.1-0.4-1.8-0.4c-0.7,0-1.3,0.1-1.8,0.4c-0.5,0.3-1,0.6-1.3,1
					c-0.3,0.5-0.6,1-0.7,1.6c-0.1,0.6-0.2,1.7-0.2,3c0,1.4,0.1,2.4,0.2,3c0.1,0.6,0.4,1.2,0.7,1.7c0.3,0.4,0.8,0.7,1.3,1
					c0.6,0.3,1.2,0.4,1.8,0.4c0.7,0,1.3-0.1,1.8-0.4c0.6-0.3,1-0.6,1.3-1c0.4-0.5,0.6-1.1,0.8-1.7C151.4,38.3,151.5,37.3,151.5,35.9
					z"/>
				<path class="st1" d="M170.6,43.7c-1.3,1.5-2.9,2.2-4.9,2.3c-1.2,0-2.1-0.3-3-0.7c-0.9-0.5-1.6-1.1-2.1-1.8
					c-0.5-0.6-0.9-1.5-1-2.5c-0.2-1-0.3-2.7-0.3-5c0-2.4,0.1-4.1,0.3-5.1c0.2-1,0.5-1.8,1-2.5c1.1-1.6,2.8-2.5,5.1-2.6
					c1,0,1.9,0.2,2.7,0.6c0.8,0.4,1.5,1,2.2,1.7V18.1h3.8v27.7h-3.8V43.7z M166.8,29.8c-0.9,0-1.6,0.2-2.1,0.5
					c-0.5,0.3-0.9,0.8-1.2,1.4c-0.2,0.6-0.4,1.2-0.5,1.9c-0.1,0.7-0.1,1.5-0.1,2.3c0,0.7,0,1.5,0.1,2.2c0.1,0.7,0.2,1.4,0.5,2
					c0.2,0.6,0.6,1,1.2,1.4c0.5,0.4,1.2,0.5,2.1,0.5s1.6-0.2,2.2-0.6c0.5-0.4,0.9-0.9,1.1-1.4c0.2-0.6,0.4-1.3,0.5-2
					c0-0.7,0-1.4,0-2.1c0-0.8,0-1.5,0-2.2c-0.1-0.7-0.3-1.3-0.5-1.9c-0.2-0.6-0.6-1.1-1.1-1.4S167.7,29.8,166.8,29.8z"/>
				<path class="st1" d="M177.6,35.9c0-2.1,0.2-3.7,0.5-4.8c0.3-1.1,0.9-2,1.6-2.8c0.5-0.7,1.3-1.2,2.2-1.8c0.9-0.5,2.1-0.7,3.6-0.8
					c1.5,0,2.7,0.3,3.7,0.8c0.9,0.5,1.6,1.1,2.1,1.8c0.8,0.7,1.3,1.7,1.6,2.8c0.3,1.1,0.5,2.7,0.5,4.8c0,2.1-0.2,3.7-0.5,4.7
					c-0.3,1.1-0.9,2-1.6,2.8c-0.2,0.3-0.5,0.6-0.9,0.9c-0.3,0.3-0.7,0.6-1.2,0.8c-0.9,0.5-2.2,0.8-3.7,0.9c-1.5,0-2.7-0.3-3.6-0.9
					c-0.9-0.5-1.7-1.1-2.2-1.7c-0.7-0.8-1.2-1.7-1.6-2.8C177.8,39.5,177.6,38,177.6,35.9z M189.5,35.9c0-1.4-0.1-2.4-0.2-3.1
					c-0.1-0.6-0.4-1.2-0.8-1.6c-0.3-0.4-0.7-0.8-1.3-1c-0.5-0.3-1.1-0.4-1.8-0.4c-0.7,0-1.3,0.1-1.8,0.4c-0.5,0.3-1,0.6-1.3,1
					c-0.3,0.5-0.6,1-0.7,1.6c-0.1,0.6-0.2,1.7-0.2,3c0,1.4,0.1,2.4,0.2,3c0.1,0.6,0.4,1.2,0.7,1.7c0.3,0.4,0.8,0.7,1.3,1
					c0.6,0.3,1.2,0.4,1.8,0.4c0.7,0,1.3-0.1,1.8-0.4c0.6-0.3,1-0.6,1.3-1c0.4-0.5,0.6-1.1,0.8-1.7C189.5,38.3,189.5,37.3,189.5,35.9
					z"/>
			</g>
			<g class="st9">
				<path class="st1" d="M197.9,26h3.8v2.1h0.1c1.3-1.6,2.9-2.3,5-2.3c1.5,0,2.9,0.5,4,1.5l-2.8,3.4c-0.8-0.7-1.7-1-2.5-1
					c-1,0-1.8,0.3-2.5,1c-0.8,0.6-1.2,1.7-1.2,3.1v11.9h-3.8V26z"/>
			</g>
			<g class="st9">
				<path class="st1" d="M210.7,35.9c0-2.1,0.2-3.7,0.5-4.8c0.3-1.1,0.9-2,1.6-2.8c0.5-0.7,1.3-1.2,2.2-1.8c0.9-0.5,2.1-0.7,3.6-0.8
					c1.5,0,2.7,0.3,3.7,0.8c0.9,0.5,1.6,1.1,2.1,1.8c0.8,0.7,1.3,1.7,1.6,2.8c0.3,1.1,0.5,2.7,0.5,4.8c0,2.1-0.2,3.7-0.5,4.7
					c-0.3,1.1-0.9,2-1.6,2.8c-0.2,0.3-0.5,0.6-0.9,0.9c-0.3,0.3-0.7,0.6-1.2,0.8c-0.9,0.5-2.2,0.8-3.7,0.9c-1.5,0-2.7-0.3-3.6-0.9
					c-0.9-0.5-1.7-1.1-2.2-1.7c-0.7-0.8-1.2-1.7-1.6-2.8C210.9,39.5,210.7,38,210.7,35.9z M222.6,35.9c0-1.4-0.1-2.4-0.2-3.1
					c-0.1-0.6-0.4-1.2-0.8-1.6c-0.3-0.4-0.7-0.8-1.3-1c-0.5-0.3-1.1-0.4-1.8-0.4c-0.7,0-1.3,0.1-1.8,0.4c-0.5,0.3-1,0.6-1.3,1
					c-0.3,0.5-0.6,1-0.7,1.6c-0.1,0.6-0.2,1.7-0.2,3c0,1.4,0.1,2.4,0.2,3c0.1,0.6,0.4,1.2,0.7,1.7c0.3,0.4,0.8,0.7,1.3,1
					c0.6,0.3,1.2,0.4,1.8,0.4c0.7,0,1.3-0.1,1.8-0.4c0.6-0.3,1-0.6,1.3-1c0.4-0.5,0.6-1.1,0.8-1.7C222.6,38.3,222.6,37.3,222.6,35.9
					z"/>
				<path class="st1" d="M230.5,41.8h3.8v3.9l-3.8,2.9V41.8z"/>
			</g>
		</g>
	</g>
	<g>
		<g id="Group_30_00000103953020533941390940000000826246945613097121_">
			<g>
				<defs>
					<path id="SVGID_00000074423727597419968740000011336897996847577492_" d="M102.1,129.3c0,4,3.2,7.2,7.2,7.2
						c3.2,0,6-2.1,6.9-5.1h44.4c0.7,3.9,4.4,6.5,8.3,5.9c3.9-0.7,6.5-4.4,5.9-8.3c-0.7-3.9-4.4-6.5-8.3-5.9c-3,0.5-5.3,2.9-5.9,5.9
						h-44.2c-0.2-4-3.6-7-7.5-6.8C105.1,122.3,102.1,125.5,102.1,129.3"/>
				</defs>
				<clipPath id="SVGID_00000078022369020132773490000001812060666578558127_">
					<use xlink:href="#SVGID_00000074423727597419968740000011336897996847577492_"  style="overflow:visible;"/>
				</clipPath>
			</g>
		</g>
		<g id="Group_32_00000070099695064029202790000009441380309713950601_">
			<g>
				<defs>
					<path id="SVGID_00000147201868867666170320000001589286777055672215_" d="M101.5,89.9H86.8c-0.7-3.9-4.4-6.5-8.3-5.9
						c-3,0.5-5.3,2.9-5.9,5.9H41.1c-1-3.8-4.9-6.1-8.8-5.1c-3.8,1-6.1,4.9-5.1,8.8c1,3.8,4.9,6.1,8.8,5.1c2.9-0.8,5.1-3.3,5.3-6.3
						h31.4c0.7,3.9,4.4,6.5,8.3,5.9c3-0.5,5.3-2.9,5.9-5.9h14.6c0.7,6.1,6.1,10.5,12.2,9.8c5.2-0.6,9.2-4.6,9.8-9.8h39.5
						c0.7,3.9,4.4,6.5,8.3,5.9c3-0.5,5.3-2.9,5.9-5.9h26.4c0.7,3.9,4.4,6.5,8.3,5.9c3.9-0.7,6.5-4.4,5.9-8.3
						c-0.7-3.9-4.4-6.5-8.3-5.9c-3,0.5-5.3,2.9-5.9,5.9h-26.4c-0.7-3.9-4.4-6.5-8.3-5.9c-3,0.5-5.3,2.9-5.9,5.9h-39.5
						c-0.7-6.1-6.1-10.5-12.2-9.8C106.1,80.7,102,84.8,101.5,89.9"/>
				</defs>
				<clipPath id="SVGID_00000083798585390579414730000017171692487429252760_">
					<use xlink:href="#SVGID_00000147201868867666170320000001589286777055672215_"  style="overflow:visible;"/>
				</clipPath>
			</g>
		</g>
		<g id="Group_34_00000039132142926331609980000015242287770875262386_">
			<g>
				<defs>
					<path id="SVGID_00000111165038394858149040000014407746598746319526_" d="M285.1,129.5H246c-0.1-4-3.4-7.1-7.4-7
						c-3.8,0.1-6.9,3.2-7,7h-32.8c-0.7-3.9-4.4-6.5-8.3-5.9c-3.9,0.7-6.5,4.4-5.9,8.3c0.7,3.9,4.4,6.5,8.3,5.9
						c3-0.5,5.3-2.9,5.9-5.9H232c1.2,3.8,5.3,5.8,9,4.6c2.2-0.7,3.9-2.4,4.6-4.6h39.7c1.2,5.2,6.4,8.5,11.7,7.3
						c3.6-0.8,6.4-3.7,7.3-7.3h31.8c0.7,3.9,4.4,6.5,8.3,5.9c3.9-0.7,6.5-4.4,5.9-8.3c-0.7-3.9-4.4-6.5-8.3-5.9
						c-3,0.5-5.3,2.9-5.9,5.9h-31.5c-0.1-5.4-4.6-9.6-9.9-9.5C289.4,120.1,285.2,124.3,285.1,129.5"/>
				</defs>
				<clipPath id="SVGID_00000014612094219919629710000015857167557623712688_">
					<use xlink:href="#SVGID_00000111165038394858149040000014407746598746319526_"  style="overflow:visible;"/>
				</clipPath>
			</g>
		</g>
		<g id="Group_36_00000152976412402122186830000006555304794838364325_">
			<g>
				<defs>
					<path id="SVGID_00000064318905729773154430000009447724907158793868_" d="M131.8,150.4H84.4c-0.7-3.9-4.4-6.5-8.3-5.9
						c-3.9,0.7-6.5,4.4-5.9,8.3c0.7,3.9,4.4,6.5,8.3,5.9c3-0.5,5.3-2.9,5.9-5.9h47.4c0.7,3.9,4.4,6.5,8.3,5.9
						c3.9-0.7,6.5-4.4,5.9-8.3c-0.7-3.9-4.4-6.5-8.3-5.9C134.7,145.1,132.3,147.4,131.8,150.4"/>
				</defs>
				<clipPath id="SVGID_00000062892229568652707900000014913103447781204402_">
					<use xlink:href="#SVGID_00000064318905729773154430000009447724907158793868_"  style="overflow:visible;"/>
				</clipPath>
			</g>
		</g>
		<g id="Group_38_00000120527554439084377730000016432090374889693096_">
			<g>
				<defs>
					<path id="SVGID_00000083046686680730949650000007795016850309290625_" d="M83.2,111H66.2c-0.7-3.9-4.4-6.5-8.3-5.9
						s-6.5,4.4-5.9,8.3c0.7,3.9,4.4,6.5,8.3,5.9c3-0.5,5.3-2.9,5.9-5.9h17.1c0.7,3.9,4.4,6.5,8.3,5.9c3.9-0.7,6.5-4.4,5.9-8.3
						s-4.4-6.5-8.3-5.9C86.1,105.6,83.8,108,83.2,111"/>
				</defs>
				<clipPath id="SVGID_00000091715163386430460980000001242930505954300338_">
					<use xlink:href="#SVGID_00000083046686680730949650000007795016850309290625_"  style="overflow:visible;"/>
				</clipPath>
			</g>
		</g>
		<g id="Group_40_00000152257203871814687500000005875079764186061239_">
			<g>
				<defs>
					<path id="SVGID_00000032639913035067723140000012624580773665496467_" d="M253.2,111h-31.3c-0.7-3.9-4.4-6.5-8.3-5.9
						c-3,0.5-5.3,2.9-5.9,5.9h-58.6c-0.7-3.9-4.4-6.5-8.3-5.9s-6.5,4.4-5.9,8.3c0.7,3.9,4.4,6.5,8.3,5.9c3-0.5,5.3-2.9,5.9-5.9h58.6
						c0.7,3.9,4.4,6.5,8.3,5.9c3-0.5,5.3-2.9,5.9-5.9h31.3c0.7,3.9,4.4,6.5,8.3,5.9c3.9-0.7,6.5-4.4,5.9-8.3s-4.4-6.5-8.3-5.9
						C256.1,105.6,253.7,108,253.2,111"/>
				</defs>
				<clipPath id="SVGID_00000096051053403152187970000010694729042288277376_">
					<use xlink:href="#SVGID_00000032639913035067723140000012624580773665496467_"  style="overflow:visible;"/>
				</clipPath>
			</g>
		</g>
		<g id="Group_42_00000008858603518732299680000008662607415499989141_">
			<g>
				<defs>
					<path id="SVGID_00000084507448352320405850000004186652264094010540_" d="M161.5,68.8h-23.4c-0.1-5.5-4.6-9.9-10-9.8
						c-5.4,0.1-9.7,4.4-9.8,9.8H83c-0.7-3.9-4.4-6.5-8.3-5.9c-3.9,0.7-6.5,4.4-5.9,8.3c0.7,3.9,4.4,6.5,8.3,5.9
						c3-0.5,5.3-2.9,5.9-5.9h35.5c1.3,5.3,6.6,8.6,11.9,7.3c3.6-0.9,6.5-3.7,7.3-7.3h24c1.3,6,7.2,9.8,13.2,8.5
						c4.3-0.9,7.6-4.3,8.5-8.5h8c0.7,3.9,4.4,6.5,8.3,5.9c3-0.5,5.3-2.9,5.9-5.9h22.9c0.7,3.9,4.4,6.5,8.3,5.9
						c3.9-0.7,6.5-4.4,5.9-8.3c-0.7-3.9-4.4-6.5-8.3-5.9c-3,0.5-5.3,2.9-5.9,5.9h-22.9c-0.7-3.9-4.4-6.5-8.3-5.9
						c-3,0.5-5.3,2.9-5.9,5.9h-7.8c-0.1-6.1-5.1-11-11.2-11C166.5,57.8,161.6,62.7,161.5,68.8"/>
				</defs>
				<clipPath id="SVGID_00000027593075760567914030000003261842424291922310_">
					<use xlink:href="#SVGID_00000084507448352320405850000004186652264094010540_"  style="overflow:visible;"/>
				</clipPath>
			</g>
		</g>
		<g id="Group_44_00000053516108650724793580000006300444758510427282_">
			<g>
				<defs>
					<path id="SVGID_00000006670626438920526490000006099591285108072380_" d="M30.8,129.7c0,4,3.2,7.2,7.2,7.2s7.2-3.2,7.2-7.2
						c0-4-3.2-7.2-7.2-7.2S30.8,125.8,30.8,129.7L30.8,129.7"/>
				</defs>
				<clipPath id="SVGID_00000027577074974810573990000001107099574986106015_">
					<use xlink:href="#SVGID_00000006670626438920526490000006099591285108072380_"  style="overflow:visible;"/>
				</clipPath>
			</g>
		</g>
		<g id="Group_48_00000046317661374444626730000008459270944651801514_">
			<g>
				<defs>
					<path id="SVGID_00000145773955020306787460000002028497410982344366_" d="M264.5,88.9h-17.1c-0.7-3.9-4.4-6.5-8.3-5.9
						c-3.9,0.7-6.5,4.4-5.9,8.3c0.7,3.9,4.4,6.5,8.3,5.9c3-0.5,5.3-2.9,5.9-5.9h17.1c0.7,3.9,4.4,6.5,8.3,5.9
						c3.9-0.7,6.5-4.4,5.9-8.3c-0.7-3.9-4.4-6.5-8.3-5.9C267.4,83.5,265,85.9,264.5,88.9"/>
				</defs>
				<clipPath id="SVGID_00000096035239396125941690000012721032306574027451_">
					<use xlink:href="#SVGID_00000145773955020306787460000002028497410982344366_"  style="overflow:visible;"/>
				</clipPath>
			</g>
		</g>
	</g>
</g>
</svg>
