<?xml version="1.0" encoding="utf-8"?>
<!-- Generator: Adobe Illustrator 27.5.0, SVG Export Plug-In . SVG Version: 6.00 Build 0)  -->
<svg version="1.1" id="Layer_2_00000071552502506266464040000015180730903747794308_"
	 xmlns="http://www.w3.org/2000/svg" xmlns:xlink="http://www.w3.org/1999/xlink" x="0px" y="0px" viewBox="0 0 192.5 167.9"
	 style="enable-background:new 0 0 192.5 167.9;" xml:space="preserve">
<style type="text/css">
	.st0{fill:url(#SVGID_1_);}
	.st1{fill:url(#SVGID_00000069390563764112045940000001930840902916144029_);}
	.st2{fill:url(#SVGID_00000139986930905153420050000002048999448194996360_);}
	.st3{fill:url(#SVGID_00000036239363151990679830000014820383933293091504_);}
	.st4{fill:url(#SVGID_00000036954569774817445400000012913033440151690681_);}
	.st5{fill:url(#SVGID_00000052788283458555478140000012428544584059708814_);}
	.st6{fill:url(#SVGID_00000023973365852974309590000002538883503676963496_);}
	.st7{fill:url(#SVGID_00000135660256838837418470000007359710366138748817_);}
	.st8{enable-background:new    ;}
	.st9{fill:#175776;}
</style>
<g id="Layer_1-2">
	
		<linearGradient id="SVGID_1_" gradientUnits="userSpaceOnUse" x1="66.5059" y1="149.7966" x2="115.3195" y2="149.7966" gradientTransform="matrix(1 0 0 -1 0 170)">
		<stop  offset="0" style="stop-color:#4BA3C3"/>
		<stop  offset="1" style="stop-color:#175776"/>
	</linearGradient>
	<path class="st0" d="M71.3,24.7c2.2,0,4-1.4,4.6-3.4h29.8c0.4,2.3,2.4,4,4.7,4c2.7,0,4.8-2.2,4.8-4.8s-2.2-4.8-4.8-4.8
		c-2.4,0-4.4,1.7-4.7,4H76.1c-0.1-2.5-2.2-4.6-4.8-4.6c-2.6,0-4.8,2.2-4.8,4.8S68.7,24.7,71.3,24.7L71.3,24.7z"/>
	
		<linearGradient id="SVGID_00000025438654736660911310000006437780539135634591_" gradientUnits="userSpaceOnUse" x1="31.324" y1="113.7122" x2="159.3479" y2="113.7122" gradientTransform="matrix(1 0 0 -1 0 170)">
		<stop  offset="0" style="stop-color:#4BA3C3"/>
		<stop  offset="1" style="stop-color:#175776"/>
	</linearGradient>
	<path style="fill:url(#SVGID_00000025438654736660911310000006437780539135634591_);" d="M154.5,51.5c-2.4,0-4.4,1.7-4.7,4h-17.7
		c-0.4-2.3-2.4-4-4.7-4c-2.4,0-4.4,1.7-4.7,4H96.1c-0.4-3.7-3.6-6.6-7.4-6.6c-3.8,0-7,2.9-7.4,6.6h-9.8c-0.4-2.3-2.4-4-4.7-4
		c-2.4,0-4.4,1.7-4.7,4H40.8c-0.5-2.1-2.4-3.6-4.6-3.6c-2.7,0-4.8,2.2-4.8,4.8c0,2.7,2.2,4.8,4.8,4.8s4.6-1.9,4.8-4.4H62
		c0.4,2.3,2.4,4,4.7,4s4.4-1.7,4.7-4h9.8c0.4,3.7,3.6,6.6,7.4,6.6c3.8,0,7-2.9,7.4-6.6h26.5c0.4,2.3,2.4,4,4.7,4
		c2.4,0,4.4-1.7,4.7-4h17.7c0.4,2.3,2.4,4,4.7,4c2.7,0,4.8-2.2,4.8-4.8S157.2,51.5,154.5,51.5L154.5,51.5z"/>
	
		<linearGradient id="SVGID_00000179615695750574710580000004768912093209290626_" gradientUnits="userSpaceOnUse" x1="36.1347" y1="100.2423" x2="147.334" y2="100.2423" gradientTransform="matrix(1 0 0 -1 0 170)">
		<stop  offset="0" style="stop-color:#4BA3C3"/>
		<stop  offset="1" style="stop-color:#175776"/>
	</linearGradient>
	<path style="fill:url(#SVGID_00000179615695750574710580000004768912093209290626_);" d="M142.5,65.6c-2.4,0-4.4,1.7-4.7,4h-21.1
		c-0.1-3.5-3-6.4-6.5-6.4s-6.5,2.9-6.5,6.4H77.3c-0.1-2.6-2.2-4.7-4.8-4.7c-2.6,0-4.7,2.1-4.8,4.7h-22c-0.4-2.3-2.4-4-4.7-4
		c-2.7,0-4.8,2.2-4.8,4.8s2.2,4.8,4.8,4.8c2.4,0,4.4-1.7,4.7-4h22.2c0.6,1.9,2.4,3.3,4.6,3.3c2.1,0,4-1.4,4.6-3.3h26.6
		c0.7,2.9,3.3,5,6.4,5s5.7-2.2,6.4-5h21.3c0.4,2.3,2.4,4,4.7,4c2.7,0,4.8-2.2,4.8-4.8C147.3,67.8,145.2,65.6,142.5,65.6z"/>
	
		<linearGradient id="SVGID_00000175318698615967837390000011700803442052960176_" gradientUnits="userSpaceOnUse" x1="47.3738" y1="88.2538" x2="98.3331" y2="88.2538" gradientTransform="matrix(1 0 0 -1 0 170)">
		<stop  offset="0" style="stop-color:#4BA3C3"/>
		<stop  offset="1" style="stop-color:#175776"/>
	</linearGradient>
	<path style="fill:url(#SVGID_00000175318698615967837390000011700803442052960176_);" d="M93.5,76.9c-2.4,0-4.4,1.7-4.7,4H56.9
		c-0.4-2.3-2.4-4-4.7-4c-2.7,0-4.8,2.2-4.8,4.8c0,2.7,2.2,4.8,4.8,4.8c2.4,0,4.4-1.7,4.7-4h31.8c0.4,2.3,2.4,4,4.7,4
		c2.7,0,4.8-2.2,4.8-4.8C98.3,79.1,96.2,76.9,93.5,76.9z"/>
	
		<linearGradient id="SVGID_00000132773288501032623900000004935241676597731456_" gradientUnits="userSpaceOnUse" x1="55.4541" y1="75.0564" x2="86.0381" y2="75.0564" gradientTransform="matrix(1 0 0 -1 0 170)">
		<stop  offset="0" style="stop-color:#4BA3C3"/>
		<stop  offset="1" style="stop-color:#175776"/>
	</linearGradient>
	<path style="fill:url(#SVGID_00000132773288501032623900000004935241676597731456_);" d="M81.2,90.1c-2.4,0-4.4,1.7-4.7,4H65
		c-0.4-2.3-2.4-4-4.7-4c-2.7,0-4.8,2.2-4.8,4.8s2.2,4.8,4.8,4.8c2.4,0,4.4-1.7,4.7-4h11.5c0.4,2.3,2.4,4,4.7,4
		c2.7,0,4.8-2.2,4.8-4.8S83.9,90.1,81.2,90.1z"/>
	
		<linearGradient id="SVGID_00000104673427945959655130000001887498038115352452_" gradientUnits="userSpaceOnUse" x1="43.2102" y1="140.8649" x2="132.1356" y2="140.8649" gradientTransform="matrix(1 0 0 -1 0 170)">
		<stop  offset="0" style="stop-color:#4BA3C3"/>
		<stop  offset="1" style="stop-color:#175776"/>
	</linearGradient>
	<path style="fill:url(#SVGID_00000104673427945959655130000001887498038115352452_);" d="M48,34c2.4,0,4.4-1.7,4.7-4h39.3
		c0.4,2.3,2.4,4,4.7,4c2.4,0,4.4-1.7,4.7-4h21c0.4,2.3,2.4,4,4.7,4c2.7,0,4.8-2.2,4.8-4.8s-2.2-4.8-4.8-4.8c-2.4,0-4.4,1.7-4.7,4
		h-21c-0.4-2.3-2.4-4-4.7-4c-2.4,0-4.4,1.7-4.7,4H52.8c-0.4-2.3-2.4-4-4.7-4c-2.7,0-4.8,2.2-4.8,4.8S45.4,34,48,34z"/>
	
		<linearGradient id="SVGID_00000154388439577524864400000015831717379613404305_" gradientUnits="userSpaceOnUse" x1="33.5718" y1="128.604" x2="150.2885" y2="128.604" gradientTransform="matrix(1 0 0 -1 0 170)">
		<stop  offset="0" style="stop-color:#4BA3C3"/>
		<stop  offset="1" style="stop-color:#175776"/>
	</linearGradient>
	<path style="fill:url(#SVGID_00000154388439577524864400000015831717379613404305_);" d="M38.4,47c2.4,0,4.4-1.7,4.7-4h23.8
		c0.7,2.9,3.3,5.1,6.5,5.1s5.8-2.2,6.5-5.1h16.1c0.7,3.4,3.7,5.9,7.3,5.9c3.6,0,6.6-2.5,7.3-5.9h5.4c0.4,2.3,2.4,4,4.7,4
		c2.4,0,4.4-1.7,4.7-4h15.4c0.4,2.3,2.4,4,4.7,4c2.7,0,4.8-2.2,4.8-4.8c0-2.7-2.2-4.8-4.8-4.8c-2.4,0-4.4,1.7-4.7,4h-15.4
		c-0.4-2.3-2.4-4-4.7-4c-2.4,0-4.4,1.7-4.7,4h-5.2c0-4.1-3.4-7.4-7.4-7.4c-4.1,0-7.4,3.3-7.4,7.4H80.1c0-3.6-3-6.6-6.7-6.6
		c-3.7,0-6.6,2.9-6.7,6.6H43.1c-0.4-2.3-2.4-4-4.7-4c-2.7,0-4.8,2.2-4.8,4.8C33.6,44.8,35.7,47,38.4,47z"/>
	
		<linearGradient id="SVGID_00000076589421979172853190000000592316042300058251_" gradientUnits="userSpaceOnUse" x1="66.4959" y1="60.3738" x2="76.1258" y2="60.3738" gradientTransform="matrix(1 0 0 -1 8.744710e-03 170.0008)">
		<stop  offset="0" style="stop-color:#4BA3C3"/>
		<stop  offset="1" style="stop-color:#175776"/>
	</linearGradient>
	<circle style="fill:url(#SVGID_00000076589421979172853190000000592316042300058251_);" cx="71.3" cy="109.6" r="4.8"/>
	<g class="st8">
		<path class="st9" d="M26.3,138c1.7,1.8,3.9,2.8,6.6,2.8c1.2,0,2.2-0.2,3-0.7c0.8-0.5,1.1-1.2,1.1-2c0-0.8-0.2-1.3-0.7-1.6
			c-0.5-0.3-1.1-0.5-1.9-0.5l-3.7-0.3c-1.8-0.2-3.2-0.8-4.3-1.8c-1.1-1-1.7-2.4-1.7-4.3c0-2.2,0.8-3.9,2.3-5
			c1.4-1.1,3.3-1.7,5.5-1.7c1,0,1.8,0.1,2.6,0.2c0.8,0.1,1.5,0.3,2.1,0.6c1.3,0.5,2.4,1.3,3.4,2.2l-2.6,3.1
			c-0.8-0.6-1.7-1.1-2.5-1.5c-0.9-0.3-1.9-0.5-3.1-0.5c-1.3,0-2.2,0.2-2.7,0.7c-0.5,0.5-0.8,1.1-0.8,1.9c0,0.5,0.2,0.9,0.6,1.3
			c0.4,0.4,1.1,0.7,2.1,0.8l3.5,0.3c2.2,0.2,3.7,0.8,4.7,2c0.9,1.2,1.3,2.6,1.3,4.4c0,2.1-0.8,3.7-2.5,4.8c-1.6,1.2-3.7,1.8-6.1,1.8
			c-3.4,0-6.4-1.3-9.2-3.8L26.3,138z"/>
		<path class="st9" d="M43,123.1h4.4l4.9,15h0.1l4.9-15h4.4L52.8,149c-0.6,1.6-1.4,2.7-2.4,3.3c-1,0.6-2.2,0.9-3.5,0.9h-1.4v-4h1.2
			c0.5,0,1.1-0.2,1.5-0.5c0.5-0.3,0.8-0.8,1-1.4l1.1-3.6L43,123.1z"/>
		<path class="st9" d="M64.8,123.1H69v2.3H69c1.4-1.7,3.2-2.5,5.4-2.5c1.7,0,3.3,0.6,4.7,1.9c1.4,1.3,2.2,3.1,2.2,5.6v14.3h-4.2
			v-12.8c0-1.5-0.4-2.6-1.2-3.4c-0.8-0.8-1.7-1.2-2.9-1.2s-2.2,0.4-3,1.2c-0.8,0.8-1.2,1.9-1.2,3.4v12.8h-4.2V123.1z"/>
		<path class="st9" d="M98.4,142.7L98.4,142.7c-0.5,0.7-1.1,1.3-1.9,1.6c-0.8,0.4-1.9,0.5-3.3,0.5c-2.3,0-4.1-0.7-5.4-1.9
			c-1.3-1.2-2-2.8-2-4.7c0-1.8,0.6-3.3,1.7-4.5c1.1-1.2,2.8-1.8,5-1.9h5.8v-2.3c0-1.9-1.4-2.8-4.3-2.8c-1,0-1.9,0.1-2.5,0.3
			c-0.6,0.3-1.1,0.7-1.5,1.3l-3.3-2.6c1.6-2.1,3.9-3.2,7-3.1c2.6,0,4.7,0.5,6.3,1.5c1.6,1.1,2.4,2.9,2.4,5.5v14.7h-4.2V142.7z
			 M98.4,135.5h-5c-2.4,0.1-3.6,0.9-3.6,2.6c0,0.7,0.3,1.4,0.9,1.9c0.6,0.6,1.6,0.8,3,0.8c1.8,0,3-0.2,3.7-0.6c0.7-0.5,1-1.5,1-3.1
			V135.5z"/>
		<path class="st9" d="M108.7,123.1h4.2v2.2c1.4-1.6,3.2-2.4,5.4-2.5c2.5,0.1,4.4,1,5.6,2.8c0.6,0.7,1,1.6,1.2,2.7
			c0.2,1.1,0.3,2.9,0.3,5.5c0,2.5-0.1,4.4-0.3,5.5c-0.2,1.1-0.6,2-1.2,2.7c-0.6,0.8-1.3,1.5-2.3,2c-0.9,0.5-2,0.8-3.3,0.8
			c-1.1,0-2-0.2-2.9-0.7c-0.9-0.4-1.7-1-2.5-1.8v11h-4.2V123.1z M117,140.5c1,0,1.8-0.2,2.3-0.6c0.6-0.4,1-0.9,1.2-1.5
			c0.3-0.7,0.4-1.4,0.5-2.2c0-0.8,0-1.6,0-2.4c0-0.9,0-1.7,0-2.5c-0.1-0.8-0.3-1.5-0.5-2.2c-0.2-0.7-0.6-1.2-1.2-1.5
			c-0.6-0.3-1.4-0.5-2.3-0.5c-0.9,0-1.7,0.2-2.2,0.6c-0.6,0.4-1,0.9-1.3,1.6c-0.3,0.7-0.4,1.4-0.5,2.1c-0.1,0.8-0.1,1.6-0.1,2.4
			c0,0.8,0,1.5,0.1,2.3c0.1,0.8,0.2,1.5,0.5,2.2c0.3,0.6,0.7,1.2,1.3,1.6C115.3,140.3,116,140.5,117,140.5z"/>
		<path class="st9" d="M131.3,138c1.7,1.8,3.9,2.8,6.6,2.8c1.2,0,2.2-0.2,3-0.7c0.8-0.5,1.1-1.2,1.1-2c0-0.8-0.2-1.3-0.7-1.6
			c-0.5-0.3-1.1-0.5-1.9-0.5l-3.7-0.3c-1.8-0.2-3.2-0.8-4.3-1.8c-1.1-1-1.7-2.4-1.7-4.3c0-2.2,0.8-3.9,2.3-5
			c1.4-1.1,3.3-1.7,5.5-1.7c1,0,1.8,0.1,2.6,0.2c0.8,0.1,1.5,0.3,2.1,0.6c1.3,0.5,2.4,1.3,3.4,2.2l-2.6,3.1
			c-0.8-0.6-1.7-1.1-2.5-1.5c-0.9-0.3-1.9-0.5-3-0.5c-1.3,0-2.2,0.2-2.7,0.7c-0.5,0.5-0.8,1.1-0.8,1.9c0,0.5,0.2,0.9,0.6,1.3
			c0.4,0.4,1.1,0.7,2.1,0.8l3.5,0.3c2.2,0.2,3.7,0.8,4.7,2c0.9,1.2,1.3,2.6,1.3,4.4c0,2.1-0.8,3.7-2.5,4.8c-1.6,1.2-3.7,1.8-6.1,1.8
			c-3.4,0-6.4-1.3-9.2-3.8L131.3,138z"/>
		<path class="st9" d="M149.9,133.8c0-2.3,0.2-4,0.5-5.2c0.4-1.2,0.9-2.2,1.7-3c0.6-0.7,1.4-1.4,2.4-1.9c1-0.5,2.3-0.8,3.9-0.8
			c1.6,0,3,0.3,4,0.8c1,0.6,1.8,1.2,2.3,1.9c0.8,0.8,1.4,1.8,1.8,3c0.3,1.2,0.5,2.9,0.5,5.2c0,2.3-0.2,4-0.5,5.2
			c-0.3,1.2-0.9,2.2-1.8,3.1c-0.3,0.3-0.6,0.6-1,0.9c-0.3,0.3-0.8,0.6-1.3,0.9c-1,0.6-2.3,0.9-4,0.9c-1.6,0-2.9-0.3-3.9-0.9
			c-1-0.5-1.8-1.1-2.4-1.8c-0.8-0.9-1.3-1.9-1.7-3.1C150.1,137.8,149.9,136.1,149.9,133.8z M162.9,133.9c0-1.5-0.1-2.7-0.2-3.4
			c-0.1-0.7-0.4-1.3-0.8-1.8c-0.3-0.5-0.8-0.9-1.4-1.1c-0.6-0.3-1.2-0.4-2-0.4c-0.7,0-1.4,0.1-2,0.4c-0.6,0.3-1,0.7-1.4,1.1
			c-0.4,0.5-0.6,1.1-0.8,1.8c-0.2,0.7-0.2,1.8-0.2,3.3c0,1.5,0.1,2.6,0.2,3.3c0.2,0.7,0.4,1.3,0.8,1.9c0.4,0.4,0.8,0.8,1.4,1.1
			c0.6,0.3,1.3,0.5,2,0.5c0.8,0,1.4-0.2,2-0.5c0.6-0.3,1.1-0.7,1.4-1.1c0.4-0.5,0.7-1.2,0.8-1.9
			C162.8,136.4,162.9,135.3,162.9,133.9z"/>
	</g>
</g>
</svg>
